<?xml version="1.0" encoding="UTF-8" standalone="no"?>
<!-- Created with Inkscape (http://www.inkscape.org/) -->

<svg
   xmlns:dc="http://purl.org/dc/elements/1.1/"
   xmlns:cc="http://creativecommons.org/ns#"
   xmlns:rdf="http://www.w3.org/1999/02/22-rdf-syntax-ns#"
   xmlns:svg="http://www.w3.org/2000/svg"
   xmlns="http://www.w3.org/2000/svg"
   xmlns:xlink="http://www.w3.org/1999/xlink"
   xmlns:sodipodi="http://sodipodi.sourceforge.net/DTD/sodipodi-0.dtd"
   xmlns:inkscape="http://www.inkscape.org/namespaces/inkscape"
   version="1.0"
   width="360.39041"
   height="292.93442"
   viewBox="0 0 250.53916 202.02519"
   id="svg2"
   xml:space="preserve"
   style="overflow:visible"
   inkscape:version="0.47 r22583"
   sodipodi:docname="m08a-map.svg"><metadata
   id="metadata424"><rdf:RDF><cc:Work
       rdf:about=""><dc:format>image/svg+xml</dc:format><dc:type
         rdf:resource="http://purl.org/dc/dcmitype/StillImage" /><dc:title /></cc:Work></rdf:RDF></metadata><defs
   id="defs422"><inkscape:perspective
   sodipodi:type="inkscape:persp3d"
   inkscape:vp_x="0 : 212.59842 : 1"
   inkscape:vp_y="0 : 1000 : 0"
   inkscape:vp_z="708.66138 : 212.59842 : 1"
   inkscape:persp3d-origin="354.33069 : 141.73228 : 1"
   id="perspective426" />

	<inkscape:perspective
   id="perspective3403"
   inkscape:persp3d-origin="0.5 : 0.33333333 : 1"
   inkscape:vp_z="1 : 0.5 : 1"
   inkscape:vp_y="0 : 1000 : 0"
   inkscape:vp_x="0 : 0.5 : 1"
   sodipodi:type="inkscape:persp3d" />

	<inkscape:perspective
   id="perspective4198"
   inkscape:persp3d-origin="0.5 : 0.33333333 : 1"
   inkscape:vp_z="1 : 0.5 : 1"
   inkscape:vp_y="0 : 1000 : 0"
   inkscape:vp_x="0 : 0.5 : 1"
   sodipodi:type="inkscape:persp3d" /><inkscape:perspective
   id="perspective4220"
   inkscape:persp3d-origin="0.5 : 0.33333333 : 1"
   inkscape:vp_z="1 : 0.5 : 1"
   inkscape:vp_y="0 : 1000 : 0"
   inkscape:vp_x="0 : 0.5 : 1"
   sodipodi:type="inkscape:persp3d" />


	<inkscape:perspective
   id="perspective4220-2"
   inkscape:persp3d-origin="0.5 : 0.33333333 : 1"
   inkscape:vp_z="1 : 0.5 : 1"
   inkscape:vp_y="0 : 1000 : 0"
   inkscape:vp_x="0 : 0.5 : 1"
   sodipodi:type="inkscape:persp3d" /><inkscape:perspective
   id="perspective4220-1"
   inkscape:persp3d-origin="0.5 : 0.33333333 : 1"
   inkscape:vp_z="1 : 0.5 : 1"
   inkscape:vp_y="0 : 1000 : 0"
   inkscape:vp_x="0 : 0.5 : 1"
   sodipodi:type="inkscape:persp3d" /><inkscape:perspective
   id="perspective4220-22"
   inkscape:persp3d-origin="0.5 : 0.33333333 : 1"
   inkscape:vp_z="1 : 0.5 : 1"
   inkscape:vp_y="0 : 1000 : 0"
   inkscape:vp_x="0 : 0.5 : 1"
   sodipodi:type="inkscape:persp3d" /><inkscape:perspective
   id="perspective4220-3"
   inkscape:persp3d-origin="0.5 : 0.33333333 : 1"
   inkscape:vp_z="1 : 0.5 : 1"
   inkscape:vp_y="0 : 1000 : 0"
   inkscape:vp_x="0 : 0.5 : 1"
   sodipodi:type="inkscape:persp3d" /><inkscape:perspective
   id="perspective4220-9"
   inkscape:persp3d-origin="0.5 : 0.33333333 : 1"
   inkscape:vp_z="1 : 0.5 : 1"
   inkscape:vp_y="0 : 1000 : 0"
   inkscape:vp_x="0 : 0.5 : 1"
   sodipodi:type="inkscape:persp3d" /><inkscape:perspective
   id="perspective4220-8"
   inkscape:persp3d-origin="0.5 : 0.33333333 : 1"
   inkscape:vp_z="1 : 0.5 : 1"
   inkscape:vp_y="0 : 1000 : 0"
   inkscape:vp_x="0 : 0.5 : 1"
   sodipodi:type="inkscape:persp3d" /><inkscape:perspective
   id="perspective4220-13"
   inkscape:persp3d-origin="0.5 : 0.33333333 : 1"
   inkscape:vp_z="1 : 0.5 : 1"
   inkscape:vp_y="0 : 1000 : 0"
   inkscape:vp_x="0 : 0.5 : 1"
   sodipodi:type="inkscape:persp3d" /><inkscape:perspective
   id="perspective4220-7"
   inkscape:persp3d-origin="0.5 : 0.33333333 : 1"
   inkscape:vp_z="1 : 0.5 : 1"
   inkscape:vp_y="0 : 1000 : 0"
   inkscape:vp_x="0 : 0.5 : 1"
   sodipodi:type="inkscape:persp3d" /><inkscape:perspective
   id="perspective4321"
   inkscape:persp3d-origin="0.5 : 0.33333333 : 1"
   inkscape:vp_z="1 : 0.5 : 1"
   inkscape:vp_y="0 : 1000 : 0"
   inkscape:vp_x="0 : 0.5 : 1"
   sodipodi:type="inkscape:persp3d" />

	<inkscape:perspective
   id="perspective4348"
   inkscape:persp3d-origin="0.5 : 0.33333333 : 1"
   inkscape:vp_z="1 : 0.5 : 1"
   inkscape:vp_y="0 : 1000 : 0"
   inkscape:vp_x="0 : 0.5 : 1"
   sodipodi:type="inkscape:persp3d" /><inkscape:perspective
   id="perspective4370"
   inkscape:persp3d-origin="0.5 : 0.33333333 : 1"
   inkscape:vp_z="1 : 0.5 : 1"
   inkscape:vp_y="0 : 1000 : 0"
   inkscape:vp_x="0 : 0.5 : 1"
   sodipodi:type="inkscape:persp3d" /><inkscape:perspective
   id="perspective4392"
   inkscape:persp3d-origin="0.5 : 0.33333333 : 1"
   inkscape:vp_z="1 : 0.5 : 1"
   inkscape:vp_y="0 : 1000 : 0"
   inkscape:vp_x="0 : 0.5 : 1"
   sodipodi:type="inkscape:persp3d" /><inkscape:perspective
   id="perspective4392-7"
   inkscape:persp3d-origin="0.5 : 0.33333333 : 1"
   inkscape:vp_z="1 : 0.5 : 1"
   inkscape:vp_y="0 : 1000 : 0"
   inkscape:vp_x="0 : 0.5 : 1"
   sodipodi:type="inkscape:persp3d" /><inkscape:perspective
   id="perspective4459"
   inkscape:persp3d-origin="0.5 : 0.33333333 : 1"
   inkscape:vp_z="1 : 0.5 : 1"
   inkscape:vp_y="0 : 1000 : 0"
   inkscape:vp_x="0 : 0.5 : 1"
   sodipodi:type="inkscape:persp3d" /><inkscape:perspective
   id="perspective4487"
   inkscape:persp3d-origin="0.5 : 0.33333333 : 1"
   inkscape:vp_z="1 : 0.5 : 1"
   inkscape:vp_y="0 : 1000 : 0"
   inkscape:vp_x="0 : 0.5 : 1"
   sodipodi:type="inkscape:persp3d" /><inkscape:perspective
   id="perspective3346"
   inkscape:persp3d-origin="0.5 : 0.33333333 : 1"
   inkscape:vp_z="1 : 0.5 : 1"
   inkscape:vp_y="0 : 1000 : 0"
   inkscape:vp_x="0 : 0.5 : 1"
   sodipodi:type="inkscape:persp3d" /></defs><sodipodi:namedview
   pagecolor="#ffffff"
   bordercolor="#666666"
   borderopacity="1"
   objecttolerance="10"
   gridtolerance="10"
   guidetolerance="10"
   inkscape:pageopacity="0"
   inkscape:pageshadow="2"
   inkscape:window-width="1440"
   inkscape:window-height="877"
   id="namedview420"
   showgrid="false"
   inkscape:zoom="1.7474369"
   inkscape:cx="71.170953"
   inkscape:cy="176.16603"
   inkscape:window-x="1440"
   inkscape:window-y="0"
   inkscape:window-maximized="1"
   inkscape:current-layer="svg2" />

<image
   xlink:href="m08a-bkgrnd.png"
   x="0.064135969"
   y="-0.82991183"
   width="250.19511"
   height="203.5253"
   id="background" /><polygon
   points="505.122,305.347 505.122,305.347 506.547,306.549 507.694,308.855 506.266,307.648 506.367,309.516 505.22,307.209 "
   transform="matrix(0.69804323,0,0,0.6414587,-241.8584,-118.51704)"
   id="polygon18"
   style="fill:#000000;fill-rule:evenodd" /><polygon
   points="601.397,294.795 601.848,292.98 600.288,295.028 599.839,296.84 599.839,296.84 601.466,295.927 603.028,293.879 "
   transform="matrix(0.69539781,0.06071436,-0.05579276,0.63902772,-222.36034,-155.43868)"
   id="polygon20"
   style="fill:#000000;fill-rule:evenodd" /><polygon
   points="553.565,331.729 553.565,331.729 555.429,331.637 557.74,330.499 555.872,330.594 557.083,329.169 554.773,330.308 "
   transform="matrix(0.69804323,0,0,0.6414587,-241.8584,-118.51704)"
   id="polygon22"
   style="fill:#000000;fill-rule:evenodd" /><polygon
   points="488.928,261.891 488.928,261.891 488.277,260.143 488.411,257.571 489.062,259.325 489.892,257.648 489.757,260.22 "
   transform="matrix(0.69804323,0,0,0.6414587,-241.8584,-118.51704)"
   id="polygon24"
   style="fill:#000000;fill-rule:evenodd;fill-opacity:1" /><polygon
   points="522.526,239.431 522.526,239.431 520.855,238.601 519.194,236.633 520.868,237.467 520.327,235.677 521.988,237.645 "
   transform="matrix(0.69804323,0,0,0.6414587,-241.8584,-118.51704)"
   id="polygon26"
   style="fill:#000000;fill-rule:evenodd" /><polygon
   points="493.442,225.413 493.442,225.413 494.104,227.156 493.988,229.729 493.325,227.98 492.506,229.662 492.624,227.088 "
   transform="matrix(0.69804323,0,0,0.6414587,-241.8584,-118.51704)"
   id="polygon28"
   style="fill:#000000;fill-rule:evenodd" /><polygon
   points="505.641,222.433 505.641,222.433 507.408,223.032 509.318,224.76 507.546,224.157 508.322,225.859 506.414,224.131 "
   transform="matrix(0.69804323,0,0,0.6414587,-241.8584,-118.51704)"
   id="polygon30"
   style="fill:#000000;fill-rule:evenodd" /><path
   style="fill:none;stroke:#ffffff;stroke-width:2.19999998999999979;stroke-linecap:butt;stroke-linejoin:miter;stroke-opacity:1;stroke-miterlimit:4;stroke-dasharray:none;opacity:1"
   d="m 140.66726,83.418204 c 2.96937,6.592992 9.24337,9.837805 9.24337,9.837805"
   id="path4188"
   transform="matrix(0.6951882,0,0,0.6951882,0,-0.80967973)"
   sodipodi:nodetypes="cc" /><path
   style="fill:none;stroke:#ffffff;stroke-width:1.39037645000000021;stroke-linecap:butt;stroke-linejoin:miter;stroke-miterlimit:4;stroke-opacity:1;stroke-dasharray:none;overflow:visible"
   d="m 188.86636,55.087131 c -4.18503,1.949785 -9.18187,2.556132 -9.18187,2.556132"
   id="path4188-7-0-7-1-6"
   sodipodi:nodetypes="cc" /><path
   d="m 99.50777,48.338557 c -0.13123,1.92374 1.29138,4.73012 2.01176,5.27536 0.72038,0.54524 -4.26574,0.18217 -4.09612,2.16813 0.70014,8.19399 26.05936,20.237692 38.39169,21.627092 11.72757,1.32048 21.83979,-3.720654 32.2035,-14.666582 5.46169,-5.76852 14.66405,-4.432032 20.90965,-7.708647"
   id="path36"
   style="fill:none;stroke:#000000;stroke-width:1.00379657999999994;stroke-miterlimit:2.41420007000000014;stroke-opacity:1;fill-opacity:1"
   sodipodi:nodetypes="csscsc" /><polygon
   points="616.763,277.08 611.688,274.085 610.871,277.024 610.871,277.024 "
   id="polygon38-3"
   style="fill:#ffffff;overflow:visible"
   transform="matrix(0.67884737,-0.57512776,0.55194289,0.59733105,-378.31306,242.09113)" /><polygon
   points="611.688,274.085 610.871,277.024 610.871,277.024 616.763,277.08 "
   id="polygon38"
   style="fill:#000000"
   transform="matrix(0.5227891,-0.46255368,0.42505832,0.48041096,-247.95543,205.51593)" /><path
   d="m 121.69717,33.772317 c 1.34373,1.46188 2.04457,2.02123 6.97624,0.34254 -2.98413,2.061 -3.81201,3.19767 -3.10838,5.68909 1.44425,3.55497 4.75297,4.49919 7.87672,4.3523"
   id="path40"
   style="fill:none;stroke:#000000;stroke-width:1.00379657999999994;stroke-miterlimit:2.41420007000000014;stroke-opacity:1" /><path
   d="m 115.40222,27.709244 c 1.47776,1.240581 2.52622,1.937847 3.79107,3.342"
   id="path46"
   style="fill:#000000;fill-opacity:1;stroke:#000000;stroke-width:1.01706028;stroke-miterlimit:4;stroke-opacity:1;stroke-dasharray:none" /><polygon
   points="515.41,233.329 520.213,236.741 517.76,231.384 515.41,233.329 "
   id="polygon48"
   style="fill:#000000;fill-opacity:1;stroke:#000000;stroke-width:1.51992166;stroke-miterlimit:4;stroke-opacity:1;stroke-dasharray:none"
   transform="matrix(0.45477796,0,0,0.39722623,-115.89284,-61.351378)" /><polygon
   points="513.587,227.548 508.357,224.835 511.53,229.8 513.587,227.548 "
   id="polygon50"
   style="fill:#000000;fill-opacity:1;stroke:#000000;stroke-width:1.51992166;stroke-miterlimit:4;stroke-opacity:1;stroke-dasharray:none"
   transform="matrix(0.43725331,0,0,0.39493684,-108.60205,-62.478307)" /><path
   d="m 112.46694,25.310187 c -0.97586,-0.81208 -3.6731,-2.71272 -4.5303,-3.77947 -5.01334,-0.70432 -5.29396,4.85648 -5.41053,5.768"
   id="path52"
   style="fill:none;stroke:#000000;stroke-width:1.00379657999999994;stroke-miterlimit:2.41420007000000014;fill-opacity:1;stroke-opacity:1" /><path
   d="m 102.16732,31.407895 c -0.20523,1.835854 -2.300053,5.626875 -2.491317,7.246559 -0.198942,1.682546 0.178699,4.395916 0.06981,5.618536"
   id="path58"
   style="fill:none;stroke:#000000;stroke-width:1.00379657999999994;stroke-miterlimit:2.41420007000000014;stroke-opacity:1" /><polygon
   points="487.958,252.62 487.958,252.62 489.012,258.417 490.998,252.87 "
   id="polygon60"
   style="fill:#000000"
   transform="matrix(0.69804323,0,0,0.6414587,-241.8584,-118.51704)" /><polygon
   points="494.236,234.914 494.236,234.914 493.3,229.096 491.202,234.602 "
   id="polygon62"
   style="fill:#000000"
   transform="matrix(0.69804323,0,0,0.6414587,-241.8584,-118.51704)" /><path
   style="fill:none;stroke:#ffffff;stroke-width:1.52941405999999991;stroke-linecap:butt;stroke-linejoin:miter;stroke-miterlimit:4;stroke-opacity:1;stroke-dasharray:none;overflow:visible"
   d="m 103.37074,58.126334 c 1.85434,4.758309 3.74366,10.356317 3.74366,10.356317"
   id="path4188-7"
   sodipodi:nodetypes="cc" /><path
   d="m 111.55949,78.868147 c -4.13521,-8.20939 -6.47011,-17.14305 -8.34047,-20.99048"
   id="path68"
   style="fill:none;stroke:#000000;stroke-width:1.00379657999999994;stroke-miterlimit:2.41420007000000014;stroke-opacity:1"
   sodipodi:nodetypes="cc" /><polygon
   points="492.144,270.535 490.787,276.269 493.835,276.179 493.835,276.179 "
   id="polygon70"
   style="fill:#000000"
   transform="matrix(0.66019101,-0.22674255,0.20836243,0.60667484,-279.31873,1.998427)" /><path
   style="fill:none;stroke:#ffffff;stroke-width:1.52941403000000009;stroke-linecap:butt;stroke-linejoin:miter;stroke-miterlimit:4;stroke-opacity:1;stroke-dasharray:none;overflow:visible"
   d="m 133.33758,95.56302 c -3.09639,1.504466 -6.98002,0.787226 -6.98002,0.787226"
   id="path4188-7-0"
   sodipodi:nodetypes="cc" /><path
   d="m 113.38348,82.060039 c 2.15695,3.748044 3.85808,6.64872 4.14568,7.204865 4.58754,8.877147 13.18603,7.870056 16.08431,6.066274 1.91683,-1.192471 5.26674,1.134099 12.377,-1.706921"
   id="path76"
   style="fill:none;stroke:#000000;stroke-width:1.00379657999999994;stroke-miterlimit:2.41420007000000014;stroke-opacity:1" /><polygon
   points="510.729,312.905 510.729,312.905 506.72,308.586 508.033,314.331 "
   id="polygon78"
   style="fill:#000000"
   transform="matrix(0.69804323,0,0,0.6414587,-241.8584,-118.51704)" /><path
   style="fill:none;stroke:#ffffff;stroke-width:1.25133871999999990;stroke-linecap:butt;stroke-linejoin:miter;stroke-miterlimit:4;stroke-opacity:1;stroke-dasharray:none;overflow:visible"
   d="m 158.79497,82.651628 c -1.32748,2.048745 -2.55157,3.508619 -2.55157,3.508619"
   id="path4188-7-0-7"
   sodipodi:nodetypes="cc" /><path
   style="fill:none;stroke:#ffffff;stroke-width:1.39037638999999991;stroke-linecap:butt;stroke-linejoin:miter;stroke-miterlimit:4;stroke-opacity:1;stroke-dasharray:none;overflow:visible"
   d="m 159.82168,82.020759 c 6.18108,-0.598428 14.7169,-7.871752 14.7169,-7.871752"
   id="path4188-7-0-7-9"
   sodipodi:nodetypes="cc"
   inkscape:transform-center-x="7.971577" /><path
   d="m 149.64473,91.676147 c 5.19344,-2.84166 8.80721,-8.1555 9.41381,-9.62124 5.86077,0 16.179,-7.62802 19.92959,-12.15159"
   id="path84"
   style="fill:none;stroke:#000000;stroke-width:1.00379657999999994;stroke-miterlimit:2.41420007000000014;stroke-opacity:1" /><polygon
   points="560.981,325.854 560.981,325.854 556.871,330.075 562.542,328.474 "
   transform="matrix(0.69804323,0,0,0.6414587,-241.8584,-118.51704)"
   id="polygon86"
   style="fill:#000000" /><path
   style="fill:none;stroke:#ffffff;stroke-width:1.39037638999999991;stroke-linecap:butt;stroke-linejoin:miter;stroke-miterlimit:4;stroke-opacity:1;stroke-dasharray:none;overflow:visible"
   d="m 191.3651,60.620712 c -0.2019,4.300079 -4.53076,3.681799 -4.53076,3.681799"
   id="path4188-7-0-7-1"
   sodipodi:nodetypes="cc" /><path
   d="m 193.57259,53.061617 -2.47317,8.77965 c -1.19784,4.2503 -5.68292,0.80146 -9.20385,4.75541"
   id="path92"
   style="fill:none;stroke:#000000;stroke-width:1.00379657999999994;stroke-miterlimit:2.41420007000000014;stroke-opacity:1" /><polygon
   points="602.046,293.944 606.832,290.506 604.471,288.574 604.471,288.574 "
   transform="matrix(0.69804323,0,0,0.6414587,-240.47127,-119.50784)"
   id="polygon94"
   style="fill:#000000" />

<circle
   cx="621.10699"
   cy="412.50299"
   r="1.556"
   transform="matrix(0.69804323,0,0,0.6414587,-239.08415,-105.90081)"
   id="Jerusalem"
   style="fill-rule:evenodd"
   sodipodi:cx="621.10699"
   sodipodi:cy="412.50299"
   sodipodi:rx="1.556"
   sodipodi:ry="1.556" /><g
   id="g4410"><circle
     sodipodi:ry="1.556"
     sodipodi:rx="1.556"
     sodipodi:cy="218.34399"
     sodipodi:cx="501.15302"
     style="fill:#ffffff;fill-rule:evenodd;overflow:visible"
     id="Antioch_x2C__Pisidia-2-9"
     transform="matrix(0.86668508,0,0,0.79643012,-299.98963,-78.962488)"
     r="1.556"
     cy="218.34399"
     cx="501.15302" /><circle
     sodipodi:ry="1.556"
     sodipodi:rx="1.556"
     sodipodi:cy="332.73499"
     sodipodi:cx="538.95001"
     style="fill-rule:evenodd"
     id="Paphos"
     transform="matrix(0.69804323,0,0,0.6414587,-241.8584,-118.51704)"
     r="1.556"
     cy="332.73499"
     cx="538.95001" /></g><g
   id="g4406"
   transform="translate(0.46387385,0.63705342)"><circle
     sodipodi:ry="1.556"
     sodipodi:rx="1.556"
     sodipodi:cy="218.34399"
     sodipodi:cx="501.15302"
     style="fill:#ffffff;fill-rule:evenodd;overflow:visible"
     id="Antioch_x2C__Pisidia-2-8"
     transform="matrix(0.86668508,0,0,0.79643012,-275.21844,-92.08282)"
     r="1.556"
     cy="218.34399"
     cx="501.15302"
     d="m 502.70902,218.34399 c 0,0.85936 -0.69665,1.556 -1.556,1.556 -0.85936,0 -1.556,-0.69664 -1.556,-1.556 0,-0.85935 0.69664,-1.556 1.556,-1.556 0.85935,0 1.556,0.69665 1.556,1.556 z" /><circle
     sodipodi:ry="1.556"
     sodipodi:rx="1.556"
     sodipodi:cy="312.259"
     sodipodi:cx="574.474"
     style="fill-rule:evenodd"
     id="Salamis"
     transform="matrix(0.69804323,0,0,0.6414587,-241.8584,-118.51704)"
     r="1.556"
     cy="312.259"
     cx="574.474"
     d="m 576.03,312.259 c 0,0.85936 -0.69665,1.556 -1.556,1.556 -0.85936,0 -1.556,-0.69664 -1.556,-1.556 0,-0.85935 0.69664,-1.556 1.556,-1.556 0.85935,0 1.556,0.69665 1.556,1.556 z" /></g><g
   id="g4438"><circle
     sodipodi:ry="1.556"
     sodipodi:rx="1.556"
     sodipodi:cy="218.34399"
     sodipodi:cx="501.15302"
     style="fill:#ffffff;fill-rule:evenodd;overflow:visible"
     id="Antioch_x2C__Pisidia-2-29"
     transform="matrix(0.86668508,0,0,0.79643012,-242.9599,-114.15997)"
     r="1.556"
     cy="218.34399"
     cx="501.15302" /><circle
     sodipodi:ry="1.556"
     sodipodi:rx="1.556"
     sodipodi:cy="277.90701"
     sodipodi:cx="618.64001"
     style="fill-rule:evenodd"
     id="Selucia"
     transform="matrix(0.69804323,0,0,0.6414587,-240.46802,-118.51704)"
     r="1.556"
     cy="277.90701"
     cx="618.64001" /></g><g
   id="g4434"><circle
     sodipodi:ry="1.556"
     sodipodi:rx="1.556"
     sodipodi:cy="218.34399"
     sodipodi:cx="501.15302"
     style="fill:#ffffff;fill-rule:evenodd;overflow:visible"
     id="Antioch_x2C__Pisidia-2-86"
     transform="matrix(0.86668508,0,0,0.79643012,-240.79068,-121.01752)"
     r="1.556"
     cy="218.34399"
     cx="501.15302" /><circle
     sodipodi:ry="1.556"
     sodipodi:rx="1.556"
     sodipodi:cy="267.202"
     sodipodi:cx="623.84998"
     style="fill-rule:evenodd"
     id="Antioch_x2C__Syria_1_"
     transform="matrix(0.69804323,0,0,0.6414587,-241.8584,-118.51704)"
     r="1.556"
     cy="267.202"
     cx="623.84998" /></g><circle
   cx="501.15302"
   cy="218.34399"
   r="1.556"
   transform="matrix(0.86668508,0,0,0.79643012,-300.9343,-129.76442)"
   id="Antioch_x2C__Pisidia-2-5"
   style="fill:#ffffff;fill-rule:evenodd;overflow:visible"
   sodipodi:cx="501.15302"
   sodipodi:cy="218.34399"
   sodipodi:rx="1.556"
   sodipodi:ry="1.556" /><circle
   cx="537.67401"
   cy="253.524"
   r="1.556"
   transform="matrix(0.69804323,0,0,0.6414587,-241.8584,-118.51704)"
   id="Derbe"
   style="fill-rule:evenodd"
   sodipodi:cx="537.67401"
   sodipodi:cy="253.524"
   sodipodi:rx="1.556"
   sodipodi:ry="1.556" /><g
   id="g4430"><circle
     sodipodi:ry="1.556"
     sodipodi:rx="1.556"
     sodipodi:cy="218.34399"
     sodipodi:cx="501.15302"
     style="fill:#ffffff;fill-rule:evenodd;overflow:visible"
     id="Antioch_x2C__Pisidia-2-4"
     transform="matrix(0.86668508,0,0,0.79643012,-308.70153,-134.3128)"
     r="1.556"
     cy="218.34399"
     cx="501.15302" /><circle
     sodipodi:ry="1.556"
     sodipodi:rx="1.556"
     sodipodi:cy="246.505"
     sodipodi:cx="526.51801"
     style="fill-rule:evenodd"
     id="Lystra"
     transform="matrix(0.69804323,0,0,0.6414587,-241.8584,-118.51704)"
     r="1.556"
     cy="246.505"
     cx="526.51801" /></g><g
   id="g4426"><circle
     sodipodi:ry="1.556"
     sodipodi:rx="1.556"
     sodipodi:cy="218.34399"
     sodipodi:cx="501.15302"
     style="fill:#ffffff;fill-rule:evenodd;overflow:visible"
     id="Antioch_x2C__Pisidia-2-6"
     transform="matrix(0.86668508,0,0,0.79643012,-305.72758,-139.84084)"
     r="1.556"
     cy="218.34399"
     cx="501.15302" /><circle
     sodipodi:ry="1.556"
     sodipodi:rx="1.556"
     sodipodi:cy="237.853"
     sodipodi:cx="530.77002"
     style="fill-rule:evenodd"
     id="Iconium"
     transform="matrix(0.69804323,0,0,0.6414587,-241.8584,-118.51704)"
     r="1.556"
     cy="237.853"
     cx="530.77002" /></g><g
   id="g4422"><circle
     sodipodi:ry="1.556"
     sodipodi:rx="1.556"
     sodipodi:cy="218.34399"
     sodipodi:cx="501.15302"
     style="fill:#ffffff;fill-rule:evenodd;overflow:visible"
     id="Antioch_x2C__Pisidia-2"
     transform="matrix(0.86668508,0,0,0.79643013,-326.3786,-152.37017)"
     r="1.556"
     cy="218.34399"
     cx="501.15302" /><circle
     sodipodi:ry="1.556"
     sodipodi:rx="1.556"
     sodipodi:cy="218.34399"
     sodipodi:cx="501.15302"
     style="fill-rule:evenodd"
     id="Antioch_x2C__Pisidia"
     transform="matrix(0.69804323,0,0,0.6414587,-241.8584,-118.51704)"
     r="1.556"
     cy="218.34399"
     cx="501.15302" /></g><g
   id="g4418"><circle
     sodipodi:ry="1.556"
     sodipodi:rx="1.556"
     sodipodi:cy="218.34399"
     sodipodi:cx="501.15302"
     style="fill:#ffffff;fill-rule:evenodd;overflow:visible"
     id="Antioch_x2C__Pisidia-2-1"
     transform="matrix(0.86668508,0,0,0.79643012,-332.91291,-120.2828)"
     r="1.556"
     cy="218.34399"
     cx="501.15302" /><circle
     sodipodi:ry="1.556"
     sodipodi:rx="1.556"
     sodipodi:cy="268.34201"
     sodipodi:cx="491.80099"
     style="fill-rule:evenodd"
     id="Perga"
     transform="matrix(0.69804323,0,0,0.6414587,-241.8584,-118.51704)"
     r="1.556"
     cy="268.34201"
     cx="491.80099" /></g><g
   id="g4414"><circle
     sodipodi:ry="1.556"
     sodipodi:rx="1.556"
     sodipodi:cy="218.34399"
     sodipodi:cx="501.15302"
     style="fill:#ffffff;fill-rule:evenodd;overflow:visible"
     id="Antioch_x2C__Pisidia-2-2"
     transform="matrix(0.86668508,0,0,0.79643012,-336.86651,-118.07858)"
     r="1.556"
     cy="218.34399"
     cx="501.15302" /><circle
     sodipodi:ry="1.556"
     sodipodi:rx="1.556"
     sodipodi:cy="271.78601"
     sodipodi:cx="486.10101"
     style="fill-rule:evenodd"
     id="Attalia"
     transform="matrix(0.69804323,0,0,0.6414587,-241.8584,-118.51704)"
     r="1.556"
     cy="271.78601"
     cx="486.10101" /></g>

<text
   x="93.222763"
   y="197.29819"
   id="Region_Egypt"
   style="font-size:6px;fill:#ff0000;font-family:Arial">EGYPT</text>



<text
   x="173.36156"
   y="186.8811"
   id="Region_Arabia"
   style="font-size:6px;fill:#ff0000;font-family:Arial">ARABIA</text>



<text
   x="209.12794"
   y="83.037308"
   id="Region_Syria"
   style="font-size:6px;fill:#ff0000;font-family:Arial">SYRIA</text>



<text
   x="123.13155"
   y="-18.371164"
   transform="matrix(0.86982776,0.50703453,-0.52153554,0.84564267,0,0)"
   id="Region_Pamphylia"
   style="font-size:6.09881687px;fill:#ff0000;font-family:Arial">PAMPHYLIA</text>



<text
   x="71.143448"
   y="65.364975"
   id="Region_Lycia"
   style="font-size:6px;fill:#ff0000;font-family:Arial">LYCIA</text>



<text
   x="155.52136"
   y="13.674906"
   id="Region_Cappadocia"
   style="font-size:6px;fill:#ff0000;font-family:Arial">CAPPADOCIA</text>



<text
   x="52.620777"
   y="11.238784"
   id="Region_Asia"
   style="font-size:6px;fill:#ff0000;font-family:Arial">ASIA</text>




<text
   x="66.579765"
   y="118.31829"
   id="Sea_Mediterranean"
   style="font-size:6px;fill:#ff0000;font-family:Arial">MEDITERRANEAN SEA</text>



<text
   x="101.38118"
   y="39.668209"
   id="Region_Pisidia"
   style="font-size:6px;fill:#ff0000;font-family:Arial">PISIDIA</text>



<text
   x="150.5659"
   y="104.33669"
   id="Island_Cyprus"
   style="font-size:6px;fill:#ff0000;font-family:Arial">Cyprus</text>



<text
   x="0.75167352"
   y="104.58688"
   id="Island_Crete"
   style="font-size:6px;fill:#ff0000;font-family:Arial">Crete</text>



<text
   x="200.24754"
   y="156.65797"
   id="City_Jerusalem"
   style="font-size:6px;fill:#ff0000;font-family:Arial">Jerusalem</text>



<text
   x="121.54552"
   y="90.145447"
   id="City_Paphos"
   style="font-size:6px;fill:#ff0000;font-family:Arial">Paphos</text>



<text
   x="163.68456"
   y="88.357109"
   id="City_Salamis"
   style="font-size:6px;fill:#ff0000;font-family:Arial">Salamis</text>



<text
   x="193.72157"
   y="62.627071"
   id="City_Seleucia"
   style="font-size:6px;fill:#ff0000;font-family:Arial">Seleucia</text>



<text
   x="196.16914"
   y="52.687069"
   id="City_Antioch-A"
   style="font-size:6px;fill:#ff0000;font-family:Arial">Antioch</text>



<text
   x="135.34883"
   y="47.969128"
   id="City_Derbe"
   style="font-size:6px;fill:#ff0000;font-family:Arial">Derbe</text>



<text
   x="129.75313"
   y="40.785305"
   id="City_Lystra"
   style="font-size:6px;fill:#ff0000;font-family:Arial">Lystra</text>



<text
   x="130.63112"
   y="32.399715"
   id="City_Iconium"
   style="font-size:6px;fill:#ff0000;font-family:Arial">Iconium</text>



<text
   x="111.69518"
   y="22.126547"
   id="City_Antioch-B"
   style="font-size:6px;fill:#ff0000;font-family:Arial">Antioch</text>



<text
   x="103.62901"
   y="55.167583"
   id="City_Perga"
   style="font-size:6px;fill:#ff0000;font-family:Arial">Perga</text>



<text
   x="78.991013"
   y="56.955654"
   id="City_Attalia"
   style="font-size:6px;fill:#ff0000;font-family:Arial">Attalia</text>




<rect
   width="250.09706"
   height="203.20245"
   x="0.22105286"
   y="-0.58815128"
   id="Map_Border"
   style="fill:none;stroke:#000000;stroke-width:0.44210571;stroke-miterlimit:2.41420007;stroke-dasharray:none" />

<g
   transform="matrix(0.57540966,0,0,0.64145869,-177.98695,-170.12238)"
   id="g2848"
   style="overflow:visible"><rect
     width="29.139"
     height="3.1889999"
     x="460.48499"
     y="505.80399"
     id="rect2850"
     style="fill:#ffffff;fill-rule:evenodd;stroke:#000000;stroke-width:0.2586;stroke-miterlimit:2.41420007" /><g
     id="g2852"><rect
       width="29.139999"
       height="3.1889999"
       x="431.353"
       y="505.80399"
       id="rect2854"
       style="fill:#ffffff;fill-rule:evenodd;stroke:#000000;stroke-width:0.2579;stroke-miterlimit:2.41420007" /><line
       style="fill:#ffffff;fill-rule:evenodd;stroke:#000000;stroke-width:1.18560004;stroke-miterlimit:2.41420007"
       y2="507.39801"
       x2="460.49301"
       y1="507.39801"
       x1="431.353"
       stroke-miterlimit="2.4142"
       id="line2856" /></g><rect
     width="29.139999"
     height="3.1889999"
     x="402.21301"
     y="505.80399"
     id="rect2858"
     style="fill:#ffffff;fill-rule:evenodd;stroke:#000000;stroke-width:0.2586;stroke-miterlimit:2.41420007" /><g
     id="g2860"><rect
       width="29.141001"
       height="3.1889999"
       x="373.073"
       y="505.80399"
       id="rect2862"
       style="fill:#ffffff;fill-rule:evenodd;stroke:#000000;stroke-width:0.2579;stroke-miterlimit:2.41420007" /><line
       style="fill:#ffffff;fill-rule:evenodd;stroke:#000000;stroke-width:1.18560004;stroke-miterlimit:2.41420007"
       y2="507.39801"
       x2="402.32101"
       y1="507.39801"
       x1="373.181"
       stroke-miterlimit="2.4142"
       id="line2864" /></g></g><g
   style="overflow:visible"
   transform="matrix(0.6980432,0,0,0.64145869,-233.04023,-186.78356)"
   id="Scale_Bar"><rect
     width="29.139"
     height="3.1889999"
     x="460.48499"
     y="505.80399"
     id="Far_Right"
     style="fill:#ffffff;fill-rule:evenodd;stroke:#000000;stroke-width:0.2586;stroke-miterlimit:2.41420007" /><g
     id="Right_Center"><rect
       width="29.139999"
       height="3.1889999"
       x="431.353"
       y="505.80399"
       id="Outside_2_"
       style="fill:#ffffff;fill-rule:evenodd;stroke:#000000;stroke-width:0.2579;stroke-miterlimit:2.41420007" /><line
       style="fill:#ffffff;fill-rule:evenodd;stroke:#000000;stroke-width:1.18560004;stroke-miterlimit:2.41420007"
       y2="507.39801"
       x2="460.49301"
       y1="507.39801"
       x1="431.353"
       stroke-miterlimit="2.4142"
       id="Inside_1_" /></g><rect
     width="29.139999"
     height="3.1889999"
     x="402.21301"
     y="505.80399"
     id="Left_Center"
     style="fill:#ffffff;fill-rule:evenodd;stroke:#000000;stroke-width:0.2586;stroke-miterlimit:2.41420007" /><g
     id="Far_Left"><rect
       width="29.141001"
       height="3.1889999"
       x="373.073"
       y="505.80399"
       id="Outside"
       style="fill:#ffffff;fill-rule:evenodd;stroke:#000000;stroke-width:0.2579;stroke-miterlimit:2.41420007" /><line
       style="fill:#ffffff;fill-rule:evenodd;stroke:#000000;stroke-width:1.18560004;stroke-miterlimit:2.41420007"
       y2="507.39801"
       x2="402.32101"
       y1="507.39801"
       x1="373.181"
       stroke-miterlimit="2.4142"
       id="Inside" /></g></g><text
   x="26.112417"
   y="146.13577"
   id="Scale_K_Number_A"
   style="font-size:4.57411242px;fill:#ff0000;overflow:visible;font-family:Arial-Bold">0</text>


<text
   x="43.377083"
   y="146.13577"
   id="Scale_K_Number_B"
   style="font-size:4.57411242px;fill:#ff0000;overflow:visible;font-family:Arial-Bold">100</text>


<text
   x="62.829563"
   y="146.13577"
   id="Scale_K_Number_C"
   style="font-size:4.57411242px;fill:#ff0000;overflow:visible;font-family:Arial-Bold">200</text>


<text
   x="82.380096"
   y="146.13577"
   id="Scale_K_Number_D"
   style="font-size:4.57411242px;fill:#ff0000;overflow:visible;font-family:Arial-Bold">300</text>


<text
   x="101.73645"
   y="146.13577"
   id="Scale_K_Number_E"
   style="font-size:4.57411242px;fill:#ff0000;overflow:visible;font-family:Arial-Bold">400</text>


<text
   x="56.379826"
   y="150.88858"
   id="Scale_K_DistanceKey"
   style="font-size:4.57411242px;fill:#ff0000;overflow:visible;font-family:Arial-Bold">Kilometers</text>


<text
   x="33.606636"
   y="161.8035"
   id="Scale_M_Number_A"
   style="font-size:4.57411242px;fill:#ff0000;overflow:visible;font-family:Arial-Bold">0</text>


<text
   x="48.896366"
   y="161.8035"
   id="Scale_M_Number_B"
   style="font-size:4.57411242px;fill:#ff0000;overflow:visible;font-family:Arial-Bold">50</text>


<text
   x="62.424015"
   y="161.8035"
   id="Scale_M_Number_C"
   style="font-size:4.57411242px;fill:#ff0000;overflow:visible;font-family:Arial-Bold">100</text>


<text
   x="79.999603"
   y="161.8035"
   id="Scale_M_Number_D"
   style="font-size:4.57411242px;fill:#ff0000;overflow:visible;font-family:Arial-Bold">150</text>


<text
   x="96.393623"
   y="161.8035"
   id="Scale_M_Number_E"
   style="font-size:4.57411242px;fill:#ff0000;overflow:visible;font-family:Arial-Bold">200</text>


<text
   x="64.67984"
   y="167.94672"
   id="Scale_M_DistanceKey"
   style="font-size:4.57411242px;fill:#ff0000;overflow:visible;font-family:Arial-Bold">Miles</text>


</svg>
