<?xml version="1.0" encoding="UTF-8" standalone="no"?>
<!-- Created with Inkscape (http://www.inkscape.org/) -->

<svg
   xmlns:svg="http://www.w3.org/2000/svg"
   xmlns="http://www.w3.org/2000/svg"
   xmlns:xlink="http://www.w3.org/1999/xlink"
   version="1.0"
   width="360.39041"
   height="292.93442"
   viewBox="0 0 250.53916 202.02519"
   id="svg2"
   xml:space="preserve"
   style="overflow:visible"><defs
   id="defs422"><marker
   refX="0"
   refY="0"
   orient="auto"
   id="TriangleInL"
   style="overflow:visible"><path
     d="m 5.77,0 -8.65,5 0,-10 8.65,5 z"
     transform="scale(-0.8,-0.8)"
     id="path3857"
     style="fill-rule:evenodd;stroke:#000000;stroke-width:1pt;marker-start:none" /></marker>

	

	


	

	</defs>

<image
   xlink:href="m08a-bkgrnd.png"
   id="background"
   height="203.5253"
   width="250.19511"
   y="-0.82991183"
   x="0.064135969" /><path
   d="m 97.410335,56.998466 c 2.877265,5.219943 7.085065,7.48327 7.085065,7.48327"
   id="path4188"
   style="fill:none;stroke:#ffffff;stroke-width:1.946527;stroke-linecap:butt;stroke-linejoin:miter;stroke-miterlimit:4;stroke-opacity:1;stroke-dasharray:none" /><path
   d="m 188.86636,55.311907 c -4.18503,1.949785 -9.18187,2.556132 -9.18187,2.556132"
   id="path4188-7-0-7-1-6"
   style="fill:none;stroke:#ffffff;stroke-width:1.80748928;stroke-linecap:butt;stroke-linejoin:miter;stroke-miterlimit:4;stroke-opacity:1;stroke-dasharray:none;overflow:visible" /><path
   d="m 190.81768,60.935972 c -2.17688,2.355561 -3.54564,4.298416 -3.54564,4.298416"
   id="path4188-7-0-7-1"
   style="fill:none;stroke:#ffffff;stroke-width:1.946527;stroke-linecap:butt;stroke-linejoin:miter;stroke-miterlimit:4;stroke-opacity:1;stroke-dasharray:none;overflow:visible" /><path
   d="m 167.89532,85.564638 c -2.43449,0.971383 -4.92513,1.97655 -4.92513,1.97655"
   id="path4188-7-0-7"
   style="fill:none;stroke:#ffffff;stroke-width:1.946527;stroke-linecap:butt;stroke-linejoin:miter;stroke-miterlimit:4;stroke-opacity:1;stroke-dasharray:none;overflow:visible" /><path
   d="m 138.78522,102.88764 c -3.09639,1.50447 -6.66373,1.81517 -6.66373,1.81517"
   id="path4188-7-0"
   style="fill:none;stroke:#ffffff;stroke-width:1.80748928;stroke-linecap:butt;stroke-linejoin:miter;stroke-miterlimit:4;stroke-opacity:1;stroke-dasharray:none;overflow:visible" /><path
   d="m 186.46816,55.82393 c 0.80464,-0.198676 3.65566,-1.569546 3.65566,-1.569546"
   id="path4947"
   style="fill:none;stroke:#ffffff;stroke-width:1.94652689;stroke-linecap:butt;stroke-linejoin:miter;stroke-miterlimit:4;stroke-opacity:1;stroke-dasharray:none" /><path
   d="m 101.97373,51.920959 c -3.003163,1.03287 -4.500164,1.004191 -4.428248,4.016041 0.196311,8.221505 29.177158,22.120937 41.439228,23.494556 11.65731,1.304699 18.63044,-5.703336 28.99415,-16.649264 5.46169,-5.76852 16.28327,-5.455218 22.52887,-8.731833"
   id="path36"
   style="fill:none;stroke:#000000;stroke-width:1.25133872;stroke-miterlimit:2.41420007;stroke-opacity:1;stroke-dasharray:7.50803232, 2.50267744;stroke-dashoffset:0.50053549" /><path
   d="m 104.55409,57.856288 c 2.03828,5.825329 4.87845,12.522048 4.87845,12.522048"
   id="path4188-7"
   style="fill:none;stroke:#ffffff;stroke-width:1.9916538;stroke-linecap:butt;stroke-linejoin:miter;stroke-miterlimit:4;stroke-opacity:1;stroke-dasharray:none;overflow:visible" /><path
   d="m 133.36283,46.872715 c -1.52579,-0.536508 -5.65483,-2.009667 -6.55046,-5.681653 -1.23052,-5.044968 -0.43005,-5.772258 0.35143,-8.666896 0.96457,-3.57283 -14.08767,-10.321246 -19.00667,-10.462847 -10.220951,-0.294226 -8.618812,8.018909 -8.75199,15.075455 -0.09675,5.126251 0.153001,9.616386 2.66151,15.31231 5.22101,11.855038 9.5106,24.046139 15.57496,36.753345 4.30379,9.018127 7.99127,20.557931 22.25196,13.024651 0.76874,-0.40609 4.62782,-2.286047 9.07863,-4.612741 2.01849,-1.055181 4.22598,-1.977933 6.20416,-3.289911 2.51495,-1.667976 3.37853,-5.121011 6.22598,-6.268685 7.72514,-3.113645 13.89713,-6.484576 18.55085,-9.375456 2.85323,-1.772422 4.58399,-9.105176 6.60099,-12.213581 1.73569,-2.206468 4.0729,-1.845428 5.42231,-4.292578 4.25508,-5.833941 2.37562,-8.249937 3.41164,-8.79815"
   id="path76"
   style="fill:none;stroke:#000000;stroke-width:1.25133872;stroke-miterlimit:2.41420007;stroke-opacity:1;stroke-dasharray:7.50803232, 2.50267744;stroke-dashoffset:1.62674034" />

<path
   d="m 190.19027,56.64889 3.09767,-3.268426 -4.37937,-1.048458 1.2817,4.316884 z"
   id="path4683-7"
   style="fill:#000000;fill-opacity:1;stroke:#ffffff;stroke-width:0.50470662;stroke-miterlimit:4;stroke-opacity:1;stroke-dasharray:none;overflow:visible" />

<text
   x="93.222763"
   y="197.29819"
   id="Region_Egypt"
   style="font-size:6px;fill:#ff0000;font-family:Arial">EGYPT</text>















<text
   x="173.36156"
   y="186.8811"
   id="Region_Arabia"
   style="font-size:6px;fill:#ff0000;font-family:Arial">ARABIA</text>















<text
   x="209.12794"
   y="83.037308"
   id="Region_Syria"
   style="font-size:6px;fill:#ff0000;font-family:Arial">SYRIA</text>















<text
   x="123.13155"
   y="-18.371164"
   transform="matrix(0.86982776,0.50703453,-0.52153554,0.84564267,0,0)"
   id="Region_Pamphylia"
   style="font-size:6.09881687px;fill:#ff0000;font-family:Arial">PAMPHYLIA</text>















<text
   x="75.567596"
   y="66.839691"
   id="Region_Lycia"
   style="font-size:6px;fill:#ff0000;font-family:Arial">LYCIA</text>















<text
   x="155.52136"
   y="13.674906"
   id="Region_Cappadocia"
   style="font-size:6px;fill:#ff0000;font-family:Arial">CAPPADOCIA</text>















<text
   x="52.620777"
   y="11.238784"
   id="Region_Asia"
   style="font-size:6px;fill:#ff0000;font-family:Arial">ASIA</text>
















<text
   x="67.844925"
   y="129.38843"
   id="Sea_Mediterranean"
   style="font-size:6px;fill:#ff0000;font-family:Arial">MEDITERRANEAN SEA</text>















<text
   x="102.36433"
   y="38.193493"
   id="Region_Pisidia"
   style="font-size:6px;fill:#ff0000;font-family:Arial">PISIDIA</text>















<text
   x="122.49519"
   y="89.075714"
   id="Island_Cyprus"
   style="font-size:6px;fill:#ff0000;font-family:Arial">Cyprus</text>















<text
   x="2.3573315"
   y="104.15459"
   id="Island_Crete"
   style="font-size:6px;fill:#ff0000;font-family:Arial">Crete</text>















<text
   x="200.24754"
   y="156.65797"
   id="City_Jerusalem"
   style="font-size:6px;fill:#ff0000;font-family:Arial">Jerusalem</text>















<text
   x="138.88719"
   y="109.97576"
   id="City_Paphos"
   style="font-size:6px;fill:#ff0000;font-family:Arial">Paphos</text>















<text
   x="167.01685"
   y="92.231659"
   id="City_Salamis"
   style="font-size:6px;fill:#ff0000;font-family:Arial">Salamis</text>















<text
   x="195.99451"
   y="64.442978"
   id="City_Seleucia"
   style="font-size:6px;fill:#ff0000;font-family:Arial">Seleucia</text>















<text
   x="200.0601"
   y="52.422905"
   id="City_Antioch-A"
   style="font-size:6px;fill:#ff0000;font-family:Arial">Antioch</text>















<text
   x="137.83147"
   y="50.590008"
   id="City_Derbe"
   style="font-size:6px;fill:#ff0000;font-family:Arial">Derbe</text>















<text
   x="130.092"
   y="41.293602"
   id="City_Lystra"
   style="font-size:6px;fill:#ff0000;font-family:Arial">Lystra</text>















<text
   x="130.63112"
   y="32.399715"
   id="City_Iconium"
   style="font-size:6px;fill:#ff0000;font-family:Arial">Iconium</text>















<text
   x="98.284492"
   y="18.315556"
   id="City_Antioch-B"
   style="font-size:6px;fill:#ff0000;font-family:Arial">Antioch</text>















<text
   x="105.15199"
   y="53.793137"
   id="City_Perga"
   style="font-size:6px;fill:#ff0000;font-family:Arial">Perga</text>















<text
   x="76.142662"
   y="55.371155"
   id="City_Attalia"
   style="font-size:6px;fill:#ff0000;font-family:Arial">Attalia</text>
















<rect
   width="249.29855"
   height="202.58922"
   x="0.65118653"
   y="-0.28152969"
   id="Map_Border"
   style="fill:none;stroke:#000000;stroke-width:1.38605881;stroke-miterlimit:2.41420007;stroke-dasharray:none" />

<g
   transform="matrix(0.57540966,0,0,0.64145869,-177.98695,-170.12238)"
   id="g2848"
   style="overflow:visible"><rect
     width="29.139"
     height="3.1889999"
     x="460.48499"
     y="505.80399"
     id="rect2850"
     style="fill:#ffffff;fill-rule:evenodd;stroke:#000000;stroke-width:0.2586;stroke-miterlimit:2.41420007" /><g
     id="g2852"><rect
       width="29.139999"
       height="3.1889999"
       x="431.353"
       y="505.80399"
       id="rect2854"
       style="fill:#ffffff;fill-rule:evenodd;stroke:#000000;stroke-width:0.2579;stroke-miterlimit:2.41420007" /><line
       id="line2856"
       stroke-miterlimit="2.4142"
       x1="431.353"
       y1="507.39801"
       x2="460.49301"
       y2="507.39801"
       style="fill:#ffffff;fill-rule:evenodd;stroke:#000000;stroke-width:1.18560004;stroke-miterlimit:2.41420007" /></g><rect
     width="29.139999"
     height="3.1889999"
     x="402.21301"
     y="505.80399"
     id="rect2858"
     style="fill:#ffffff;fill-rule:evenodd;stroke:#000000;stroke-width:0.2586;stroke-miterlimit:2.41420007" /><g
     id="g2860"><rect
       width="29.141001"
       height="3.1889999"
       x="373.073"
       y="505.80399"
       id="rect2862"
       style="fill:#ffffff;fill-rule:evenodd;stroke:#000000;stroke-width:0.2579;stroke-miterlimit:2.41420007" /><line
       id="line2864"
       stroke-miterlimit="2.4142"
       x1="373.181"
       y1="507.39801"
       x2="402.32101"
       y2="507.39801"
       style="fill:#ffffff;fill-rule:evenodd;stroke:#000000;stroke-width:1.18560004;stroke-miterlimit:2.41420007" /></g></g><g
   transform="matrix(0.6980432,0,0,0.64145869,-233.04023,-186.78356)"
   id="Scale_Bar"
   style="overflow:visible"><rect
     width="29.139"
     height="3.1889999"
     x="460.48499"
     y="505.80399"
     id="Far_Right"
     style="fill:#ffffff;fill-rule:evenodd;stroke:#000000;stroke-width:0.2586;stroke-miterlimit:2.41420007" /><g
     id="Right_Center"><rect
       width="29.139999"
       height="3.1889999"
       x="431.353"
       y="505.80399"
       id="Outside_2_"
       style="fill:#ffffff;fill-rule:evenodd;stroke:#000000;stroke-width:0.2579;stroke-miterlimit:2.41420007" /><line
       id="Inside_1_"
       stroke-miterlimit="2.4142"
       x1="431.353"
       y1="507.39801"
       x2="460.49301"
       y2="507.39801"
       style="fill:#ffffff;fill-rule:evenodd;stroke:#000000;stroke-width:1.18560004;stroke-miterlimit:2.41420007" /></g><rect
     width="29.139999"
     height="3.1889999"
     x="402.21301"
     y="505.80399"
     id="Left_Center"
     style="fill:#ffffff;fill-rule:evenodd;stroke:#000000;stroke-width:0.2586;stroke-miterlimit:2.41420007" /><g
     id="Far_Left"><rect
       width="29.141001"
       height="3.1889999"
       x="373.073"
       y="505.80399"
       id="Outside"
       style="fill:#ffffff;fill-rule:evenodd;stroke:#000000;stroke-width:0.2579;stroke-miterlimit:2.41420007" /><line
       id="Inside"
       stroke-miterlimit="2.4142"
       x1="373.181"
       y1="507.39801"
       x2="402.32101"
       y2="507.39801"
       style="fill:#ffffff;fill-rule:evenodd;stroke:#000000;stroke-width:1.18560004;stroke-miterlimit:2.41420007" /></g></g><text
   x="26.112417"
   y="146.13577"
   id="Scale_K_Number_A"
   style="font-size:4.57411242px;fill:#ff0000;overflow:visible;font-family:Arial-Bold">0</text>














<text
   x="43.377083"
   y="146.13577"
   id="Scale_K_Number_B"
   style="font-size:4.57411242px;fill:#ff0000;overflow:visible;font-family:Arial-Bold">100</text>














<text
   x="62.829563"
   y="146.13577"
   id="Scale_K_Number_C"
   style="font-size:4.57411242px;fill:#ff0000;overflow:visible;font-family:Arial-Bold">200</text>














<text
   x="82.380096"
   y="146.13577"
   id="Scale_K_Number_D"
   style="font-size:4.57411242px;fill:#ff0000;overflow:visible;font-family:Arial-Bold">300</text>














<text
   x="101.73645"
   y="146.13577"
   id="Scale_K_Number_E"
   style="font-size:4.57411242px;fill:#ff0000;overflow:visible;font-family:Arial-Bold">400</text>














<text
   x="56.379826"
   y="150.88858"
   id="Scale_K_DistanceKey"
   style="font-size:4.57411242px;fill:#ff0000;overflow:visible;font-family:Arial-Bold">Kilometers</text>














<text
   x="33.606636"
   y="161.8035"
   id="Scale_M_Number_A"
   style="font-size:4.57411242px;fill:#ff0000;overflow:visible;font-family:Arial-Bold">0</text>














<text
   x="48.896366"
   y="161.8035"
   id="Scale_M_Number_B"
   style="font-size:4.57411242px;fill:#ff0000;overflow:visible;font-family:Arial-Bold">50</text>














<text
   x="62.424015"
   y="161.8035"
   id="Scale_M_Number_C"
   style="font-size:4.57411242px;fill:#ff0000;overflow:visible;font-family:Arial-Bold">100</text>














<text
   x="79.999603"
   y="161.8035"
   id="Scale_M_Number_D"
   style="font-size:4.57411242px;fill:#ff0000;overflow:visible;font-family:Arial-Bold">150</text>














<text
   x="96.393623"
   y="161.8035"
   id="Scale_M_Number_E"
   style="font-size:4.57411242px;fill:#ff0000;overflow:visible;font-family:Arial-Bold">200</text>














<text
   x="64.67984"
   y="167.94672"
   id="Scale_M_DistanceKey"
   style="font-size:4.57411242px;fill:#ff0000;overflow:visible;font-family:Arial-Bold">Miles</text>














<path
   d="m 183.27215,73.67734 3.00954,-2.189287 -3.40074,-1.511692 0.3912,3.700979 z"
   id="path4683"
   style="fill:#000000;fill-opacity:1;stroke:#000000;stroke-width:0.07443196" /><path
   d="m 151.28817,96.561617 3.71975,-0.117418 -1.96156,-3.162683 -1.75819,3.280101 z"
   id="path4683-8"
   style="fill:#000000;fill-opacity:1;stroke:#000000;stroke-width:0.07443196;overflow:visible" /><path
   d="m 114.28332,86.399088 3.39332,-1.528299 -3.02021,-2.174548 -0.37313,3.702845 z"
   id="path4683-6"
   style="fill:#000000;fill-opacity:1;stroke:#000000;stroke-width:0.07443196;overflow:visible" /><path
   d="m 101.59612,57.774751 4.79122,-1.867962 -4.01333,-3.215313 -0.77789,5.083275 z"
   id="path4683-2-7"
   style="fill:#ffffff;fill-opacity:1;stroke:none;overflow:visible" /><path
   d="m 102.43601,58.122618 3.46741,-1.351846 -2.90445,-2.326926 -0.56296,3.678772 z"
   id="path4683-2"
   style="fill:#000000;fill-opacity:1;stroke:#000000;stroke-width:0.07443196;overflow:visible" /><path
   d="m 99.388167,39.90565 1.810443,-3.251582 -3.7212,0.05795 1.910757,3.193635 z"
   id="path4683-1"
   style="fill:#000000;fill-opacity:1;stroke:#000000;stroke-width:0.07443196;overflow:visible" /><path
   d="m 97.763756,28.767828 3.659664,0.675867 -1.24447,-3.507351 -2.415187,2.831438 z"
   id="path4683-3"
   style="fill:#000000;fill-opacity:1;stroke:#000000;stroke-width:0.07443196;overflow:visible" /><path
   d="m 116.00094,26.272282 1.45009,-3.42747 -3.69332,0.457922 2.24323,2.969548 z"
   id="path4683-89"
   style="fill:#000000;fill-opacity:1;stroke:#000000;stroke-width:0.07443196;overflow:visible" /><path
   d="m 120.90643,28.751527 3.71808,-0.16182 -1.99918,-3.13904 -1.7189,3.30086 z"
   id="path4683-27"
   style="fill:#000000;fill-opacity:1;stroke:#000000;stroke-width:0.07443196;overflow:visible" /><path
   d="m 146.17186,81.004322 2.65042,-2.612588 -3.58777,-0.989033 0.93735,3.601621 z"
   id="path4683-66"
   style="fill:#000000;fill-opacity:1;stroke:#000000;stroke-width:0.07443196;overflow:visible" /><circle
   cx="486.10101"
   cy="271.78601"
   r="1.556"
   transform="matrix(1.4702095,0,0,1.4856401,-574.95187,-301.74198)"
   id="Attalia-1"
   style="fill-rule:evenodd;stroke:#ffffff;stroke-width:0.52630442;stroke-miterlimit:4;stroke-opacity:1;stroke-dasharray:none" /><circle
   cx="486.10101"
   cy="271.78601"
   r="1.556"
   transform="matrix(1.4702095,0,0,1.4856401,-552.86854,-315.41851)"
   id="Attalia-1-2"
   style="fill-rule:evenodd;stroke:#ffffff;stroke-width:0.52630442;stroke-miterlimit:4;stroke-opacity:1;stroke-dasharray:none;overflow:visible" /><circle
   cx="486.10101"
   cy="271.78601"
   r="1.556"
   transform="matrix(1.4702095,0,0,1.4856401,-521.9482,-341.27298)"
   id="Attalia-1-4"
   style="fill-rule:evenodd;stroke:#ffffff;stroke-width:0.52630442;stroke-miterlimit:4;stroke-opacity:1;stroke-dasharray:none;overflow:visible" /><circle
   cx="486.10101"
   cy="271.78601"
   r="1.556"
   transform="matrix(1.4702095,0,0,1.4856401,-519.14923,-350.7653)"
   id="Attalia-1-0"
   style="fill-rule:evenodd;stroke:#ffffff;stroke-width:0.52630442;stroke-miterlimit:4;stroke-opacity:1;stroke-dasharray:none;overflow:visible" /><circle
   cx="486.10101"
   cy="271.78601"
   r="1.556"
   transform="matrix(1.4702095,0,0,1.4856401,-618.5012,-347.54398)"
   id="Attalia-1-08"
   style="fill-rule:evenodd;stroke:#ffffff;stroke-width:0.52630442;stroke-miterlimit:4;stroke-opacity:1;stroke-dasharray:none;overflow:visible" /><circle
   cx="486.10101"
   cy="271.78601"
   r="1.556"
   transform="matrix(1.4702095,0,0,1.4856401,-612.62881,-352.51824)"
   id="Attalia-1-22"
   style="fill-rule:evenodd;stroke:#ffffff;stroke-width:0.52630442;stroke-miterlimit:4;stroke-opacity:1;stroke-dasharray:none;overflow:visible" /><circle
   cx="486.10101"
   cy="271.78601"
   r="1.556"
   transform="matrix(1.4702095,0,0,1.4856401,-581.1942,-356.80165)"
   id="Attalia-1-8"
   style="fill-rule:evenodd;stroke:#ffffff;stroke-width:0.52630442;stroke-miterlimit:4;stroke-opacity:1;stroke-dasharray:none;overflow:visible" /><circle
   cx="486.10101"
   cy="271.78601"
   r="1.556"
   transform="matrix(1.4702095,0,0,1.4856401,-587.75748,-362.67404)"
   id="Attalia-1-6"
   style="fill-rule:evenodd;stroke:#ffffff;stroke-width:0.52630442;stroke-miterlimit:4;stroke-opacity:1;stroke-dasharray:none;overflow:visible" /><circle
   cx="486.10101"
   cy="271.78601"
   r="1.556"
   transform="matrix(1.4702095,0,0,1.4856401,-587.61931,-371.51718)"
   id="Attalia-1-89"
   style="fill-rule:evenodd;stroke:#ffffff;stroke-width:0.52630442;stroke-miterlimit:4;stroke-opacity:1;stroke-dasharray:none;overflow:visible" /><circle
   cx="486.10101"
   cy="271.78601"
   r="1.556"
   transform="matrix(1.4702095,0,0,1.4856401,-611.32652,-381.09903)"
   id="Attalia-1-21"
   style="fill-rule:evenodd;stroke:#ffffff;stroke-width:0.52630442;stroke-miterlimit:4;stroke-opacity:1;stroke-dasharray:none;overflow:visible" /><circle
   cx="486.10101"
   cy="271.78601"
   r="1.556"
   transform="matrix(1.4702095,0,0,1.4856401,-522.60603,-245.37097)"
   id="Attalia-1-4-6"
   style="fill-rule:evenodd;stroke:#ffffff;stroke-width:0.52630442;stroke-miterlimit:4;stroke-opacity:1;stroke-dasharray:none;overflow:visible" /><rect
   width="67.097198"
   height="16.035282"
   x="7.6267886"
   y="180.36679"
   id="rect3736"
   style="fill:#ffffff;fill-opacity:1;stroke:#000000;stroke-width:0.7066949;stroke-linejoin:round;stroke-miterlimit:4;stroke-opacity:1;stroke-dasharray:none;stroke-dashoffset:3.7799999" /><text
   x="41.273582"
   y="188.08981"
   id="text3746"
   xml:space="preserve"
   style="font-size:6.95188189px;font-style:normal;font-variant:normal;font-weight:normal;font-stretch:normal;text-align:center;line-height:100%;writing-mode:lr-tb;text-anchor:middle;fill:#000000;fill-opacity:1;stroke:none;font-family:Arial;-inkscape-font-specification:Arial"><tspan
     x="41.273582"
     y="188.08981"
     id="Title_Main">Paul’s First Journey</tspan><tspan
     x="41.273582"
     y="193.94711"
     id="Ref_Title"
     style="font-size:5.56150579px">Acts 13:4–14:28</tspan></text>
</svg>
