<?xml version="1.0" encoding="UTF-8" standalone="no"?>
<!-- Created with Inkscape (http://www.inkscape.org/) -->

<svg
   xmlns:dc="http://purl.org/dc/elements/1.1/"
   xmlns:cc="http://creativecommons.org/ns#"
   xmlns:rdf="http://www.w3.org/1999/02/22-rdf-syntax-ns#"
   xmlns:svg="http://www.w3.org/2000/svg"
   xmlns="http://www.w3.org/2000/svg"
   xmlns:xlink="http://www.w3.org/1999/xlink"
   xmlns:sodipodi="http://sodipodi.sourceforge.net/DTD/sodipodi-0.dtd"
   xmlns:inkscape="http://www.inkscape.org/namespaces/inkscape"
   version="1.0"
   width="500"
   height="370"
   viewBox="0 0 347.5941 255.17426"
   id="svg2"
   xml:space="preserve"
   style="overflow:visible"
   inkscape:version="0.47 r22583"
   sodipodi:docname="m08b-map.svg"><metadata
   id="metadata131"><rdf:RDF><cc:Work
       rdf:about=""><dc:format>image/svg+xml</dc:format><dc:type
         rdf:resource="http://purl.org/dc/dcmitype/StillImage" /><dc:title></dc:title></cc:Work></rdf:RDF></metadata><sodipodi:namedview
   pagecolor="#ffffff"
   bordercolor="#666666"
   borderopacity="1"
   objecttolerance="10"
   gridtolerance="10"
   guidetolerance="10"
   inkscape:pageopacity="0"
   inkscape:pageshadow="2"
   inkscape:window-width="1680"
   inkscape:window-height="1023"
   id="namedview129"
   showgrid="false"
   inkscape:zoom="2.1081081"
   inkscape:cx="250"
   inkscape:cy="185"
   inkscape:window-x="1280"
   inkscape:window-y="0"
   inkscape:window-maximized="1"
   inkscape:current-layer="svg2" /><defs
   id="defs422"><inkscape:perspective
   sodipodi:type="inkscape:persp3d"
   inkscape:vp_x="0 : 185 : 1"
   inkscape:vp_y="0 : 1000 : 0"
   inkscape:vp_z="500 : 185 : 1"
   inkscape:persp3d-origin="250 : 123.33333 : 1"
   id="perspective133" /><marker
   refX="0"
   refY="0"
   orient="auto"
   id="Arrow2Sstart"
   style="overflow:visible"><path
     d="M 8.7185878,4.0337352 -2.2072895,0.01601326 8.7185884,-4.0017078 c -1.7454984,2.3720609 -1.7354408,5.6174519 -6e-7,8.035443 z"
     transform="matrix(0.3,0,0,0.3,-0.69,0)"
     id="path3845"
     style="font-size:12px;fill-rule:evenodd;stroke-width:0.625;stroke-linejoin:round" /></marker><marker
   refX="0"
   refY="0"
   orient="auto"
   id="Arrow2Mstart"
   style="overflow:visible"><path
     d="M 8.7185878,4.0337352 -2.2072895,0.01601326 8.7185884,-4.0017078 c -1.7454984,2.3720609 -1.7354408,5.6174519 -6e-7,8.035443 z"
     transform="scale(0.6,0.6)"
     id="path3839"
     style="font-size:12px;fill-rule:evenodd;stroke-width:0.625;stroke-linejoin:round" /></marker><marker
   refX="0"
   refY="0"
   orient="auto"
   id="Arrow1Lstart"
   style="overflow:visible"><path
     d="M 0,0 5,-5 -12.5,0 5,5 0,0 z"
     transform="matrix(0.8,0,0,0.8,10,0)"
     id="path3815"
     style="fill-rule:evenodd;stroke:#000000;stroke-width:1pt;marker-start:none" /></marker><marker
   refX="0"
   refY="0"
   orient="auto"
   id="Arrow2Sstart-2"
   style="overflow:visible"><path
     d="M 8.7185878,4.0337352 -2.2072895,0.01601326 8.7185884,-4.0017078 c -1.7454984,2.3720609 -1.7354408,5.6174519 -6e-7,8.035443 z"
     transform="matrix(0.3,0,0,0.3,-0.69,0)"
     id="path3845-4"
     style="font-size:12px;fill-rule:evenodd;stroke-width:0.625;stroke-linejoin:round" /></marker><marker
   refX="0"
   refY="0"
   orient="auto"
   id="Arrow2Sstart-3"
   style="overflow:visible"><path
     d="M 8.7185878,4.0337352 -2.2072895,0.01601326 8.7185884,-4.0017078 c -1.7454984,2.3720609 -1.7354408,5.6174519 -6e-7,8.035443 z"
     transform="matrix(0.3,0,0,0.3,-0.69,0)"
     id="path3845-3"
     style="font-size:12px;fill-rule:evenodd;stroke-width:0.625;stroke-linejoin:round" /></marker><marker
   refX="0"
   refY="0"
   orient="auto"
   id="Arrow2Sstart-1"
   style="overflow:visible"><path
     d="M 8.7185878,4.0337352 -2.2072895,0.01601326 8.7185884,-4.0017078 c -1.7454984,2.3720609 -1.7354408,5.6174519 -6e-7,8.035443 z"
     transform="matrix(0.3,0,0,0.3,-0.69,0)"
     id="path3845-8"
     style="font-size:12px;fill-rule:evenodd;stroke-width:0.625;stroke-linejoin:round" /></marker><marker
   refX="0"
   refY="0"
   orient="auto"
   id="Arrow2Sstart-4"
   style="overflow:visible"><path
     d="M 8.7185878,4.0337352 -2.2072895,0.01601326 8.7185884,-4.0017078 c -1.7454984,2.3720609 -1.7354408,5.6174519 -6e-7,8.035443 z"
     transform="matrix(0.3,0,0,0.3,-0.69,0)"
     id="path3845-35"
     style="font-size:12px;fill-rule:evenodd;stroke-width:0.625;stroke-linejoin:round" /></marker>



	</defs>
   

<image
   sodipodi:absref="/home/flip/Documents/m08b-bkgrnd-bw.png"
   xlink:href="m08b-bkgrnd-bw.png"
   style="fill:none;stroke:none"
   id="Background"
   height="257.21964"
   width="347.59412"
   y="-1.0212154"
   x="2.8613282e-05" /><path
   d="m 52.523008,37.0041 8.463609,0.321033"
   id="path5087"
   style="fill:none;stroke:#ffffff;stroke-width:2.91979027;stroke-linecap:butt;stroke-linejoin:miter;stroke-miterlimit:4;stroke-opacity:1;stroke-dasharray:none" /><circle
   cx="621.10699"
   cy="412.50299"
   r="1.556"
   transform="matrix(1.8764721,0,0,1.8764721,-1106.4632,-669.24571)"
   id="Jerusalem-10"
   style="fill-rule:evenodd;stroke:#ffffff;stroke-width:0.51866663;stroke-miterlimit:4;stroke-opacity:1;stroke-dasharray:none" />

<g
   transform="translate(-1.6473984,6.951882)"
   id="g2976"><g
     transform="matrix(0.57540967,0,0,0.6414587,-175.64325,-133.84114)"
     id="g2852">

<rect
   width="29.139999"
   height="3.1889999"
   x="431.353"
   y="505.80399"
   id="rect2854"
   style="fill:#ffffff;fill-rule:evenodd;stroke:#000000;stroke-width:0.2579;stroke-miterlimit:2.41420007" />

<line
   id="line2856"
   stroke-miterlimit="2.4142"
   x1="431.353"
   y1="507.39801"
   x2="460.49301"
   y2="507.39801"
   style="fill:#ffffff;fill-rule:evenodd;stroke:#000000;stroke-width:1.18560004;stroke-miterlimit:2.41420007" />
	</g><rect
     width="16.767437"
     height="2.0456116"
     x="55.794006"
     y="190.61122"
     id="rect2858"
     style="fill:#ffffff;fill-rule:evenodd;stroke:#000000;stroke-width:0.15710914;stroke-miterlimit:2.41420007" /><g
     transform="matrix(0.57540967,0,0,0.6414587,-175.64325,-133.84114)"
     id="g2860">

<rect
   width="29.141001"
   height="3.1889999"
   x="373.073"
   y="505.80399"
   id="rect2862"
   style="fill:#ffffff;fill-rule:evenodd;stroke:#000000;stroke-width:0.2579;stroke-miterlimit:2.41420007" />

<line
   id="line2864"
   stroke-miterlimit="2.4142"
   x1="373.181"
   y1="507.39801"
   x2="402.32101"
   y2="507.39801"
   style="fill:#ffffff;fill-rule:evenodd;stroke:#000000;stroke-width:1.18560004;stroke-miterlimit:2.41420007" />
	</g></g>

<circle
   cx="621.10699"
   cy="412.50299"
   r="1.556"
   transform="matrix(1.8764721,0,0,1.8764721,-876.96323,-562.08836)"
   id="Jerusalem"
   style="fill-rule:evenodd;stroke:#ffffff;stroke-width:0.51866663;stroke-miterlimit:4;stroke-opacity:1;stroke-dasharray:none" />


<g
   transform="translate(0.87633244,1.3903764)"
   id="g2959"><g
     transform="matrix(0.69804323,0,0,0.6414587,-229.30614,-153.28308)"
     id="Right_Center">

<rect
   width="29.139999"
   height="3.1889999"
   x="431.353"
   y="505.80399"
   id="Outside_2_"
   style="fill:#ffffff;fill-rule:evenodd;stroke:#000000;stroke-width:0.2579;stroke-miterlimit:2.41420007" />

<line
   id="Inside_1_"
   stroke-miterlimit="2.4142"
   x1="431.353"
   y1="507.39801"
   x2="460.49301"
   y2="507.39801"
   style="fill:#ffffff;fill-rule:evenodd;stroke:#000000;stroke-width:1.18560004;stroke-miterlimit:2.41420007" />
	</g><rect
     width="20.340979"
     height="2.0456116"
     x="51.455929"
     y="171.16928"
     id="Left_Center"
     style="fill:#ffffff;fill-rule:evenodd;stroke:#000000;stroke-width:0.173043;stroke-miterlimit:2.41420007" /><g
     transform="matrix(0.69804323,0,0,0.6414587,-229.30614,-153.28308)"
     id="Far_Left">

<rect
   width="29.141001"
   height="3.1889999"
   x="373.073"
   y="505.80399"
   id="Outside"
   style="fill:#ffffff;fill-rule:evenodd;stroke:#000000;stroke-width:0.2579;stroke-miterlimit:2.41420007" />

<line
   id="Inside"
   stroke-miterlimit="2.4142"
   x1="373.181"
   y1="507.39801"
   x2="402.32101"
   y2="507.39801"
   style="fill:#ffffff;fill-rule:evenodd;stroke:#000000;stroke-width:1.18560004;stroke-miterlimit:2.41420007" />
	</g></g>


























<text
   x="309.89111"
   y="134.74849"
   id="Region_Syria"
   style="font-size:6px;fill:#ff0000;font-family:Arial">SYRIA</text>















<text
   x="229.65794"
   y="-17.578764"
   transform="matrix(0.86982776,0.50703453,-0.52153554,0.84564267,0,0)"
   id="Region_Pamphylia"
   style="font-size:6.09881687px;fill:#ff0000;font-family:Arial">PAMPHYLIA</text>















<text
   x="197.42787"
   y="-42.938332"
   transform="matrix(0.86807055,0.49644086,-0.49644086,0.86807055,0,0)"
   id="Region_Phrygia"
   style="font-size:6.09881687px;fill:#ff0000;font-family:Arial">PHRYGIA</text>















<text
   x="217.13889"
   y="-116.39249"
   transform="matrix(0.80930789,0.58738465,-0.58738465,0.80930789,0,0)"
   id="Region_Galatia"
   style="font-size:6px;fill:#ff0000;font-family:Arial">GALATIA</text>















<text
   x="191.95222"
   y="-58.690327"
   transform="matrix(0.91741548,0.3979307,-0.3979307,0.91741548,0,0)"
   id="Region_Bithynia"
   style="font-size:6px;fill:#ff0000;font-family:Arial">BITHYNIA</text>















<text
   x="151.20169"
   y="46.15976"
   id="Region_Mysia"
   style="font-size:6px;fill:#ff0000;font-family:Arial">Mysia</text>















<rect
   width="17.099035"
   height="10.877621"
   x="179.79729"
   y="6.6352072"
   transform="matrix(0.94531911,0.32614686,-0.13301032,0.99111465,0,0)"
   id="rect2987"
   style="fill:#ffffff;fill-opacity:1;stroke:#ffffff;stroke-width:0.52873152;stroke-linejoin:round;stroke-miterlimit:4;stroke-opacity:1;stroke-dasharray:none;stroke-dashoffset:2.51999996" /><text
   x="180.51669"
   y="-36.23288"
   transform="matrix(0.82614701,0.56345462,-0.56345462,0.82614701,0,0)"
   id="Region_Asia"
   style="font-size:6px;fill:#ff0000;font-family:Arial">ASIA</text>















<text
   x="110.55775"
   y="42.792519"
   transform="matrix(0.67164041,0.74087729,-0.74087729,0.67164041,0,0)"
   id="Region_Achaia"
   style="font-size:6px;fill:#ff0000;font-family:Arial">Achaia</text>















<text
   x="44.369961"
   y="11.077269"
   id="Region_Macedonia"
   style="font-size:6px;fill:#ff0000;font-family:Arial">MACEDONIA</text>















<text
   x="150.06912"
   y="187.87595"
   id="Sea_Mediterranean"
   style="font-size:6px;fill:#ff0000;font-family:Arial">MEDITERRANEAN SEA</text>















<text
   x="194.92712"
   y="94.120193"
   id="Region_Pisidia"
   style="font-size:6px;fill:#ff0000;font-family:Arial">PISIDIA</text>















<text
   x="123.11037"
   y="239.67046"
   transform="matrix(0.80932735,-0.59422457,0.61121919,0.78682444,0,0)"
   id="Region_Cilicia"
   style="font-size:6.09881687px;fill:#ff0000;font-family:Arial">CILICIA</text>















<text
   x="130.08594"
   y="252.23593"
   transform="matrix(0.86138538,-0.507952,0.507952,0.86138538,0,0)"
   id="Island_Cyprus"
   style="font-size:6px;fill:#ff0000;font-family:Arial">Cyprus</text>


























<text
   x="70.926819"
   y="68.773705"
   id="Island_Samothrace"
   style="font-size:6px;fill:#ff0000;font-family:Arial">Samothrace</text>















<text
   x="251.81552"
   y="192.23384"
   id="City_Caesarea"
   style="font-size:6px;fill:#ff0000;font-family:Arial">Caesarea</text>















<text
   x="297.55304"
   y="210.31633"
   id="City_Jerusalem"
   style="font-size:6px;fill:#ff0000;font-family:Arial">Jerusalem</text>















<text
   x="297.75165"
   y="108.0572"
   id="City_Antioch-A"
   style="font-size:6px;fill:#ff0000;font-family:Arial">Antioch</text>















<text
   x="264.08618"
   y="120.94479"
   id="City_Tarsus"
   style="font-size:6px;fill:#ff0000;font-family:Arial">Tarsus</text>















<text
   x="237.82375"
   y="99.608337"
   id="City_Derbe"
   style="font-size:6px;fill:#ff0000;font-family:Arial">Derbe</text>















<text
   x="232.49576"
   y="91.009613"
   id="City_Lystra"
   style="font-size:6px;fill:#ff0000;font-family:Arial">Lystra</text>















<text
   x="204.54572"
   y="83.64032"
   id="City_Iconium"
   style="font-size:6px;fill:#ff0000;font-family:Arial">Iconium</text>















<text
   x="141.006"
   y="66.600555"
   id="City_Thyatira"
   style="font-size:6px;fill:#ff0000;font-family:Arial">Thyatira</text>















<text
   x="135.23994"
   y="91.638443"
   id="City_Ephesus"
   style="font-size:6px;fill:#ff0000;font-family:Arial">Ephesus</text>















<text
   x="118.38856"
   y="51.693302"
   id="City_Troas"
   style="font-size:6px;fill:#ff0000;font-family:Arial">Troas</text>















<rect
   width="37.157013"
   height="11.432928"
   x="141.25684"
   y="40.099865"
   transform="matrix(0.6951882,0,0,0.6951882,0,-1.022687)"
   id="rect2985"
   style="fill:#ffffff;fill-opacity:1;stroke:#ffffff;stroke-width:1;stroke-linejoin:round;stroke-miterlimit:4;stroke-opacity:1;stroke-dasharray:none;stroke-dashoffset:2.51999996" /><text
   x="99.364342"
   y="32.429073"
   id="City_Neapolis"
   style="font-size:6px;fill:#ff0000;font-family:Arial">Neapolis</text>















<text
   x="88.691643"
   y="21.608358"
   id="City_Philippi"
   style="font-size:6px;fill:#ff0000;font-family:Arial">Philippi</text>















<text
   x="48.520267"
   y="20.705465"
   id="City_Amphipolis"
   style="font-size:6px;fill:#ff0000;font-family:Arial">Amphipolis</text>















<rect
   width="25.944304"
   height="6.5249152"
   x="60.009121"
   y="51.642357"
   id="rect3841"
   style="fill:#ffffff;fill-opacity:1;stroke:none" /><text
   x="61.019264"
   y="56.572025"
   id="City_Apollonia"
   style="font-size:6px;fill:#ff0000;font-family:Arial">Apollonia</text>















<text
   x="11.711654"
   y="29.282618"
   id="City_Thessalonica"
   style="font-size:6px;fill:#ff0000;font-family:Arial">Thessalonica</text>















<text
   x="23.977659"
   y="42.092209"
   id="City_Berea"
   style="font-size:6px;fill:#ff0000;font-family:Arial">Berea</text>















<rect
   width="20.471714"
   height="6.8239045"
   x="55.031487"
   y="87.800583"
   id="rect3833"
   style="opacity:0.98000004;fill:#ffffff;fill-opacity:1;stroke:none" /><text
   x="56.189571"
   y="93.167107"
   id="City_Athens"
   style="font-size:6px;fill:#ff0000;font-family:Arial">Athens</text>















<text
   x="35.215542"
   y="104.21257"
   id="City_Corinth"
   style="font-size:6px;fill:#ff0000;font-family:Arial">Corinth</text>















<text
   x="30.746077"
   y="170.28191"
   id="Scale_K_Number_A"
   style="font-size:4.57411242px;fill:#ff0000;font-family:Arial-Bold">0</text>















<text
   x="47.977962"
   y="170.28191"
   id="Scale_K_Number_B"
   style="font-size:4.57411242px;fill:#ff0000;font-family:Arial-Bold">100</text>















<text
   x="68.22612"
   y="170.28191"
   id="Scale_K_Number_C"
   style="font-size:4.57411242px;fill:#ff0000;font-family:Arial-Bold">200</text>















<text
   x="88.397224"
   y="170.28191"
   id="Scale_K_Number_D"
   style="font-size:4.57411242px;fill:#ff0000;font-family:Arial-Bold">300</text>






















<text
   x="50.283398"
   y="179.95398"
   id="Scale_K_DistanceKey"
   style="font-size:4.57411242px;fill:#ff0000;font-family:Arial-Bold">Kilometers</text>















<text
   x="36.13488"
   y="195.3183"
   id="Scale_M_Number_A"
   style="font-size:4.57411242px;fill:#ff0000;font-family:Arial-Bold">0</text>















<text
   x="51.208553"
   y="195.3183"
   id="Scale_M_Number_B"
   style="font-size:4.57411242px;fill:#ff0000;font-family:Arial-Bold">50</text>















<text
   x="66.409485"
   y="195.3183"
   id="Scale_M_Number_C"
   style="font-size:4.57411242px;fill:#ff0000;font-family:Arial-Bold">100</text>















<text
   x="83.019943"
   y="195.3183"
   id="Scale_M_Number_D"
   style="font-size:4.57411242px;fill:#ff0000;font-family:Arial-Bold">150</text>






















<text
   x="56.615582"
   y="205.27376"
   id="Scale_M_DistanceKey"
   style="font-size:4.57411242px;fill:#ff0000;font-family:Arial-Bold">Miles</text>















<circle
   cx="621.10699"
   cy="412.50299"
   r="1.556"
   transform="matrix(1.8764721,0,0,1.8764721,-882.05543,-584.01414)"
   id="Jerusalem-5"
   style="fill-rule:evenodd;stroke:#ffffff;stroke-width:0.51866663;stroke-miterlimit:4;stroke-opacity:1;stroke-dasharray:none" /><circle
   cx="621.10699"
   cy="412.50299"
   r="1.556"
   transform="matrix(1.8764721,0,0,1.8764721,-870.63199,-667.53513)"
   id="Jerusalem-9"
   style="fill-rule:evenodd;stroke:#ffffff;stroke-width:0.51866663;stroke-miterlimit:4;stroke-opacity:1;stroke-dasharray:none" /><rect
   width="1.3431498"
   height="5.8007007"
   x="271.74164"
   y="103.88611"
   id="rect3835"
   style="opacity:0.98000004;fill:#ffffff;fill-opacity:1;stroke:#ffffff;stroke-width:1.53891242;stroke-miterlimit:4;stroke-opacity:1;stroke-dasharray:none;stroke-dashoffset:3.7799999" /><circle
   cx="621.10699"
   cy="412.50299"
   r="1.556"
   transform="matrix(1.8764721,0,0,1.8764721,-892.96823,-672.05892)"
   id="Jerusalem-4"
   style="fill-rule:evenodd;stroke:#ffffff;stroke-width:0.51866663;stroke-miterlimit:4;stroke-opacity:1;stroke-dasharray:none" /><circle
   cx="621.10699"
   cy="412.50299"
   r="1.556"
   transform="matrix(1.8764721,0,0,1.8764721,-931.28048,-674.65387)"
   id="Jerusalem-2"
   style="fill-rule:evenodd;stroke:#ffffff;stroke-width:0.51866663;stroke-miterlimit:4;stroke-opacity:1;stroke-dasharray:none" /><circle
   cx="621.10699"
   cy="412.50299"
   r="1.556"
   transform="matrix(1.8764721,0,0,1.8764721,-938.29361,-679.6558)"
   id="Jerusalem-0"
   style="fill:#000000;fill-opacity:1;fill-rule:evenodd;stroke:#ffffff;stroke-width:0.51866663;stroke-miterlimit:4;stroke-opacity:1;stroke-dasharray:none" /><circle
   cx="621.10699"
   cy="412.50299"
   r="1.556"
   transform="matrix(1.8764721,0,0,1.8764721,-936.82505,-689.49682)"
   id="Jerusalem-20"
   style="fill-rule:evenodd;stroke:#ffffff;stroke-width:0.51866663;stroke-miterlimit:4;stroke-opacity:1;stroke-dasharray:none" /><circle
   cx="621.10699"
   cy="412.50299"
   r="1.556"
   transform="matrix(1.8764721,0,0,1.8764721,-1027.7491,-705.9679)"
   id="Jerusalem-01"
   style="fill-rule:evenodd;stroke:#ffffff;stroke-width:0.51866663;stroke-miterlimit:4;stroke-opacity:1;stroke-dasharray:none" /><circle
   cx="621.10699"
   cy="412.50299"
   r="1.556"
   transform="matrix(1.8764721,0,0,1.8764721,-1051.194,-720.37903)"
   id="Jerusalem-99"
   style="fill-rule:evenodd;stroke:#ffffff;stroke-width:0.51866663;stroke-miterlimit:4;stroke-opacity:1;stroke-dasharray:none" /><circle
   cx="621.10699"
   cy="412.50299"
   r="1.556"
   transform="matrix(1.8764721,0,0,1.8764721,-1073.2947,-742.13502)"
   id="Jerusalem-995"
   style="fill-rule:evenodd;stroke:#ffffff;stroke-width:0.51866663;stroke-miterlimit:4;stroke-opacity:1;stroke-dasharray:none" /><circle
   cx="621.10699"
   cy="412.50299"
   r="1.556"
   transform="matrix(1.8764721,0,0,1.8764721,-1078.0034,-748.0828)"
   id="Jerusalem-96"
   style="fill-rule:evenodd;stroke:#ffffff;stroke-width:0.51866663;stroke-miterlimit:4;stroke-opacity:1;stroke-dasharray:none" /><circle
   cx="621.10699"
   cy="412.50299"
   r="1.556"
   transform="matrix(1.8764721,0,0,1.8764721,-1085.014,-738.05435)"
   id="Jerusalem-7"
   style="fill-rule:evenodd;stroke:#ffffff;stroke-width:0.51866663;stroke-miterlimit:4;stroke-opacity:1;stroke-dasharray:none" /><path
   d="m 52.572268,30.244579 6.163527,3.852205"
   id="path3823"
   style="fill:none;stroke:#ffffff;stroke-width:1.39037645;stroke-linecap:butt;stroke-linejoin:miter;stroke-miterlimit:4;stroke-opacity:1;stroke-dasharray:none" /><line
   mask="none"
   style="fill:#000000;fill-opacity:1;stroke:#000000;stroke-width:0.69518822;stroke-miterlimit:2.41420007;stroke-opacity:1;stroke-dasharray:none;marker-start:url(#Arrow2Sstart);overflow:visible"
   y2="27.821226"
   x2="48.920998"
   y1="34.581738"
   x1="59.446545"
   stroke-miterlimit="2.4142"
   id="Apollonia_line-0-4" /><circle
   cx="621.10699"
   cy="412.50299"
   r="1.556"
   transform="matrix(1.8764721,0,0,1.8764721,-1102.7587,-736.55649)"
   id="Jerusalem-1"
   style="fill-rule:evenodd;stroke:#ffffff;stroke-width:0.51866663;stroke-miterlimit:4;stroke-opacity:1;stroke-dasharray:none" /><circle
   cx="621.10699"
   cy="412.50299"
   r="1.556"
   transform="matrix(1.8764721,0,0,1.8764721,-1120.2552,-735.38574)"
   id="Jerusalem-90"
   style="fill-rule:evenodd;stroke:#ffffff;stroke-width:0.51866663;stroke-miterlimit:4;stroke-opacity:1;stroke-dasharray:none" /><circle
   cx="621.10699"
   cy="412.50299"
   r="1.556"
   transform="matrix(1.8764721,0,0,1.8764721,-1090.7444,-676.65677)"
   id="Jerusalem-53"
   style="fill-rule:evenodd;stroke:#ffffff;stroke-width:0.51866663;stroke-miterlimit:4;stroke-opacity:1;stroke-dasharray:none" /><circle
   cx="621.10699"
   cy="412.50299"
   r="1.556"
   transform="matrix(1.8764721,0,0,1.8764721,-1031.5323,-677.96535)"
   id="Jerusalem-86"
   style="fill-rule:evenodd;stroke:#ffffff;stroke-width:0.51866663;stroke-miterlimit:4;stroke-opacity:1;stroke-dasharray:none" /><path
   d="m 69.998023,47.731423 -0.295397,3.888781 0,0 0,0"
   id="path3825"
   style="fill:none;stroke:#ffffff;stroke-width:1.57392693;stroke-linecap:butt;stroke-linejoin:miter;stroke-miterlimit:4;stroke-opacity:1;stroke-dasharray:none" /><line
   inkscape:transform-center-y="-2.2794626"
   inkscape:transform-center-x="1.1004248"
   mask="none"
   style="fill:#000000;fill-opacity:1;stroke:#000000;stroke-width:0.69518822;stroke-miterlimit:2.41420007;stroke-opacity:1;stroke-dasharray:none;marker-start:url(#Arrow2Sstart);overflow:visible"
   y2="51.221035"
   x2="69.851883"
   y1="39.957821"
   x1="70.564682"
   stroke-miterlimit="2.4142"
   id="Apollonia_line-0-4-2" /><circle
   cx="621.10699"
   cy="412.50299"
   r="1.556"
   transform="matrix(1.8764721,0,0,1.8764721,-1094.7105,-738.46852)"
   id="Jerusalem-7-8"
   style="fill-rule:evenodd;stroke:#ffffff;stroke-width:0.51866663;stroke-miterlimit:4;stroke-opacity:1;stroke-dasharray:none" /><line
   mask="none"
   style="fill:none;stroke:#000000;stroke-width:0.69518822;stroke-miterlimit:2.41420007;stroke-dasharray:none;marker-start:url(#Arrow2Sstart);overflow:visible"
   y2="22.098598"
   x2="70.542587"
   y1="32.450108"
   x1="77.566689"
   stroke-miterlimit="2.4142"
   id="Apollonia_line-0" /><line
   inkscape:transform-center-y="-2.4175209"
   inkscape:transform-center-x="0.4905239"
   mask="none"
   style="fill:#000000;fill-opacity:1;stroke:#000000;stroke-width:0.82308072;stroke-miterlimit:2.41420007;stroke-opacity:1;stroke-dasharray:none;marker-start:url(#Arrow2Sstart);overflow:visible"
   y2="65.134583"
   x2="102.44814"
   y1="47.44735"
   x1="104.84044"
   stroke-miterlimit="2.4142"
   id="Apollonia_line-0-4-2-5" /><line
   inkscape:transform-center-y="-1.2583875"
   inkscape:transform-center-x="1.0217874"
   mask="none"
   style="fill:#000000;fill-opacity:1;stroke:#000000;stroke-width:0.63783413;stroke-miterlimit:2.41420007;stroke-opacity:1;stroke-dasharray:none;marker-start:url(#Arrow2Sstart);overflow:visible"
   y2="115.59512"
   x2="272.21228"
   y1="106.5509"
   x1="272.47641"
   stroke-miterlimit="2.4142"
   id="Apollonia_line-0-4-2-7" />
   
   <rect
   width="115.82113"
   height="24.174969"
   x="8.7234268"
   y="224.8618"
   id="rect3027"
   style="fill:#ffffff;fill-opacity:1;stroke:#000000;stroke-width:0.69439477;stroke-miterlimit:4;stroke-opacity:1;stroke-dasharray:none" />


<rect
   width="346.21024"
   height="255.83577"
   x="0.6919322"
   y="-0.33075482"
   id="rect3843"
   style="fill:none;stroke:#000000;stroke-width:2.08556461;stroke-miterlimit:4;stroke-opacity:1;stroke-dasharray:none" />
<text
   x="69.376801"
   y="235.5477"
   id="Title-m08b_Main"
   style="font-size:10px;font-style:normal;font-variant:normal;font-weight:normal;font-stretch:normal;text-align:center;line-height:100%;writing-mode:lr-tb;text-anchor:middle;fill:#ff0000;fill-opacity:1;stroke:none;overflow:visible;font-family:Arial;-inkscape-font-specification:Arial"
   sodipodi:linespacing="100%">Paul’s Second Missionary Journey</text>





<text
   x="69.192459"
   y="244.58035"
   id="Ref-m08b_Title"
   style="font-size:9px;font-style:normal;font-variant:normal;font-weight:normal;font-stretch:normal;text-align:center;line-height:100%;writing-mode:lr-tb;text-anchor:middle;fill:#ff0000;fill-opacity:1;stroke:none;overflow:visible;font-family:Arial;-inkscape-font-specification:Arial"
   sodipodi:linespacing="100%">Acts 15:36–18:22</text>





<path
   d="m 994.88729,80.681383 -20.29793,-8.136178 17.1951,-13.51044 3.10283,21.646618 z"
   transform="matrix(0.2158921,0.0309375,-0.03089013,0.2162232,-156.02873,-8.9961503)"
   id="path3761"
   style="fill:#000000;fill-opacity:1;fill-rule:evenodd;stroke:#000000;stroke-width:0.31851676;stroke-linecap:round;stroke-linejoin:round;stroke-miterlimit:4;stroke-opacity:1;stroke-dasharray:none;stroke-dashoffset:1.34999991" /><path
   d="m 994.88729,80.681383 -20.29793,-8.136178 17.1951,-13.51044 3.10283,21.646618 z"
   transform="matrix(3.796777e-4,-0.21809719,0.21841838,2.8638656e-4,113.30451,329.91393)"
   id="path3761-6"
   style="fill:#000000;fill-opacity:1;fill-rule:evenodd;stroke:#000000;stroke-width:0.31851676;stroke-linecap:round;stroke-linejoin:round;stroke-miterlimit:4;stroke-opacity:1;stroke-dasharray:none;stroke-dashoffset:1.34999991;overflow:visible" /><path
   d="m 994.88729,80.681383 -20.29793,-8.136178 17.1951,-13.51044 3.10283,21.646618 z"
   transform="matrix(-0.16746855,-0.13971689,0.13985049,-0.16777519,238.02026,231.31858)"
   id="path3761-7"
   style="fill:#000000;fill-opacity:1;fill-rule:evenodd;stroke:#000000;stroke-width:0.31851676;stroke-linecap:round;stroke-linejoin:round;stroke-miterlimit:4;stroke-opacity:1;stroke-dasharray:none;stroke-dashoffset:1.34999991;overflow:visible" /><path
   d="m 994.88729,80.681383 -20.29793,-8.136178 17.1951,-13.51044 3.10283,21.646618 z"
   transform="matrix(-0.21396637,-0.04224833,0.04221843,-0.2142995,397.9437,199.13692)"
   id="path3761-7-4"
   style="fill:#000000;fill-opacity:1;fill-rule:evenodd;stroke:#000000;stroke-width:0.31851676;stroke-linecap:round;stroke-linejoin:round;stroke-miterlimit:4;stroke-opacity:1;stroke-dasharray:none;stroke-dashoffset:1.34999991;overflow:visible" /><path
   d="m 994.88729,80.681383 -20.29793,-8.136178 17.1951,-13.51044 3.10283,21.646618 z"
   transform="matrix(-0.18234773,-0.11964879,0.11974643,-0.18266763,432.8207,302.5809)"
   id="path3761-7-6"
   style="fill:#000000;fill-opacity:1;fill-rule:evenodd;stroke:#000000;stroke-width:0.31851676;stroke-linecap:round;stroke-linejoin:round;stroke-miterlimit:4;stroke-opacity:1;stroke-dasharray:none;stroke-dashoffset:1.34999991;overflow:visible" /><path
   d="m 994.88729,80.681383 -20.29793,-8.136178 17.1951,-13.51044 3.10283,21.646618 z"
   transform="matrix(0.02294103,-0.21688761,0.21721674,0.02288147,247.15332,417.36236)"
   id="path3761-7-1"
   style="fill:#000000;fill-opacity:1;fill-rule:evenodd;stroke:#000000;stroke-width:0.31851676;stroke-linecap:round;stroke-linejoin:round;stroke-miterlimit:4;stroke-opacity:1;stroke-dasharray:none;stroke-dashoffset:1.34999991;overflow:visible" /><path
   d="m 994.88729,80.681383 -20.29793,-8.136178 17.1951,-13.51044 3.10283,21.646618 z"
   transform="matrix(-0.03812114,0.21474009,-0.21507259,-0.03808484,342.3951,-19.854529)"
   id="path3761-7-2"
   style="fill:#000000;fill-opacity:1;fill-rule:evenodd;stroke:#000000;stroke-width:0.31851676;stroke-linecap:round;stroke-linejoin:round;stroke-miterlimit:4;stroke-opacity:1;stroke-dasharray:none;stroke-dashoffset:1.34999991;overflow:visible" /><path
   d="m 994.88729,80.681383 -20.29793,-8.136178 17.1951,-13.51044 3.10283,21.646618 z"
   transform="matrix(-0.03054838,0.2159475,-0.21627852,-0.03050041,340.5887,-85.45922)"
   id="path3761-7-47"
   style="fill:#000000;fill-opacity:1;fill-rule:evenodd;stroke:#000000;stroke-width:0.31851676;stroke-linecap:round;stroke-linejoin:round;stroke-miterlimit:4;stroke-opacity:1;stroke-dasharray:none;stroke-dashoffset:1.34999991;overflow:visible" /><path
   d="m 994.88729,80.681383 -20.29793,-8.136178 17.1951,-13.51044 3.10283,21.646618 z"
   transform="matrix(-0.05373713,0.21137372,-0.21170798,-0.05372525,364.5586,-105.97996)"
   id="path3761-7-22"
   style="fill:#000000;fill-opacity:1;fill-rule:evenodd;stroke:#000000;stroke-width:0.31851676;stroke-linecap:round;stroke-linejoin:round;stroke-miterlimit:4;stroke-opacity:1;stroke-dasharray:none;stroke-dashoffset:1.34999991;overflow:visible" /><path
   d="m 994.88729,80.681383 -20.29793,-8.136178 17.1951,-13.51044 3.10283,21.646618 z"
   transform="matrix(0.18601203,0.11386858,-0.11395614,0.18633484,90.11698,-26.980899)"
   id="path3761-7-20"
   style="fill:#000000;fill-opacity:1;fill-rule:evenodd;stroke:#000000;stroke-width:0.31851676;stroke-linecap:round;stroke-linejoin:round;stroke-miterlimit:4;stroke-opacity:1;stroke-dasharray:none;stroke-dashoffset:1.34999991;overflow:visible" /><path
   d="m 994.88729,80.681383 -20.29793,-8.136178 17.1951,-13.51044 3.10283,21.646618 z"
   transform="matrix(0.00478916,0.21804493,-0.21836382,0.00489005,238.8238,-153.4171)"
   id="path3761-7-5"
   style="fill:#000000;fill-opacity:1;fill-rule:evenodd;stroke:#000000;stroke-width:0.31851676;stroke-linecap:round;stroke-linejoin:round;stroke-miterlimit:4;stroke-opacity:1;stroke-dasharray:none;stroke-dashoffset:1.34999991;overflow:visible" /><path
   d="m 994.88729,80.681383 -20.29793,-8.136178 17.1951,-13.51044 3.10283,21.646618 z"
   transform="matrix(0.2158921,0.0309375,-0.03089013,0.2162232,-21.24333,0.5494789)"
   id="path3761-7-3"
   style="fill:#000000;fill-opacity:1;fill-rule:evenodd;stroke:#000000;stroke-width:0.31851676;stroke-linecap:round;stroke-linejoin:round;stroke-miterlimit:4;stroke-opacity:1;stroke-dasharray:none;stroke-dashoffset:1.34999991;overflow:visible" /><path
   d="m 994.88729,80.681383 -20.29793,-8.136178 17.1951,-13.51044 3.10283,21.646618 z"
   transform="matrix(0.21793697,0.00836677,-0.00828529,0.21826137,-70.7983,30.060945)"
   id="path3761-7-19"
   style="fill:#000000;fill-opacity:1;fill-rule:evenodd;stroke:#000000;stroke-width:0.31851676;stroke-linecap:round;stroke-linejoin:round;stroke-miterlimit:4;stroke-opacity:1;stroke-dasharray:none;stroke-dashoffset:1.34999991;overflow:visible" /><path
   d="m 994.88729,80.681383 -20.29793,-8.136178 17.1951,-13.51044 3.10283,21.646618 z"
   transform="matrix(0.1306885,0.17460539,-0.17480617,0.13095602,-14.5603,-140.18959)"
   id="path3761-7-50"
   style="fill:#000000;fill-opacity:1;fill-rule:evenodd;stroke:#000000;stroke-width:0.31851676;stroke-linecap:round;stroke-linejoin:round;stroke-miterlimit:4;stroke-opacity:1;stroke-dasharray:none;stroke-dashoffset:1.34999991;overflow:visible" /><path
   d="m 994.88729,80.681383 -20.29793,-8.136178 17.1951,-13.51044 3.10283,21.646618 z"
   transform="matrix(0.17656441,-0.12802941,0.12829385,0.17676923,-120.00891,212.37325)"
   id="path3761-7-197"
   style="fill:#000000;fill-opacity:1;fill-rule:evenodd;stroke:#000000;stroke-width:0.31851676;stroke-linecap:round;stroke-linejoin:round;stroke-miterlimit:4;stroke-opacity:1;stroke-dasharray:none;stroke-dashoffset:1.34999991;overflow:visible" /><path
   d="m 994.88729,80.681383 -20.29793,-8.136178 17.1951,-13.51044 3.10283,21.646618 z"
   transform="matrix(-0.18551007,0.11468452,-0.11493317,-0.18573379,290.86014,8.1226882)"
   id="path3761-7-23"
   style="fill:#000000;fill-opacity:1;fill-rule:evenodd;stroke:#000000;stroke-width:0.31851676;stroke-linecap:round;stroke-linejoin:round;stroke-miterlimit:4;stroke-opacity:1;stroke-dasharray:none;stroke-dashoffset:1.34999991;overflow:visible" /><path
   d="m 294.86387,105.26678 c 0,0 4.46746,-12.301265 0.23702,-14.912611 -7.34282,-4.53254 -8.00447,9.396008 -22.9542,11.968861 -2.2027,-2.650141 -8.68083,-6.209067 -12.69467,-4.04772 -20.64001,11.11411 -22.67787,10.11918 -25.30404,-0.152219 -1.49811,-2.052703 -6.3627,-1.318174 -6.97231,-4.134534 -0.6096,-2.816354 0.95431,-5.096297 1.46798,-9.303962 0.7409,-4.795652 3.01692,-27.809636 -6.92949,-33.600022 -28.50334,-15.702376 -84.8267,11.069233 -106.81302,2.696763 -10.82498,-4.122187 -6.64703,-6.46926 -9.98651,-9.687385 -4.19504,-4.042606 -9.06249,-8.08997 -12.62508,-12.086217 -2.79713,-2.344447 -2.53007,-6.167067 -5.18102,-6.044791 -4.42332,0.204027 -7.97114,6.73955 -6.76731,10.578507 -4.78378,-2.749192 -11.33068,-0.600298 -11.33068,-0.600298 l -6.09284,1.82477 c 0,0 -16.83056,-3.099108 -19.34131,2.918157 0.39204,16.240874 1.72804,14.09191 13.6718,18.602683 1.95039,0.621134 7.48926,2.115163 10.44901,6.077606 1.88177,2.601293 2.67075,10.453977 5.32614,12.919492 4.4761,2.890382 5.42613,1.216858 9.53299,3.181188 4.26405,2.400128 6.67116,6.116744 7.65901,9.417134 1.39089,4.025341 0.66201,4.791814 -0.41185,7.17016 -2.54021,4.795858 -10.09647,0.760373 -14.65542,-0.858527 -6.407,-0.631371 -11.77091,1.152798 -15.70213,4.732715 0.82294,4.43817 8.41728,3.18353 12.43036,5.14059 2.22749,1.08629 3.80978,2.20887 6.42359,3.61325 6.1501,1.62879 13.082,0.67536 18.85562,-1.33214 3.74497,-1.30214 6.05312,-5.58888 9.61292,-7.33479 3.93348,-1.92918 7.88354,-3.978527 12.12722,-5.067193 5.48217,-1.406389 11.18145,-0.814329 16.88296,-1.804159 -4.8855,2.036809 -8.37794,11.730872 -6.5462,20.912652 0.71603,3.58917 7.77693,10.87589 8.52191,14.39867 1.22203,5.77867 -1.00266,12.34999 12.71666,12.3735 17.34205,0.0297 35.75077,-2.81229 51.17485,1.46327 12.87409,3.56871 20.06707,13.40919 31.20149,16.38996 33.50462,8.96944 48.79858,23.63678 50.51144,29.5109 1.71286,5.87412 1.89688,11.2348 1.35304,14.83512 0.42804,2.67709 1.51971,7.14566 4.1809,7.21892 0.0197,5.4e-4 -0.027,-0.0361 -0.0214,-0.055 3.09204,-10.43603 -0.61544,-18.85963 0.93139,-28.13937 0.88278,-5.9835 5.4447,-15.7166 7.35626,-23.79587 1.01164,-4.27571 1.76512,-5.34592 2.16293,-13.0026 0.3434,-6.60943 -4.12286,-15.40495 -4.30869,-22.3028"
   id="path2950"
   style="fill:none;stroke:#000000;stroke-width:1.04278231;stroke-linecap:butt;stroke-linejoin:miter;stroke-miterlimit:4;stroke-opacity:1;stroke-dasharray:6.25, 2.1;stroke-dashoffset:0.93850401" /></svg>