<?xml version="1.0" encoding="UTF-8" standalone="no"?>
<!-- Created with Inkscape (http://www.inkscape.org/) -->

<svg
   xmlns:dc="http://purl.org/dc/elements/1.1/"
   xmlns:cc="http://creativecommons.org/ns#"
   xmlns:rdf="http://www.w3.org/1999/02/22-rdf-syntax-ns#"
   xmlns:svg="http://www.w3.org/2000/svg"
   xmlns="http://www.w3.org/2000/svg"
   xmlns:xlink="http://www.w3.org/1999/xlink"
   xmlns:sodipodi="http://sodipodi.sourceforge.net/DTD/sodipodi-0.dtd"
   xmlns:inkscape="http://www.inkscape.org/namespaces/inkscape"
   version="1.0"
   width="708.66138"
   height="425.19684"
   viewBox="0 0 492.65303 293.24132"
   id="svg2"
   xml:space="preserve"
   style="overflow:visible"
   inkscape:version="0.47 r22583"
   sodipodi:docname="m08c-map.svg"><metadata
   id="metadata423"><rdf:RDF><cc:Work
       rdf:about=""><dc:format>image/svg+xml</dc:format><dc:type
         rdf:resource="http://purl.org/dc/dcmitype/StillImage" /></cc:Work></rdf:RDF></metadata><sodipodi:namedview
   pagecolor="#ffffff"
   bordercolor="#666666"
   borderopacity="1"
   objecttolerance="10"
   gridtolerance="10"
   guidetolerance="10"
   inkscape:pageopacity="0"
   inkscape:pageshadow="2"
   inkscape:window-width="1440"
   inkscape:window-height="877"
   id="namedview421"
   showgrid="false"
   inkscape:zoom="2.9351111"
   inkscape:cx="547.42672"
   inkscape:cy="157.49109"
   inkscape:window-x="1440"
   inkscape:window-y="0"
   inkscape:window-maximized="1"
   inkscape:current-layer="svg2" /><defs
   id="defs422"><inkscape:perspective
     sodipodi:type="inkscape:persp3d"
     inkscape:vp_x="0 : 212.59842 : 1"
     inkscape:vp_y="0 : 1000 : 0"
     inkscape:vp_z="708.66138 : 212.59842 : 1"
     inkscape:persp3d-origin="354.33069 : 141.73228 : 1"
     id="perspective425" /><inkscape:perspective
     id="perspective3320"
     inkscape:persp3d-origin="0.5 : 0.33333333 : 1"
     inkscape:vp_z="1 : 0.5 : 1"
     inkscape:vp_y="0 : 1000 : 0"
     inkscape:vp_x="0 : 0.5 : 1"
     sodipodi:type="inkscape:persp3d" /></defs>
   



<image
   y="37.196938"
   x="145.05891"
   id="image3322"
   height="257.21964"
   width="347.59412"
   xlink:href="file:///home/dennis/Projects/ptxplus/resources/lib_maps/m08c-bkgrnd-bw.png" />

<polygon
   points="506.547,306.549 507.694,308.855 506.266,307.648 506.367,309.516 505.22,307.209 505.122,305.347 505.122,305.347 "
   transform="matrix(0.69804323,0,0,0.6414587,0.53537701,-26.795844)"
   id="polygon18"
   style="fill:#009a4e;fill-rule:evenodd" /><polygon
   points="600.288,295.028 599.839,296.84 599.839,296.84 601.466,295.927 603.028,293.879 601.397,294.795 601.848,292.98 "
   transform="matrix(0.69539781,0.06071436,-0.05579276,0.63902772,20.03344,-63.717488)"
   id="polygon20"
   style="fill:#009a4e;fill-rule:evenodd" /><polygon
   points="555.429,331.637 557.74,330.499 555.872,330.594 557.083,329.169 554.773,330.308 553.565,331.729 553.565,331.729 "
   transform="matrix(0.69804323,0,0,0.6414587,0.53537701,-26.795844)"
   id="polygon22"
   style="fill:#009a4e;fill-rule:evenodd" /><polygon
   points="488.277,260.143 488.411,257.571 489.062,259.325 489.892,257.648 489.757,260.22 488.928,261.891 488.928,261.891 "
   transform="matrix(0.69804323,0,0,0.6414587,0.53537701,-26.795844)"
   id="polygon24"
   style="fill:#009a4e;fill-rule:evenodd" /><polygon
   points="520.855,238.601 519.194,236.633 520.868,237.467 520.327,235.677 521.988,237.645 522.526,239.431 522.526,239.431 "
   transform="matrix(0.69804323,0,0,0.6414587,0.53537701,-26.795844)"
   id="polygon26"
   style="fill:#009a4e;fill-rule:evenodd" /><polygon
   points="494.104,227.156 493.988,229.729 493.325,227.98 492.506,229.662 492.624,227.088 493.442,225.413 493.442,225.413 "
   transform="matrix(0.69804323,0,0,0.6414587,0.53537701,-26.795844)"
   id="polygon28"
   style="fill:#009a4e;fill-rule:evenodd" /><polygon
   points="507.408,223.032 509.318,224.76 507.546,224.157 508.322,225.859 506.414,224.131 505.641,222.433 505.641,222.433 "
   transform="matrix(0.69804323,0,0,0.6414587,0.53537701,-26.795844)"
   id="polygon30"
   style="fill:#009a4e;fill-rule:evenodd" /><g
   transform="matrix(0.69804323,0,0,0.6414587,0.53537701,-26.795844)"
   id="g32">

<g
   id="g34">

<path
   d="m 489.033,260.119 c -0.188,2.999 1.85,7.374 2.882,8.224 1.032,0.85 -6.111,0.284 -5.868,3.38 1.003,12.774 35.046,24.013 52.713,26.179 27.822,3.409 42.407,-30.704 73.518,-22.05"
   id="path36"
   style="fill:none;stroke:#009a4e;stroke-width:1.50010002;stroke-miterlimit:2.41420007" />
<polygon
   points="611.688,274.085 610.871,277.024 610.871,277.024 616.763,277.08 "
   id="polygon38"
   style="fill:#009a4e" />
	</g>

	</g><path
   d="m 364.09095,125.49351 c 1.34373,1.46188 2.04457,2.02123 6.97624,0.34254 -2.98413,2.061 -3.81201,3.19767 -3.10838,5.68909 1.44425,3.55497 4.75297,4.49919 7.87672,4.3523"
   id="path40"
   style="fill:none;stroke:#009a4e;stroke-width:1.00379658;stroke-miterlimit:2.41420007" /><g
   transform="matrix(0.69804323,0,0,0.6414587,0.53537701,-26.795844)"
   id="g42">

<g
   id="g44">

<path
   d="m 511.803,227.959 c 2.117,1.934 3.619,3.021 5.431,5.21"
   id="path46"
   style="fill:none;stroke:#009a4e;stroke-width:1.50010002;stroke-miterlimit:2.41420007" />
<polygon
   points="517.76,231.384 515.41,233.329 515.41,233.329 520.213,236.741 "
   id="polygon48"
   style="fill:#009a4e" />
<polygon
   points="511.53,229.8 513.587,227.548 513.587,227.548 508.357,224.835 "
   id="polygon50"
   style="fill:#009a4e" />
	</g>

	</g><path
   d="m 354.86072,117.03138 c -0.97586,-0.81208 -3.6731,-2.71272 -4.5303,-3.77947 -5.01334,-0.70432 -5.29396,4.85648 -5.41053,5.768"
   id="path52"
   style="fill:none;stroke:#009a4e;stroke-width:1.00379658;stroke-miterlimit:2.41420007" /><g
   transform="matrix(0.69804323,0,0,0.6414587,0.53537701,-26.795844)"
   id="g54">

<g
   id="g56">
	<path
   d="m 492.843,233.725 c -0.294,2.862 -3.295,8.772 -3.569,11.297 -0.285,2.623 0.256,6.853 0.1,8.759"
   id="path58"
   style="fill:none;stroke:#009a4e;stroke-width:1.50010002;stroke-miterlimit:2.41420007" />
	<polygon
   points="490.998,252.87 487.958,252.62 487.958,252.62 489.012,258.417 "
   id="polygon60"
   style="fill:#009a4e" />
	<polygon
   points="491.202,234.602 494.236,234.914 494.236,234.914 493.3,229.096 "
   id="polygon62"
   style="fill:#009a4e" />
	</g>

	</g><g
   transform="matrix(0.69804323,0,0,0.6414587,0.53537701,-26.795844)"
   id="g64">

<g
   id="g66">
	<path
   d="m 506.298,307.713 c -5.924,-12.798 -13.816,-26.337 -13.999,-32.529"
   id="path68"
   style="fill:none;stroke:#009a4e;stroke-width:1.50010002;stroke-miterlimit:2.41420007" />
	<polygon
   points="490.787,276.269 493.835,276.179 493.835,276.179 492.144,270.535 "
   id="polygon70"
   style="fill:#009a4e" />
	</g>

	</g><g
   transform="matrix(0.69804323,0,0,0.6414587,0.53537701,-26.795844)"
   id="g72">

<g
   id="g74">
	<path
   d="m 508.911,312.689 c 3.09,5.843 5.527,10.365 5.939,11.232 6.572,13.839 18.89,12.269 23.042,9.457 2.746,-1.859 7.545,1.768 17.731,-2.661"
   id="path76"
   style="fill:none;stroke:#009a4e;stroke-width:1.50010002;stroke-miterlimit:2.41420007" />
	<polygon
   points="508.033,314.331 510.729,312.905 510.729,312.905 506.72,308.586 "
   id="polygon78"
   style="fill:#009a4e" />
	</g>

	</g><path
   d="m 392.03851,183.39734 c 5.19344,-2.84166 8.80721,-8.1555 9.41381,-9.62124 5.86077,0 16.179,-7.62802 19.92959,-12.15159"
   id="path84"
   style="fill:none;stroke:#009a4e;stroke-width:1.00379658;stroke-miterlimit:2.41420007" /><polygon
   points="562.542,328.474 560.981,325.854 560.981,325.854 556.871,330.075 "
   transform="matrix(0.69804323,0,0,0.6414587,0.53537701,-26.795844)"
   id="polygon86"
   style="fill:#009a4e" /><path
   d="m 435.96637,144.78281 -2.47317,8.77965 c -1.19784,4.2503 -5.68292,0.80146 -9.20385,4.75541"
   id="path92"
   style="fill:none;stroke:#009a4e;stroke-width:1.00379658;stroke-miterlimit:2.41420007" /><polygon
   points="604.471,288.574 602.046,293.944 606.832,290.506 604.471,288.574 "
   transform="matrix(0.69804323,0,0,0.6414587,1.922502,-27.786647)"
   id="polygon94"
   style="fill:#009a4e" /><polygon
   points="293.986,191.799 293.707,189.238 294.63,190.865 295.181,189.078 295.459,191.639 294.908,193.42 294.908,193.42 "
   transform="matrix(0.69804323,0,0,0.6414587,-0.77241695,-30.018622)"
   id="polygon98"
   style="fill:#007dbe;fill-rule:evenodd" /><polygon
   points="440.342,300.72 442.051,301.479 441.431,299.714 443.178,301.606 443.794,303.366 443.794,303.366 442.088,302.611 "
   transform="matrix(0.68745523,-0.12111839,0.11130033,0.63172898,-20.8154,37.408889)"
   id="polygon100"
   style="fill:#007dbe;fill-rule:evenodd" /><polygon
   points="520.641,354.016 520.641,354.016 518.793,353.755 516.596,352.411 518.448,352.675 517.37,351.146 519.567,352.49 "
   transform="matrix(0.69804323,0,0,0.6414587,0.53537701,-26.795844)"
   id="polygon102"
   style="fill:#007dbe;fill-rule:evenodd" /><polygon
   points="574.156,256.185 574.156,256.185 575.369,254.767 577.682,253.637 576.465,255.057 578.333,254.969 576.019,256.099 "
   transform="matrix(0.69804323,0,0,0.6414587,0.53537701,-26.795844)"
   id="polygon104"
   style="fill:#007dbe;fill-rule:evenodd" /><polygon
   points="479.923,208.404 479.923,208.404 481.654,209.1 483.465,210.931 481.731,210.231 482.411,211.974 480.6,210.143 "
   transform="matrix(0.69804323,0,0,0.6414587,0.53537701,-26.795844)"
   id="polygon106"
   style="fill:#007dbe;fill-rule:evenodd" /><polygon
   points="627.157,331.005 625.756,332.245 626.849,329.913 628.247,328.677 628.247,328.677 628.192,330.542 627.099,332.874 "
   transform="matrix(0.66719309,-0.20522605,0.18859009,0.61310932,-39.199842,112.84377)"
   id="polygon108"
   style="fill:#007dbe;fill-rule:evenodd" /><polygon
   points="330.795,274.755 330.795,274.755 329.066,275.457 326.492,275.397 328.225,274.696 326.526,273.916 329.101,273.975 "
   transform="matrix(0.69804323,0,0,0.6414587,0.53537701,-26.795844)"
   id="polygon110"
   style="fill:#007dbe;fill-rule:evenodd" /><polygon
   points="301.157,170.197 299.04,168.73 297.21,168.365 297.21,168.365 298.195,169.949 300.312,171.416 299.323,169.829 "
   transform="matrix(0.64516476,-0.2665085,0.24490489,0.59286664,-23.806382,58.075305)"
   id="polygon112"
   style="fill:#007dbe;fill-rule:evenodd" /><polygon
   points="355.537,162.012 356.436,163.646 358.472,165.223 357.569,163.586 359.379,164.051 357.344,162.474 355.537,162.012 "
   transform="matrix(0.69804323,0,0,0.6414587,5.8132598,-28.103638)"
   id="polygon114"
   style="fill:#007dbe;fill-rule:evenodd" /><polygon
   points="328.783,261.292 328.783,261.292 329.062,259.448 328.404,256.958 328.126,258.808 326.971,257.337 327.628,259.827 "
   transform="matrix(0.69804323,0,0,0.6414587,0.53537701,-26.795844)"
   id="polygon116"
   style="fill:#007dbe;fill-rule:evenodd" /><polygon
   points="401.028,181.57 398.596,182.422 397.227,183.688 397.227,183.688 399.087,183.821 401.518,182.969 399.653,182.838 "
   transform="matrix(0.69672791,0.04430493,-0.03935983,0.66226963,10.983899,-52.356593)"
   id="polygon118"
   style="fill:#007dbe;fill-rule:evenodd" /><g
   transform="matrix(0.69804323,0,0,0.6414587,0.53537701,-26.795844)"
   id="g120">

<g
   id="g122">
	<path
   d="M 453.54646,314.0908 C 482.99956,333.97539 489.194,337.07 512.943,349.652"
   id="path124"
   style="fill:none;stroke:#007dbe;stroke-width:1.50010002;stroke-miterlimit:2.41420007" />
	<polygon
   points="511.32,350.495 517.063,351.813 512.748,347.8 511.32,350.495 "
   id="polygon126"
   style="fill:#007dbe" />
	</g>

	</g><path
   d="m 229.60036,149.40901 c 2.35869,0.0783 7.4036,1.87228 10.2586,2.13256 0.0251,0.003 5.1823,1.68184 8.36624,-5.34544 8.15215,-12.26482 28.79393,-10.75873 32.18363,-13.18216 l -0.0133,0.077 c -1.94545,3.73137 -1.6011,7.25716 -4.70111,8.77999 -2.38591,1.17258 -3.41542,2.61866 -3.34841,4.18575 0.16055,3.77691 -2.62705,6.66354 -2.80645,9.66749 -0.15636,2.62164 2.88082,8.94322 8.13848,9.48782 5.74141,0.59463 10.50783,3.39973 18.95622,-0.94999 11.69703,-6.02231 10.30545,4.79882 16.23575,7.79549"
   id="path132"
   style="fill:none;stroke:#007dbe;stroke-width:1.00379658;stroke-miterlimit:2.41420007" /><polygon
   points="436.537,297.412 441.375,300.774 438.867,295.443 436.537,297.412 "
   transform="matrix(0.66685776,-0.20631305,0.18958898,0.61280118,-35.490143,80.500201)"
   id="polygon134"
   style="fill:#007dbe" /><g
   transform="matrix(0.69804323,0,0,0.6414587,0.53537701,-26.795844)"
   id="g136">

<g
   id="g138">
	<path
   d="m 293.09804,258.40605 c 4.743,2.756 12.17896,1.06595 15.44696,5.56795 1.697,2.339 3.173,4.678 6.614,8.729 1.081,1.273 3.292,1.578 7.346,1.741"
   id="path140"
   style="fill:none;stroke:#007dbe;stroke-width:1.50010002;stroke-miterlimit:2.41420007" />
	<polygon
   points="321.404,275.908 327.153,274.614 321.527,272.861 321.404,275.908 "
   id="polygon142"
   style="fill:#007dbe" />
	</g>

	</g><path
   d="m 208.69277,136.82021 c 3.72057,-1.11165 7.13155,2.41124 8.9695,2.92376 -0.24013,2.12452 2.61491,3.02101 4.05637,4.63941 1.00379,1.1264 2.33482,1.56154 3.55849,2.01505 2.88362,1.06932 4.36621,-1.2015 4.82483,-2.46004 0.39788,-1.08984 -0.0542,-3.09798 -0.53371,-4.76513"
   id="path148"
   style="fill:none;stroke:#007dbe;stroke-width:1.00379658;stroke-miterlimit:2.41420007" /><polygon
   points="296.259,254.85 302.144,254.541 301.201,251.64 301.201,251.64 "
   transform="matrix(0.69804323,0,0,0.6414587,-1.6598486,-25.581464)"
   id="polygon150"
   style="fill:#007dbe" />

<g
   transform="matrix(0.69804323,0,0,0.6414587,0.53537701,-26.795844)"
   id="g154">
	<path
   d="m 292.8154,186.497 c 0.904,8.304 15.7706,21.906 14.9526,30.939 -0.402,4.447 -3.592,2.843 -5.75,3.13 -2.404,0.321 -3.811,3.807 -5.399,4.515 -1.587,0.71 -3.707,1.576 -3.538,3.007 0.169,1.431 2.006,1.645 4.362,1.779 2.356,0.134 5.631,2.339 8.048,4.155 1.629,1.224 4.009,2.5 5.091,3.763 1.083,1.263 2.621,3.2 4.743,4.212 2.123,1.012 4.645,0.78 6.126,1.734 1.482,0.954 1.895,4.235 3.412,5.271 1.517,1.035 1.1,2.927 1.6,4.473"
   id="path156"
   style="fill:none;stroke:#007dbe;stroke-width:1.50010002;stroke-miterlimit:2.41420007" />
	<polygon
   points="327.611,252.008 324.709,252.948 324.709,252.948 327.913,257.893 "
   id="polygon158"
   style="fill:#007dbe" />
	</g><path
   d="m 204.34898,88.752068 c -0.44954,-3.009724 -3.5282,-7.601876 -6.70849,-7.604442 1.87425,-1.100101 3.89557,-2.811135 5.05942,-3.046704 1.98498,-0.401765 4.59456,0.299382 7.75188,0.79834"
   id="path164"
   style="fill:none;stroke:#007dbe;stroke-width:1.00379658;stroke-miterlimit:2.41420007" /><polygon
   points="292.218,184.404 292.218,184.404 294.502,189.836 295.24,183.99 "
   transform="matrix(0.69804323,0,0,0.6414587,-0.77241695,-30.112036)"
   id="polygon166"
   style="fill:#007dbe" /><path
   d="m 215.18521,79.928792 c 1.34164,0.751148 3.74096,0.37871 4.21144,-1.038914 2.40616,-1.032749 0.34123,-5.513391 4.18047,-4.853971 -0.097,-2.338759 13.37056,0.02131 14.12654,-1.65867 4.0655,1.909904 4.00837,2.401576 6.12858,2.395163 3.84402,-0.01163 3.65169,-1.092591 4.96718,-1.180819 1.09698,-0.07357 1.41914,-0.485626 6.55883,3.173254"
   id="path172"
   style="fill:none;stroke:#007dbe;stroke-width:1.00379658;stroke-miterlimit:2.41420007" /><polygon
   points="299.907,170.236 303.974,174.5 305.561,171.895 305.561,171.895 "
   transform="matrix(0.6696489,-0.19706521,0.18109078,0.61536606,-20.144613,33.460002)"
   id="polygon174"
   style="fill:#007dbe" /><path
   d="m 257.90248,79.091525 c 1.64527,2.253991 2.45154,3.190354 1.71549,5.874076 -0.5446,1.985699 -1.52482,3.709867 1.11937,5.550212 3.10769,-0.421438 17.82289,-2.923755 21.06251,-3.967408"
   id="path180"
   style="fill:none;stroke:#007dbe;stroke-width:1.00379658;stroke-miterlimit:2.41420007" /><polygon
   points="363.65,166.892 358.378,164.259 361.627,169.175 363.65,166.892 "
   transform="matrix(0.69551071,0.05940709,-0.05459145,0.63913147,15.595323,-49.209146)"
   id="polygon182"
   style="fill:#007dbe" /><path
   d="m 336.84004,108.09202 c -8.61778,-7.5706 -19.2393,-29.056018 -50.45068,-22.843349"
   id="path188"
   style="fill:none;stroke:#007dbe;stroke-width:1.00379658;stroke-miterlimit:2.41420007" /><polygon
   points="407.266,182.036 406.307,179.141 406.307,179.141 401.383,182.377 "
   transform="matrix(0.69804323,0,0,0.6414587,2.7306026,-30.672519)"
   id="polygon190"
   style="fill:#007dbe" /><g
   transform="matrix(0.69804323,0,0,0.6414587,0.53537701,-26.795844)"
   id="g192">

<g
   id="g194">
	<path
   d="m 576.53,255.024 c -6.313,3.084 -7.375,11.169 -16.066,10.729 -7.467,-0.379 -15.599,-5.849 -22.994,-12.079 -3.438,-4.526 -8.206,-6.296 -10.971,-7.086 1.505,-2.505 3.551,-2.119 4.458,-8.735 -7.966,1.607 -22.019,-22.127 -29.896,-19.383 -3.775,-5.208 -10.87,-0.798 -14.737,-4.127"
   id="path196"
   style="fill:none;stroke:#007dbe;stroke-width:1.50010002;stroke-miterlimit:2.41420007" />
	<polygon
   points="488.095,213.88 482.787,211.322 486.105,216.191 488.095,213.88 "
   id="polygon198"
   style="fill:#007dbe" />
	</g>

	</g><g
   transform="matrix(0.69804323,0,0,0.6414587,0.53537701,-26.795844)"
   id="g200">

<g
   id="g202">
	<path
   d="m 623.901,266.896 c -6.855,-0.39 10.061,-31.584 -4.723,-25.149 -6.927,3.015 -8.938,15.495 -16.635,16.59 -5.23,0.744 -6.31,-4.358 -10.388,-6.398 -2.176,-1.087 -7.616,-0.439 -10.128,0.65"
   id="path204"
   style="fill:none;stroke:#007dbe;stroke-width:1.50010002;stroke-miterlimit:2.41420007" />
	<polygon
   points="582.383,250.792 577.768,254.456 583.596,253.59 582.383,250.792 "
   id="polygon206"
   style="fill:#007dbe" />
	</g>

	</g><path
   d="m 441.73053,186.56269 c 0.88034,-7.6866 -4.20033,-14.03342 -4.88741,-22.06013 -0.60719,-7.09335 1.76379,-12.53672 0.99566,-15.52663"
   id="path212"
   style="fill:none;stroke:#007dbe;stroke-width:1.00379658;stroke-miterlimit:2.41420007" /><polygon
   points="625.389,268.769 624.36,274.57 627.399,274.308 627.399,274.308 "
   transform="matrix(0.67880732,-0.16274203,0.14954989,0.62378209,-28.053409,79.863253)"
   id="polygon214"
   style="fill:#007dbe" /><path
   d="m 362.39121,199.40623 c 11.2036,6.29527 32.52254,13.80804 39.26424,15.78886 9.51503,2.79548 21.52833,7.49379 26.37071,14.21701 3.72021,5.16516 2.64567,18.33966 7.98081,20.82531 l 0.88755,-0.67593 c -2.84034,-9.73542 -4.4311,-28.29281 -1.75759,-37.58113 0.72387,-2.51388 2.69132,-6.14396 3.05709,-9.15881 0.4656,-3.84106 0.85782,-7.88629 2.06839,-11.72401"
   id="path220"
   style="fill:none;stroke:#007dbe;stroke-width:1.00379658;stroke-miterlimit:2.41420007" /><polygon
   points="625.701,338.048 625.701,338.048 626.584,332.222 622.907,336.826 "
   transform="matrix(0.69517895,-0.06317104,0.05805029,0.6388266,-13.430861,15.269481)"
   id="polygon222"
   style="fill:#007dbe" /><polygon
   points="628.042,242.585 628.042,242.585 628.693,244.334 628.557,246.907 627.906,245.152 627.077,246.828 627.211,244.256 "
   transform="matrix(0.69804323,0,0,0.6414587,0.53537701,-26.795844)"
   id="polygon226"
   style="fill:#e21f26;fill-rule:evenodd" /><polygon
   points="514.5,222.787 514.5,222.787 516.266,223.384 518.178,225.108 516.408,224.509 517.186,226.21 515.274,224.484 "
   transform="matrix(0.69804323,0,0,0.6414587,0.53537701,-26.795844)"
   id="polygon228"
   style="fill:#e21f26;fill-rule:evenodd" /><polygon
   points="465.175,225.857 465.175,225.857 466.127,224.253 468.213,222.743 467.257,224.351 469.083,223.944 466.997,225.454 "
   transform="matrix(0.69804323,0,0,0.6414587,0.53537701,-26.795844)"
   id="polygon230"
   style="fill:#e21f26;fill-rule:evenodd" /><polygon
   points="371.686,173.814 370.73,171.655 370.689,173.393 369.375,172.255 370.333,174.414 371.641,175.543 371.641,175.543 "
   transform="matrix(0.69804323,0,0,0.6414587,4.2719312,-31.513244)"
   id="polygon232"
   style="fill:#e21f26;fill-rule:evenodd" /><polygon
   points="380.398,223.337 378.78,225.056 379.317,223.402 377.701,224.041 379.32,222.321 380.93,221.69 380.93,221.69 "
   transform="matrix(0.69804323,0,0,0.6414587,1.0024463,-27.286266)"
   id="polygon234"
   style="fill:#e21f26;fill-rule:evenodd" /><polygon
   points="478.35,323.482 476.184,322.089 478.029,322.395 476.987,320.842 479.152,322.236 480.19,323.786 480.19,323.786 "
   transform="matrix(0.69804323,0,0,0.6414587,1.8564484,-24.814236)"
   id="polygon236"
   style="fill:#e21f26;fill-rule:evenodd" /><polygon
   points="576.775,362.24 578.262,363.374 576.418,363.68 578.917,364.3 580.757,363.993 580.757,363.993 579.274,362.861 "
   transform="matrix(0.69310344,0.09121554,-0.07718611,0.66203156,31.437847,-87.014348)"
   id="polygon238"
   style="fill:#e21f26;fill-rule:evenodd" /><polygon
   points="307.609,240.888 307.609,240.888 305.747,240.781 303.445,239.626 305.313,239.733 304.111,238.301 306.412,239.457 "
   transform="matrix(0.69804323,0,0,0.6414587,0.53537701,-26.795844)"
   id="polygon240"
   style="fill:#e21f26;fill-rule:evenodd" /><polygon
   points="286.253,228.933 286.253,228.933 286.957,230.513 288.75,232.05 288.039,230.463 289.714,230.925 287.921,229.388 "
   transform="matrix(0.69804323,0,0,0.6414587,0.53537701,-26.795844)"
   id="polygon242"
   style="fill:#e21f26;fill-rule:evenodd" /><polygon
   points="296.373,207.651 296.373,207.651 294.898,206.747 293.608,204.769 295.088,205.682 294.849,203.96 296.139,205.938 "
   transform="matrix(0.69804323,0,0,0.6414587,0.53537701,-26.795844)"
   id="polygon244"
   style="fill:#e21f26;fill-rule:evenodd" /><polygon
   points="568.055,260.225 568.055,260.225 568.51,258.415 570.08,256.373 569.621,258.187 571.254,257.277 569.686,259.318 "
   transform="matrix(0.69804323,0,0,0.6414587,0.53537701,-26.795844)"
   id="polygon246"
   style="fill:#e21f26;fill-rule:evenodd" /><polygon
   points="419.614,248.574 419.614,248.574 421.456,248.872 423.952,248.239 422.106,247.942 423.587,246.802 421.091,247.436 "
   transform="matrix(0.69804323,0,0,0.6414587,0.53537701,-26.795844)"
   id="polygon248"
   style="fill:#e21f26;fill-rule:evenodd" /><polygon
   points="303.862,169.237 305.543,168.828 307.378,167.341 305.689,167.756 306.445,166.19 304.611,167.678 303.862,169.237 "
   transform="matrix(0.71132734,0,0,0.64912311,-4.2484698,-33.58101)"
   id="polygon250"
   style="fill:#e21f26;fill-rule:evenodd" /><polygon
   points="284.377,187.251 285.732,188.326 286.775,190.444 285.416,189.361 285.447,191.099 284.404,188.98 284.377,187.251 "
   transform="matrix(0.69804323,0,0,0.6414587,-0.21193383,-32.213848)"
   id="polygon252"
   style="fill:#e21f26;fill-rule:evenodd" /><polygon
   points="377.382,253.256 377.87,251.455 377.499,248.906 377.012,250.712 376.032,249.12 376.403,251.669 377.382,253.256 "
   transform="matrix(0.69804323,0,0,0.6414587,1.7573681,-26.828871)"
   id="polygon254"
   style="fill:#e21f26;fill-rule:evenodd" /><polygon
   points="350.818,158.956 352.2,159.997 354.512,160.474 353.122,159.431 354.811,159.022 352.498,158.547 350.818,158.956 "
   transform="matrix(0.69804323,0,0,0.6414587,7.4012953,-31.606658)"
   id="polygon256"
   style="fill:#e21f26;fill-rule:evenodd" /><polygon
   points="319.657,154.702 317.91,156.292 318.574,154.686 316.914,155.196 318.66,153.607 320.314,153.103 320.314,153.103 "
   transform="matrix(0.69804323,0,0,0.6414587,7.7282438,-31.583304)"
   id="polygon258"
   style="fill:#e21f26;fill-rule:evenodd" /><path
   d="m 436.34181,249.68718 c -3.8888,-3.80448 -3.34467,-19.42794 -7.0392,-20.47277 -1.40937,-0.62772 -6.91628,-7.78498 -1.03247,-9.55444 -2.51086,-1.79057 0.34421,-5.78869 2.7985,-7.09654 -8.85661,1.35382 -18.99412,-3.22487 -26.92953,-6.28096"
   id="path260"
   style="fill:none;stroke:#e21f26;stroke-width:1.0037967;stroke-miterlimit:2.41420007" /><path
   d="m 335.76229,182.16134 c 21.32731,12.61429 57.8246,19.66944 64.178,22.91291"
   id="path266"
   style="fill:none;stroke:#e21f26;stroke-width:1.00379658;stroke-miterlimit:2.41420007" /><polygon
   points="570.63,363.241 570.63,363.241 576.516,362.951 571.274,360.26 "
   transform="matrix(0.69516265,0.06335018,-0.05821491,0.63881162,23.874384,-62.339349)"
   id="polygon268"
   style="fill:#e21f26" /><path
   d="m 332.38695,179.98714 c -5.21648,-3.08285 -15.80184,-7.04245 -16.4594,-13.93685 -7.07885,4.99632 -5.80008,-8.34963 -16.59182,-2.01523 -2.32519,-1.93913 -19.63514,4.09738 -15.62491,-2.87837 -2.06803,-1.09626 3.27441,-2.82788 0.60781,-4.26515 -0.60614,-0.32671 -3.13756,-0.69765 -3.69167,-1.16174 -2.25177,-1.886 -4.6904,-8.66585 2.25476,-13.04605 -1.89658,1.5209 -5.47305,1.85267 -4.79665,-1.01914 -5.1732,3.89686 -6.16829,0.50313 -8.76781,0.19523 -2.36078,-0.28032 -3.75055,-3.92697 -4.29712,-7.38508"
   id="path274"
   style="fill:none;stroke:#e21f26;stroke-width:1.00379658;stroke-miterlimit:2.41420007" /><polygon
   points="471.206,319.824 471.206,319.824 476.817,321.62 472.855,317.259 "
   transform="matrix(0.69780644,0.01818029,-0.01670656,0.6412411,7.6643484,-33.227652)"
   id="polygon276"
   style="fill:#e21f26" /><path
   d="m 214.13593,127.21395 c 5.81189,3.666 6.1545,5.75511 4.97822,10.38509 0.12424,-2.69673 -12.08155,-5.37651 -14.43606,-0.27307"
   id="path278"
   style="fill:none;stroke:#e21f26;stroke-width:1.0037967;stroke-miterlimit:2.41420007" /><g
   transform="matrix(0.69804323,0,0,0.6414587,0.53537701,-26.795844)"
   id="g280">

<g
   id="g282">
	<path
   d="m 300.386,237.598 c -3.825,-1.643 -4.88,-1.228 -8.065,-3.726"
   id="path284"
   style="fill:none;stroke:#e21f26;stroke-width:1.50010002;stroke-miterlimit:2.41420007" />
	<polygon
   points="294.069,233.329 288.65,231.016 292.187,235.729 294.069,233.329 "
   id="polygon286"
   style="fill:#e21f26" />
	<polygon
   points="298.836,238.571 304.667,239.416 300.04,235.769 298.836,238.571 "
   id="polygon288"
   style="fill:#e21f26" />
	</g>

	</g><path
   d="m 206.82882,105.55845 c 2.11576,2.98199 -4.13172,3.48576 -2.929,7.45223 0.92841,3.0603 -7.9137,3.59745 -2.57296,7.80566"
   id="path290"
   style="fill:none;stroke:#e21f26;stroke-width:1.0037967;stroke-miterlimit:2.41420007" /><path
   d="m 204.30955,102.24384 c -1.17341,-1.52988 -1.89729,-7.402233 -3.19007,-9.495312"
   id="path296"
   style="fill:none;stroke:#e21f26;stroke-width:1.00379658;stroke-miterlimit:2.41420007" /><polygon
   points="285.776,190.263 287.258,195.966 289.911,194.46 289.911,194.46 "
   transform="matrix(0.69804323,0,0,0.6414587,-0.21193383,-32.260554)"
   id="polygon298"
   style="fill:#e21f26" /><polygon
   points="290.091,201.183 294.617,204.957 292.584,199.426 290.091,201.183 "
   transform="matrix(0.69804323,0,0,0.6414587,0.53537701,-26.795844)"
   id="polygon300"
   style="fill:#e21f26" /><path
   d="m 198.76811,88.756695 c -2.04805,-3.821461 0.94935,-3.743813 -1.36955,-7.990124 2.12455,-4.337851 6.65792,-6.734641 10.98159,-3.90036 0.22548,-2.728069 2.62676,0.08303 4.35861,-1.207148"
   id="path302"
   style="fill:none;stroke:#e21f26;stroke-width:1.0037967;stroke-miterlimit:2.41420007" /><path
   d="m 226.91426,70.13743 c -2.27348,1.551409 -7.15933,0.474652 -10.27309,2.927743"
   id="path308"
   style="fill:none;stroke:#e21f26;stroke-width:1.00379658;stroke-miterlimit:2.41420007" /><polygon
   points="306.345,167.283 311.737,164.906 309.826,162.529 309.826,162.529 "
   transform="matrix(0.69740202,0.02991262,-0.02748786,0.64086947,4.7431735,-41.47315)"
   id="polygon310"
   style="fill:#e21f26" /><polygon
   points="314.695,160.286 314.695,160.286 317.856,155.314 312.632,158.04 "
   transform="matrix(0.69649166,0.04651574,-0.04274511,0.6400329,14.945909,-46.208176)"
   id="polygon312"
   style="fill:#e21f26" /><path
   d="m 230.50738,67.316967 c 1.16015,-0.970793 2.19953,-1.50448 3.24799,-0.07606 2.97577,-2.537442 6.72628,2.055632 5.54309,3.179618 2.76985,1.828759 4.54853,1.530173 7.5585,0.845244 2.5311,-0.575261 2.49759,-1.488251 6.82826,-0.66922"
   id="path314"
   style="fill:none;stroke:#e21f26;stroke-width:1.0037967;stroke-miterlimit:2.41420007" /><path
   d="m 261.39382,76.334747 c -1.06237,-2.106735 -0.33011,-3.685723 -3.52128,-4.762225"
   id="path320"
   style="fill:none;stroke:#e21f26;stroke-width:1.00379658;stroke-miterlimit:2.41420007" /><polygon
   points="359.974,159.839 359.974,159.839 354.083,159.707 359.119,162.767 "
   transform="matrix(0.69786718,-0.01567683,0.01440605,0.64129691,5.0646335,-26.135218)"
   id="polygon322"
   style="fill:#e21f26" /><polygon
   points="366.515,168.043 366.515,168.043 370.395,172.477 369.251,166.697 "
   transform="matrix(0.69784452,0.01665482,-0.01530475,0.64127609,7.0390508,-37.463954)"
   id="polygon324"
   style="fill:#e21f26" /><path
   d="m 266.15281,115.66517 c 1.71718,-1.67616 6.23046,-4.83869 2.87109,-7.59628 -2.42728,-1.99248 -3.27388,-5.6636 -5.21793,-7.32209 -1.25159,-0.94494 1.48547,-6.966231 -1.69204,-9.398814 -0.52632,-2.335242 2.72602,-7.839274 0.89505,-11.637583"
   id="path326"
   style="fill:none;stroke:#e21f26;stroke-width:1.0037967;stroke-miterlimit:2.41420007" /><path
   d="m 263.48116,119.17536 c -0.8124,1.02704 0.20791,2.05443 0.90388,2.90639 0.61433,0.75202 0.46979,2.02894 0.13193,3.24771 -0.41743,1.50935 -0.40556,3.93599 -0.14379,5.53964"
   id="path332"
   style="fill:none;stroke:#e21f26;stroke-width:1.00379658;stroke-miterlimit:2.41420007" /><polygon
   points="376.936,250.096 377.6,244.241 374.584,244.694 374.584,244.694 "
   transform="matrix(0.69804323,0,0,0.6414587,1.7573681,-26.828871)"
   id="polygon334"
   style="fill:#e21f26" /><polygon
   points="378.645,223.939 374.328,227.949 376.911,229.571 376.911,229.571 "
   transform="matrix(0.69802889,0.00447414,-0.00411146,0.64144552,2.0753807,-29.077803)"
   id="polygon336"
   style="fill:#e21f26" /><path
   d="m 267.10316,132.15119 c 1.37793,2.59342 2.97044,2.85194 13.27914,0.92757 3.62424,3.83849 10.05322,0.27775 14.85018,-0.84096"
   id="path342"
   style="fill:none;stroke:#e21f26;stroke-width:1.00379658;stroke-miterlimit:2.41420007" /><polygon
   points="378.44,247.291 381.181,245.953 381.181,245.953 377.314,241.507 "
   transform="matrix(0.69804323,0,0,0.6414587,2.219743,-25.60688)"
   id="polygon344"
   style="fill:#e21f26" /><g
   transform="matrix(0.69804323,0,0,0.6414587,0.53537701,-26.795844)"
   id="g346">

<g
   id="g348">
	<path
   d="m 467.316,224.308 c -7.677,5.557 -18.909,6.432 -23.847,14.422 -3.234,5.232 -9.991,5.52 -15.723,7.426"
   id="path350"
   style="fill:none;stroke:#e21f26;stroke-width:1.50010002;stroke-miterlimit:2.41420007" />
	<polygon
   points="428.258,244.397 423.338,247.641 429.221,247.292 428.258,244.397 "
   id="polygon352"
   style="fill:#e21f26" />
	</g>

	</g><g
   transform="matrix(0.69804323,0,0,0.6414587,0.53537701,-26.795844)"
   id="g354">

<g
   id="g356">
	<path
   d="m 516.461,224.558 c -5.232,-4.721 -10.918,-12.068 -15.223,-6.266 -4.458,-0.733 -20.736,-1.542 -28.619,2.854"
   id="path358"
   style="fill:none;stroke:#e21f26;stroke-width:1.50010002;stroke-miterlimit:2.41420007" />
	<polygon
   points="472.794,219.324 468.566,223.428 474.28,221.988 472.794,219.324 "
   id="polygon360"
   style="fill:#e21f26" />
	</g>

	</g><g
   transform="matrix(0.69804323,0,0,0.6414587,0.53537701,-26.795844)"
   id="g362">

<g
   id="g364">
	<path
   d="m 569.665,258.129 c -13.16,17.122 -26.776,-11.633 -31.854,-4.458 1.543,-6.035 -5,-8.573 -11.201,-7.139 6.576,-0.352 7.811,-7.862 4.295,-8.687 0.111,-4.116 -5.656,-4.722 -10.139,-9.122"
   id="path366"
   style="fill:none;stroke:#e21f26;stroke-width:1.50010002;stroke-miterlimit:2.41420007" />
	<polygon
   points="522.564,228.377 517.434,225.478 520.427,230.554 522.564,228.377 "
   id="polygon368"
   style="fill:#e21f26" />
	</g>

	</g><g
   transform="matrix(0.69804323,0,0,0.6414587,0.53537701,-26.795844)"
   id="g370">

<g
   id="g372">
	<path
   d="m 627.975,245.184 c 0.706,-9.08 -11.037,-9.007 -17.997,3.824 -6.125,11.291 -11.964,4.316 -16.251,4.174 -0.13,-3.768 -14.024,-7.086 -20.166,0.099"
   id="path374"
   style="fill:none;stroke:#e21f26;stroke-width:1.50010002;stroke-miterlimit:2.41420007" />
	<polygon
   points="573.092,251.511 570.552,256.828 575.411,253.493 573.092,251.511 "
   id="polygon376"
   style="fill:#e21f26" />
	</g>

	</g><g
   transform="matrix(0.69804323,0,0,0.6414587,0.53537701,-26.795844)"
   id="g378">

<g
   id="g380">
	<path
   d="m 623.92,267.169 c 0.474,-6.465 2.789,-10.257 3.477,-16.394"
   id="path382"
   style="fill:none;stroke:#e21f26;stroke-width:1.50010002;stroke-miterlimit:2.41420007" />
	<polygon
   points="628.778,251.977 627.897,246.151 625.747,251.637 628.778,251.977 "
   id="polygon384"
   style="fill:#e21f26" />
	</g>

	</g><polygon
   points="118.703,331.618 116.842,331.806 118.255,333.031 115.8,332.252 114.393,331.028 114.393,331.028 116.249,330.839 "
   transform="matrix(0.69804323,0,0,0.67912611,0.93169837,-33.279844)"
   id="polygon388"
   style="fill-rule:evenodd" /><polygon
   points="104.609,299.646 106.157,298.604 106.157,298.604 105.858,300.444 104.47,302.613 104.771,300.768 103.221,301.814 "
   transform="matrix(0.69804323,0,0,0.6414587,0.6674841,-21.115237)"
   id="polygon390"
   style="fill-rule:evenodd" /><polygon
   points="98.465,196.176 98.465,196.176 99.948,197.307 101.206,199.555 99.72,198.418 99.912,200.278 98.654,198.031 "
   transform="matrix(0.69804323,0,0,0.6414587,1.3280198,-31.815916)"
   id="polygon392"
   style="fill-rule:evenodd" /><polygon
   points="71.92,142.844 69.565,141.802 68.299,140.432 68.299,140.432 70.165,140.446 72.52,141.488 70.65,141.472 "
   transform="matrix(0.69804323,0,0,0.6414587,0.79959124,-32.476451)"
   id="polygon394"
   style="fill-rule:evenodd" /><polygon
   points="283.112,357.034 284.881,356.441 287.447,356.662 285.673,357.254 287.32,358.139 284.754,357.919 283.112,357.034 "
   transform="matrix(0.69804323,0,0,0.67063431,1.2619662,-31.184351)"
   id="polygon396"
   style="fill-rule:evenodd" /><polygon
   points="603.348,317.636 603.907,315.856 603.907,315.856 604.823,317.481 605.092,320.042 604.174,318.412 603.618,320.197 "
   transform="matrix(0.69804323,0,0,0.6414587,0.0069484,-32.476451)"
   id="polygon398"
   style="fill-rule:evenodd" /><polygon
   points="387.855,322.445 387.525,324.999 386.571,326.602 386.571,326.602 386.055,324.809 386.385,322.255 386.9,324.053 "
   transform="matrix(0.6572755,-0.10909404,0.09557013,0.63357641,-11.255735,24.267484)"
   id="polygon400"
   style="fill-rule:evenodd" /><polygon
   points="113.655,261.604 112.44,263.021 111.678,265.479 112.894,264.06 113.094,265.919 113.856,263.459 113.655,261.604 "
   transform="matrix(0.69804323,0,0,0.6414587,2.384877,-26.43255)"
   id="polygon402"
   style="fill-rule:evenodd" /><polygon
   points="528.354,305.293 526.663,304.498 528.401,303.812 525.828,303.729 524.092,304.416 524.092,304.416 525.78,305.211 "
   transform="matrix(0.69702274,0.04000307,-0.03467277,0.67908561,15.329646,-60.132716)"
   id="polygon404"
   style="fill-rule:evenodd" /><polygon
   points="606.807,367.068 606.807,367.068 605.686,368.561 605.086,371.064 606.208,369.568 606.528,371.41 607.128,368.906 "
   transform="matrix(0.69804323,0,0,0.6414587,0.27116268,-31.782889)"
   id="polygon406"
   style="fill-rule:evenodd" /><path
   d="M 49.369773,58.026383 C 41.984476,55.023714 41.273868,52.499574 38.738575,49.047244"
   id="path408"
   style="fill:none;stroke:#000000;stroke-width:1.00379658;stroke-miterlimit:2.41420007" /><g
   transform="matrix(0.69804323,0,0,0.6414587,0.93169838,-32.344344)"
   id="g410">

<g
   id="g412">
	<path
   d="m 99.755,198.481 c -5.493,-9.814 -16.7,-29.241 -12.968,-36.649 2.234,-6.564 0.744,-13.619 -10.743,-18.202"
   id="path414"
   style="fill:none;stroke:#000000;stroke-width:1.50010002;stroke-miterlimit:2.41420007" />
	<polygon
   points="77.569,142.616 77.569,142.616 71.718,141.923 76.439,145.449 "
   id="polygon416" />
	</g>

	</g><g
   transform="matrix(0.69804323,0,0,0.6414587,-0.389373,-24.021594)"
   id="g418">

<g
   id="g420">
	<path
   d="m 105.78705,192.16386 c 1.11853,1.83575 5.1922,7.91593 6.16923,9.59453 24.13599,41.46743 0.363,43.15297 6.12572,48.52261 -3.8877,3.44632 0.81358,3.52709 -1.04542,9.52309"
   id="path422"
   style="fill:none;stroke:#000000;stroke-width:1.50010002;stroke-miterlimit:2.41420007" />
	<polygon
   points="104.586,203.595 100.323,199.528 101.982,205.183 104.586,203.595 "
   transform="translate(2.6495493,-11.944984)"
   id="polygon424" />
	</g>

	</g><g
   transform="matrix(0.69804323,0,0,0.6414587,2.1206626,-26.399522)"
   id="g426">

<g
   id="g428">
	<path
   d="m 102.65021,309.06692 c 4.279,-6.686 3.91148,-15.21645 1.40348,-23.10045 4.971,-1.187 6.55819,-10.48103 7.78119,-15.83103"
   id="path430"
   style="fill:none;stroke:#000000;stroke-width:1.50010002;stroke-miterlimit:2.41420007" />
	<polygon
   points="109.813,270.548 112.787,271.228 112.787,271.228 112.569,265.339 "
   transform="translate(0.33119366,-0.20594801)"
   id="polygon432" />
	</g>

	</g><g
   transform="matrix(0.69804323,0,0,0.6414587,0.46932339,-20.917076)"
   id="g434">

<g
   id="g436">
	<path
   d="m 116.912,331.827 c -14.308,-4.54 -24.22,-9.496 -29.49,-16.533 4.772,-1.298 9.999,-2.838 14.081,-9.369"
   id="path438"
   style="fill:none;stroke:#000000;stroke-width:1.50010002;stroke-miterlimit:2.41420007" />
	<polygon
   points="99.642,305.989 102.229,307.605 102.229,307.605 103.952,301.971 "
   id="polygon440" />
	</g>

	</g><g
   transform="matrix(0.69804323,0,0,0.6414587,1.0472921,-20.768455)"
   id="g442">

<g
   id="g444">
	<path
   d="m 285.745,357.26 c -75.548,-6.485 -94.102,-4.518 -163.282,-23.798"
   id="path446"
   style="fill:none;stroke:#000000;stroke-width:1.50010002;stroke-miterlimit:2.41420007" />
	<polygon
   points="123.87,332.29 123.87,332.29 117.978,332.23 123.051,335.229 "
   id="polygon448" />
	</g>

	</g><path
   d="m 239.30249,199.96446 c -2.6705,6.25025 -21.64332,9.13365 -34.72185,8.6641"
   id="path454"
   style="fill:none;stroke:#000000;stroke-width:1.00379658;stroke-miterlimit:2.41420007" /><polygon
   points="292.675,356.127 292.675,356.127 286.929,357.429 292.557,359.175 "
   transform="matrix(0.69804323,0,0,0.6414587,1.0472916,-20.784969)"
   id="polygon456" /><g
   transform="matrix(0.69804323,0,0,0.6414587,0.86564485,-19.529951)"
   id="g458">

<g
   id="g460">
	<path
   d="m 391.30346,322.94642 c 0.61455,10.05033 -7.5068,26.04761 -16.0733,29.74462 C 368.26446,355.6972 352.778,355.67 346.72,346.337"
   id="path462"
   style="fill:none;stroke:#000000;stroke-width:1.50010002;stroke-miterlimit:2.41420007" />
	<polygon
   points="345.991,348.05 348.549,346.39 348.549,346.39 344.171,342.445 "
   id="polygon464" />
	</g>

	</g><g
   transform="matrix(0.69804323,0,0,0.6414587,3.8380555,-20.520755)"
   id="g466">

<g
   id="g468">
	<path
   d="m 387.63,318.133 c 1.17348,-8.968 17.30166,-16.93253 26.40623,-24.00597 4.59166,-3.56732 6.80256,1.05435 9.29058,-2.44077 2.92475,4.70673 16.56842,0.68259 24.29819,7.27274 7.91912,6.75158 12.04282,3.88634 22.27082,-6.66266 4.133,12.406 31.76522,-2.14183 56.93381,1.18544"
   id="path470"
   style="fill:none;stroke:#000000;stroke-width:1.50010002;stroke-miterlimit:2.41420007" />
	<polygon
   points="387.045,322.747 389.296,317.302 386.272,316.906 386.272,316.906 "
   id="polygon472" />
	</g>

	</g><path
   d="m 421.7521,171.55367 c -1.27602,-11.1678 -11.33232,-15.90792 -23.10505,-10.55467 -10.40922,5.09061 -11.13519,6.74436 -22.43791,6.81941"
   id="path478"
   style="fill:none;stroke:#000000;stroke-width:1.00379658;stroke-miterlimit:2.41420007" /><polygon
   points="534.218,306.063 534.196,303.013 534.196,303.013 528.515,304.578 "
   transform="matrix(0.69804323,0,0,0.6414587,3.8380555,-27.588486)"
   id="polygon480" /><path
   d="m 422.43881,175.93472 c 0.66244,15.59964 4.85181,27.14535 11.73243,30.05757 -2.90805,-0.5215 -9.00308,-7.42819 -10.62114,-1.22913"
   id="path486"
   style="fill:none;stroke:#000000;stroke-width:1.00379658;stroke-miterlimit:2.41420007" /><polygon
   points="604.398,320.049 603.096,325.796 606.144,325.677 606.144,325.677 "
   transform="matrix(0.69804323,0,0,0.6414587,0.40326982,-32.476451)"
   id="polygon488" /><path
   d="m 427.62518,229.36305 c -5.8315,1.70464 -9.25293,-10.89348 -5.35299,-20.09315"
   id="path494"
   style="fill:none;stroke:#000000;stroke-width:1.00379658;stroke-miterlimit:2.41420007" /><polygon
   points="606.421,376.972 605.678,371.126 603.399,376.56 606.421,376.972 "
   transform="matrix(0.69192273,0.09223497,-0.08475825,0.63583434,35.644228,-85.935331)"
   id="polygon496" /><circle
   cx="492.461"
   cy="447.67999"
   r="1.556"
   transform="matrix(0.69804323,0,0,0.6414587,2.384877,-14.377773)"
   id="Alexandria"
   style="fill-rule:evenodd" /><circle
   cx="604.40503"
   cy="422.802"
   r="1.556"
   transform="matrix(0.69804323,0,0,0.6414587,2.9793591,-14.113559)"
   id="Gaza"
   style="fill-rule:evenodd" /><circle
   cx="621.10699"
   cy="412.50299"
   r="1.556"
   transform="matrix(0.69804323,0,0,0.6414587,3.309627,-14.179612)"
   id="Jerusalem"
   style="fill-rule:evenodd" /><circle
   cx="607.74902"
   cy="402.936"
   r="1.556"
   transform="matrix(0.69804323,0,0,0.6414587,3.7720019,-17.152023)"
   id="Joppa"
   style="fill-rule:evenodd" /><circle
   cx="609.30902"
   cy="389.771"
   r="1.556"
   transform="matrix(0.69804323,0,0,0.6414587,3.1775198,-20.851023)"
   id="Caesarea"
   style="fill-rule:evenodd" /><circle
   cx="611.60602"
   cy="378.47299"
   r="1.556"
   transform="matrix(0.69804323,0,0,0.6414587,3.3096269,-22.964737)"
   id="Ptolemais"
   style="fill-rule:evenodd" /><circle
   cx="611.79199"
   cy="367.957"
   r="1.556"
   transform="matrix(0.69804323,0,0,0.6414587,5.1591269,-23.75738)"
   id="Tyre"
   style="fill-rule:evenodd" /><circle
   cx="644.29602"
   cy="359.10599"
   r="1.556"
   transform="matrix(0.69804323,0,0,0.6414587,2.9133055,-19.397844)"
   id="Damascus"
   style="fill-rule:evenodd" /><circle
   cx="616.375"
   cy="356.32999"
   r="1.556"
   transform="matrix(0.69804323,0,0,0.6414587,4.7628055,-22.304201)"
   id="Sidon"
   style="fill-rule:evenodd" /><circle
   cx="538.95001"
   cy="332.73499"
   r="1.556"
   transform="matrix(0.69804323,0,0,0.6414587,0.53537701,-26.795844)"
   id="Paphos"
   style="fill-rule:evenodd" /><circle
   cx="574.474"
   cy="312.259"
   r="1.556"
   transform="matrix(0.69804323,0,0,0.6414587,0.53537701,-26.795844)"
   id="Salamis"
   style="fill-rule:evenodd" /><circle
   cx="618.64001"
   cy="277.90701"
   r="1.556"
   transform="matrix(0.69804323,0,0,0.6414587,0.53537701,-26.795844)"
   id="Selucia"
   style="fill-rule:evenodd" /><circle
   cx="623.84998"
   cy="267.202"
   r="1.556"
   transform="matrix(0.69804323,0,0,0.6414587,0.53537701,-26.795844)"
   id="Antioch_x2C__Syria_1_"
   style="fill-rule:evenodd" /><circle
   cx="593.59497"
   cy="253.104"
   r="1.556"
   transform="matrix(0.69804323,0,0,0.6414587,0.53537701,-26.795844)"
   id="Tarsus"
   style="fill-rule:evenodd" /><circle
   cx="537.67401"
   cy="253.524"
   r="1.556"
   transform="matrix(0.69804323,0,0,0.6414587,0.53537701,-26.795844)"
   id="Derbe"
   style="fill-rule:evenodd" /><circle
   cx="526.51801"
   cy="246.505"
   r="1.556"
   transform="matrix(0.69804323,0,0,0.6414587,0.53537701,-26.795844)"
   id="Lystra"
   style="fill-rule:evenodd" /><circle
   cx="530.77002"
   cy="237.853"
   r="1.556"
   transform="matrix(0.69804323,0,0,0.6414587,0.53537701,-26.795844)"
   id="Iconium"
   style="fill-rule:evenodd" /><circle
   cx="501.15302"
   cy="218.34399"
   r="1.556"
   transform="matrix(0.69804323,0,0,0.6414587,0.53537701,-26.795844)"
   id="Antioch_x2C__Pisidia"
   style="fill-rule:evenodd" /><circle
   cx="491.80099"
   cy="268.34201"
   r="1.556"
   transform="matrix(0.69804323,0,0,0.6414587,0.53537701,-26.795844)"
   id="Perga"
   style="fill-rule:evenodd" /><circle
   cx="486.10101"
   cy="271.78601"
   r="1.556"
   transform="matrix(0.69804323,0,0,0.6414587,0.53537701,-26.795844)"
   id="Attalia"
   style="fill-rule:evenodd" /><circle
   cx="472.62201"
   cy="293.63501"
   r="1.556"
   transform="matrix(0.69804323,0,0,0.6414587,2.2168264,-23.246118)"
   id="Myra"
   style="fill-rule:evenodd" /><circle
   cx="454.15302"
   cy="294.021"
   r="1.556"
   transform="matrix(0.69804323,0,0,0.6414587,-0.02510612,-24.180256)"
   id="Patara"
   style="fill-rule:evenodd" /><circle
   cx="426.91299"
   cy="292.82001"
   r="1.556"
   transform="matrix(0.69804323,0,0,0.6414587,1.4706546,-22.355034)"
   id="Rhodes"
   style="fill-rule:evenodd" /><circle
   cx="406.10599"
   cy="288.021"
   r="1.556"
   transform="matrix(0.69804323,0,0,0.6414587,1.8564484,-23.75738)"
   id="Cnidus"
   style="fill-rule:evenodd" /><circle
   cx="402.37"
   cy="260.70001"
   r="1.556"
   transform="matrix(0.69804323,0,0,0.6414587,3.0162747,-25.151143)"
   id="Miletus"
   style="fill-rule:evenodd" /><circle
   cx="456.52301"
   cy="245.38499"
   r="1.556"
   transform="matrix(0.69804323,0,0,0.6414587,0.53537701,-26.795844)"
   id="Colossae_1_"
   style="fill-rule:evenodd" /><circle
   cx="449.763"
   cy="245.05"
   r="1.556"
   transform="matrix(0.69804323,0,0,0.6414587,1.1959127,-27.324273)"
   id="Laodicea"
   style="fill-rule:evenodd" /><circle
   cx="400.979"
   cy="249.20399"
   r="1.556"
   transform="matrix(0.69804323,0,0,0.6414587,0.53537701,-26.795844)"
   id="Ephesus"
   style="fill-rule:evenodd" /><circle
   cx="434.01401"
   cy="236.104"
   r="1.556"
   transform="matrix(0.69804323,0,0,0.6414587,0.53537701,-26.795844)"
   id="Philadelphia"
   style="fill-rule:evenodd" /><circle
   cx="423.85001"
   cy="230.106"
   r="1.556"
   transform="matrix(0.69804323,0,0,0.6414587,1.4695156,-26.515602)"
   id="Sardis"
   style="fill-rule:evenodd" /><circle
   cx="394.88699"
   cy="235.00999"
   r="1.556"
   transform="matrix(0.69804323,0,0,0.6414587,1.6563433,-28.197052)"
   id="Smyrna"
   style="fill-rule:evenodd" /><circle
   cx="415.47699"
   cy="219.011"
   r="1.556"
   transform="matrix(0.69804323,0,0,0.6414587,0.1150147,-26.889258)"
   id="Thyatira"
   style="fill-rule:evenodd" /><circle
   cx="395.573"
   cy="214.717"
   r="1.556"
   transform="matrix(0.69804323,0,0,0.6414587,1.8898779,-28.617414)"
   id="Pergamum"
   style="fill-rule:evenodd" /><circle
   cx="381.82999"
   cy="214.06"
   r="1.556"
   transform="matrix(0.69804323,0,0,0.6414587,-0.49217539,-28.664121)"
   id="Mytelene"
   style="fill-rule:evenodd" /><circle
   cx="374.293"
   cy="202.47701"
   r="1.556"
   transform="matrix(0.69804323,0,0,0.6414587,0.72220472,-28.757535)"
   id="Assos"
   style="fill-rule:evenodd" /><circle
   cx="370.491"
   cy="191.22099"
   r="1.556"
   transform="matrix(0.69804323,0,0,0.6414587,1.9365848,-30.812639)"
   id="Troas"
   style="fill-rule:evenodd" /><circle
   cx="332.06601"
   cy="158.619"
   r="1.556"
   transform="matrix(0.69804323,0,0,0.6414587,5.7665528,-31.092881)"
   id="Neapolis"
   style="fill-rule:evenodd" /><circle
   cx="323.64999"
   cy="154.763"
   r="1.556"
   transform="matrix(0.69804323,0,0,0.6414587,7.63483,-30.252156)"
   id="Philipi"
   style="fill-rule:evenodd" /><circle
   cx="317.41299"
   cy="166.08299"
   r="1.556"
   transform="matrix(0.69804323,0,0,0.6414587,3.1509649,-31.279709)"
   id="Amphipolis"
   style="fill-rule:evenodd" /><circle
   cx="309.12799"
   cy="169.937"
   r="1.556"
   transform="matrix(0.69804323,0,0,0.6414587,2.4270076,-31.162942)"
   id="Apollonia"
   style="fill-rule:evenodd" /><circle
   cx="296.586"
   cy="168.70599"
   r="1.556"
   transform="matrix(0.69804323,0,0,0.6414587,2.0299987,-29.971915)"
   id="Thessalonica"
   style="fill-rule:evenodd" /><circle
   cx="283.12799"
   cy="176.071"
   r="1.556"
   transform="matrix(0.69804323,0,0,0.6414587,-1.0526586,-32.02702)"
   id="Berea"
   style="fill-rule:evenodd" /><circle
   cx="380.37201"
   cy="332.93799"
   r="1.556"
   transform="matrix(0.69804323,0,0,0.6414587,0.53537701,-21.247344)"
   id="Salome"
   style="fill-rule:evenodd" /><circle
   cx="347.91"
   cy="341.93799"
   r="1.556"
   transform="matrix(0.69804323,0,0,0.6414587,2.9133055,-20.718916)"
   id="Lasea"
   style="fill-rule:evenodd" /><circle
   cx="342.73499"
   cy="340.616"
   r="1.556"
   transform="matrix(0.69804323,0,0,0.6414587,0.86564486,-19.596005)"
   id="Fair_Havens"
   style="fill-rule:evenodd" /><circle
   cx="327.13699"
   cy="335.57401"
   r="1.556"
   transform="matrix(0.69804323,0,0,0.6414587,-5.0131228,-21.247344)"
   id="Phoenix"
   style="fill-rule:evenodd" /><circle
   cx="312.905"
   cy="254.343"
   r="1.556"
   transform="matrix(0.69804323,0,0,0.6414587,0.53537701,-24.367084)"
   id="Athens"
   style="fill-rule:evenodd" /><circle
   cx="294.59299"
   cy="254.634"
   r="1.556"
   transform="matrix(0.69804323,0,0,0.6414587,-1.6131416,-24.927567)"
   id="Corinth"
   style="fill-rule:evenodd" /><circle
   cx="241.998"
   cy="222.49001"
   r="1.556"
   transform="matrix(0.69804323,0,0,0.6414587,0.3485493,-28.103638)"
   id="Nicopolis"
   style="fill-rule:evenodd" /><circle
   cx="107.09"
   cy="279.745"
   r="1.556"
   transform="matrix(0.69804323,0,0,0.6414587,-1.7104444,-22.898683)"
   id="Syracuse"
   style="fill-rule:evenodd" /><circle
   cx="118.271"
   cy="250.30901"
   r="1.556"
   transform="matrix(0.69804323,0,0,0.6414587,1.1959127,-23.493166)"
   id="Rhegium"
   style="fill-rule:evenodd" /><circle
   cx="86.838997"
   cy="161.15199"
   r="1.556"
   transform="matrix(0.69804323,0,0,0.6414587,-0.52148011,-32.08013)"
   id="Puteoli"
   style="fill-rule:evenodd" /><circle
   cx="55.436001"
   cy="127.072"
   r="1.556"
   transform="matrix(0.69804323,0,0,0.6414587,-0.12515869,-32.476451)"
   id="Rome"
   style="fill-rule:evenodd" />
   
<line
   id="Fair_Havens_line"
   stroke-miterlimit="2.4142"
   x1="240.384"
   y1="200.27698"
   x2="242.65413"
   y2="210.01979"
   style="fill:none;stroke:#000000;stroke-width:0.52306545;stroke-miterlimit:2.41420007"
   mask="none" />
   
<line
   id="Patmos_line"
   stroke-miterlimit="2.4142"
   x1="268.02359"
   y1="149.73991"
   x2="261.02203"
   y2="154.35811"
   style="fill:none;stroke:#000000;stroke-width:0.34759411;stroke-miterlimit:2.41420007;stroke-dasharray:none"
   mask="none" />
   
<line
   id="Mytelene_line"
   stroke-miterlimit="2.4142"
   x1="264.55493"
   y1="109.73272"
   x2="261.46561"
   y2="111.94339"
   style="fill:none;stroke:#000000;stroke-width:0.35724351;stroke-miterlimit:2.41420007"
   mask="none" />
   
<line
   id="Pergamum_line"
   stroke-miterlimit="2.4142"
   x1="287.8046"
   y1="99.074188"
   x2="278.98923"
   y2="107.97314"
   style="fill:none;stroke:#000000;stroke-width:0.34759411;stroke-miterlimit:2.41420007;stroke-dasharray:none"
   mask="none" />
   
<line
   id="Apollonia_line"
   stroke-miterlimit="2.4142"
   x1="220.66916"
   y1="87.857651"
   x2="219.45404"
   y2="80.663193"
   style="fill:none;stroke:#000000;stroke-width:0.34759411;stroke-miterlimit:2.41420007;stroke-dasharray:none"
   mask="none" />





<text
   x="332.33484"
   y="287.88556"
   id="Region_Egypt"
   style="font-size:6px;fill:#ff0000;font-family:Arial">EGYPT</text>









<text
   x="432.80872"
   y="285.70786"
   id="Region_Arabia"
   style="font-size:6px;fill:#ff0000;font-family:Arial">ARABIA</text>









<text
   x="437.4563"
   y="169.40616"
   id="Region_Syria"
   style="font-size:6px;fill:#ff0000;font-family:Arial">SYRIA</text>



<text
   x="-172.85902"
   y="467.68506"
   id="Region_Phoenicia"
   style="font-size:6px;fill:#ff0000;font-family:Arial"
   transform="matrix(0.15749508,-0.98751977,0.98751977,0.15749508,0,0)">PHOENICIA</text>

   


<text
   x="22.128103"
   y="504.49539"
   id="Region_Judea"
   style="font-size:6px;fill:#ff0000;font-family:Arial"
   transform="matrix(0.57386812,-0.81894773,0.81894773,0.57386812,0,0)">JUDEA</text>









<text
   x="371.45837"
   y="-57.881115"
   transform="matrix(0.86982776,0.50703453,-0.52153554,0.84564267,0,0)"
   id="Region_Pamphylia"
   style="font-size:6.09881687px;fill:#ff0000;font-family:Arial">PAMPHYLIA</text>









<text
   x="310.5499"
   y="155.34355"
   id="Region_Lycia"
   style="font-size:6px;fill:#ff0000;font-family:Arial">LYCIA</text>









<text
   x="392.45709"
   y="110.29436"
   id="Region_Cappadocia"
   style="font-size:6px;fill:#ff0000;font-family:Arial">CAPPADOCIA</text>









<text
   x="438.06479"
   y="81.212746"
   id="Region_Armenia"
   style="font-size:6px;fill:#ff0000;font-family:Arial">ARMENIA</text>









<text
   x="387.15219"
   y="85.715652"
   id="Region_Galatia"
   style="font-size:6px;fill:#ff0000;font-family:Arial">GALATIA</text>









<text
   x="353.52078"
   y="58.632183"
   id="Region_Pontus"
   style="font-size:6px;fill:#ff0000;font-family:Arial">PONTUS</text>









<text
   x="327.37042"
   y="75.202988"
   id="Region_Bithynia"
   style="font-size:6px;fill:#ff0000;font-family:Arial">BITHYNIA</text>









<text
   x="315.05469"
   y="107.06758"
   id="Region_Asia"
   style="font-size:6px;fill:#ff0000;font-family:Arial">ASIA</text>









<text
   x="248.31706"
   y="37.575981"
   id="Region_Thrace"
   style="font-size:6px;fill:#ff0000;font-family:Arial">THRACE</text>









<text
   x="187.1026"
   y="155.82404"
   id="Region_Achaia"
   style="font-size:6px;fill:#ff0000;font-family:Arial">Achaia</text>









<text
   x="150.19914"
   y="58.150848"
   id="Region_Macedonia"
   style="font-size:6px;fill:#ff0000;font-family:Arial">MACEDONIA</text>









<text
   x="178.86331"
   y="19.111572"
   id="Region_Illyricum"
   style="font-size:6px;fill:#ff0000;font-family:Arial">ILLYRICUM</text>









<text
   x="112.07143"
   y="16.760813"
   id="Region_Dalmatia"
   style="font-size:6px;fill:#ff0000;font-family:Arial">DALMATIA</text>









<text
   x="51.048183"
   y="144.19048"
   id="Region_Sicily"
   style="font-size:6px;fill:#ff0000;font-family:Arial">Sicily</text>









<text
   x="77.141411"
   y="74.040382"
   id="Region_Italy"
   style="font-size:6px;fill:#ff0000;font-family:Arial">ITALY</text>









<text
   x="301.4906"
   y="218.40253"
   id="Sea_Mediterranean"
   style="font-size:6px;fill:#ff0000;font-family:Arial">MEDITERRANEAN SEA</text>









<text
   x="316.27237"
   y="27.000708"
   id="Sea_BlackSea"
   style="font-size:6px;fill:#ff0000;font-family:Arial">BLACK SEA</text>









<text
   x="343.77496"
   y="132.63414"
   id="Region_Pisidia"
   style="font-size:6px;fill:#ff0000;font-family:Arial">PISIDIA</text>









<text
   x="214.19469"
   y="356.44937"
   transform="matrix(0.80932735,-0.59422457,0.61121919,0.78682444,0,0)"
   id="Region_Cilicia"
   style="font-size:6.09881687px;fill:#ff0000;font-family:Arial">CILICIA</text>









<text
   x="288.50784"
   y="181.74507"
   id="Island_Rhodes"
   style="font-size:6px;fill:#ff0000;font-family:Arial">Rhodes</text>






<text
   x="268.26178"
   y="163.52472"
   id="Island_Cos"
   style="font-size:6px;fill:#ff0000;font-family:Arial">Cos</text>




<text
   x="240.34125"
   y="148.86794"
   id="Island_Samos"
   style="font-size:6px;fill:#ff0000;font-family:Arial">Samos</text>









<text
   x="247.08543"
   y="158.26381"
   id="Island_Patmos"
   style="font-size:6px;fill:#ff0000;font-family:Arial">Patmos</text>









<text
   x="240.29233"
   y="127.61345"
   id="Island_Chios"
   style="font-size:6px;fill:#ff0000;font-family:Arial">Chios</text>









<text
   x="38.812138"
   y="183.68001"
   id="Island_Malta"
   style="font-size:6px;fill:#ff0000;font-family:Arial">Malta</text>









<text
   x="391.97757"
   y="196.35104"
   id="Island_Cyprus"
   style="font-size:6px;fill:#ff0000;font-family:Arial">Cyprus</text>









<text
   x="228.83116"
   y="183.78084"
   id="Island_Crete"
   style="font-size:6px;fill:#ff0000;font-family:Arial">Crete</text>









<text
   x="218.13551"
   y="201.11528"
   id="Island_Clauda"
   style="font-size:6px;fill:#ff0000;font-family:Arial">Clauda</text>









<text
   x="313.76987"
   y="272.61758"
   id="City_Alexandria"
   style="font-size:6px;fill:#ff0000;font-family:Arial">Alexandria</text>









<text
   x="407.22739"
   y="258.69614"
   id="City_Gaza"
   style="font-size:6px;fill:#ff0000;font-family:Arial">Gaza</text>









<text
   x="408.97781"
   y="243.02538"
   id="City_Joppa"
   style="font-size:6px;fill:#ff0000;font-family:Arial">Joppa</text>









<text
   x="401.02365"
   y="234.10722"
   id="City_Caesarea"
   style="font-size:6px;fill:#ff0000;font-family:Arial">Caesarea</text>









<text
   x="434.69403"
   y="222.99147"
   id="City_Ptolemais"
   style="font-size:6px;fill:#ff0000;font-family:Arial">Ptolemais</text>









<text
   x="455.09027"
   y="212.97577"
   id="City_Damascus"
   style="font-size:6px;fill:#ff0000;font-family:Arial">Damascus</text>









<text
   x="436.71603"
   y="214.50858"
   id="City_Tyre"
   style="font-size:6px;fill:#ff0000;font-family:Arial">Tyre</text>









<text
   x="438.90714"
   y="252.61124"
   id="City_Jerusalem"
   style="font-size:6px;fill:#ff0000;font-family:Arial">Jerusalem</text>









<text
   x="439.08856"
   y="207.32909"
   id="City_Sidon"
   style="font-size:6px;fill:#ff0000;font-family:Arial">Sidon</text>









<text
   x="365.72058"
   y="184.43959"
   id="City_Paphos"
   style="font-size:6px;fill:#ff0000;font-family:Arial">Paphos</text>









<text
   x="377.28293"
   y="174.63132"
   id="City_Salamis"
   style="font-size:6px;fill:#ff0000;font-family:Arial">Salamis</text>









<text
   x="437.85797"
   y="155.71747"
   id="City_Seleucia"
   style="font-size:6px;fill:#ff0000;font-family:Arial">Seleucia</text>









<text
   x="439.55872"
   y="146.27536"
   id="City_Antioch-A"
   style="font-size:6px;fill:#ff0000;font-family:Arial">Antioch</text>









<text
   x="400.82541"
   y="132.97293"
   id="City_Tarsus"
   style="font-size:6px;fill:#ff0000;font-family:Arial">Tarsus</text>









<text
   x="381.72574"
   y="135.95613"
   id="City_Derbe"
   style="font-size:6px;fill:#ff0000;font-family:Arial">Derbe</text>









<text
   x="375.13425"
   y="130.76389"
   id="City_Lystra"
   style="font-size:6px;fill:#ff0000;font-family:Arial">Lystra</text>









<text
   x="373.0249"
   y="124.12091"
   id="City_Iconium"
   style="font-size:6px;fill:#ff0000;font-family:Arial">Iconium</text>









<text
   x="350.35477"
   y="110.48698"
   id="City_Antioch-B"
   style="font-size:6px;fill:#ff0000;font-family:Arial">Antioch</text>









<text
   x="292.38226"
   y="140.19946"
   id="City_Laodicea"
   style="font-size:6px;fill:#ff0000;font-family:Arial">Laodicea</text>









<text
   x="319.64307"
   y="135.83804"
   id="City_Colossae"
   style="font-size:6px;fill:#ff0000;font-family:Arial">Colossae</text>









<text
   x="305.18442"
   y="126.47591"
   id="City_Philadelphia"
   style="font-size:6px;fill:#ff0000;font-family:Arial">Philadelphia</text>









<text
   x="298.00708"
   y="120.03527"
   id="City_Sardis"
   style="font-size:6px;fill:#ff0000;font-family:Arial">Sardis</text>









<text
   x="287.72449"
   y="111.80049"
   id="City_Thyatira"
   style="font-size:6px;fill:#ff0000;font-family:Arial">Thyatira</text>









<text
   x="288.14203"
   y="98.276817"
   id="City_Pergamum"
   style="font-size:6px;fill:#ff0000;font-family:Arial">Pergamum</text>









<text
   x="346.52069"
   y="151.51546"
   id="City_Perga"
   style="font-size:6px;fill:#ff0000;font-family:Arial">Perga</text>









<text
   x="321.01138"
   y="149.17474"
   id="City_Attalia"
   style="font-size:6px;fill:#ff0000;font-family:Arial">Attalia</text>









<text
   x="334.77191"
   y="163.39563"
   id="City_Myra"
   style="font-size:6px;fill:#ff0000;font-family:Arial">Myra</text>









<text
   x="310.79776"
   y="163.11931"
   id="City_Patara"
   style="font-size:6px;fill:#ff0000;font-family:Arial">Patara</text>









<text
   x="285.50638"
   y="158.92375"
   id="City_Cnidus"
   style="font-size:6px;fill:#ff0000;font-family:Arial">Cnidus</text>









<text
   x="285.0582"
   y="147.51669"
   id="City_Miletus"
   style="font-size:6px;fill:#ff0000;font-family:Arial">Miletus</text>









<text
   x="267.71997"
   y="130.63425"
   id="City_Ephesus"
   style="font-size:6px;fill:#ff0000;font-family:Arial">Ephesus</text>









<text
   x="269.57559"
   y="121.13741"
   id="City_Smyrna"
   style="font-size:6px;fill:#ff0000;font-family:Arial">Smyrna</text>









<text
   x="236.17067"
   y="114.37061"
   id="City_Mitylene"
   style="font-size:6px;fill:#ff0000;font-family:Arial">Mitylene</text>









<text
   x="242.69174"
   y="103.82388"
   id="City_Assos"
   style="font-size:6px;fill:#ff0000;font-family:Arial">Assos</text>









<text
   x="265.026"
   y="94.903053"
   id="City_Troas"
   style="font-size:6px;fill:#ff0000;font-family:Arial">Troas</text>









<text
   x="240.79361"
   y="68.060715"
   id="City_Neapolis"
   style="font-size:6px;fill:#ff0000;font-family:Arial">Neapolis</text>









<text
   x="221.87059"
   y="64.500526"
   id="City_Philippi"
   style="font-size:6px;fill:#ff0000;font-family:Arial">Philippi</text>









<text
   x="224.60675"
   y="82.318329"
   id="City_Amphipolis"
   style="font-size:6px;fill:#ff0000;font-family:Arial">Amphipolis</text>









<text
   x="218.58519"
   y="92.829834"
   id="City_Apollonia"
   style="font-size:6px;fill:#ff0000;font-family:Arial">Apollonia</text>









<text
   x="174.77933"
   y="73.973068"
   id="City_Thessalonica"
   style="font-size:6px;fill:#ff0000;font-family:Arial">Thessalonica</text>









<text
   x="178.86711"
   y="82.616409"
   id="City_Berea"
   style="font-size:6px;fill:#ff0000;font-family:Arial">Berea</text>









<text
   x="196.23561"
   y="132.26576"
   id="City_Athens"
   style="font-size:6px;fill:#ff0000;font-family:Arial">Athens</text>









<text
   x="184.03223"
   y="144.47893"
   id="City_Corinth"
   style="font-size:6px;fill:#ff0000;font-family:Arial">Corinth</text>









<text
   x="242.59354"
   y="190.67105"
   id="City_Salmone"
   style="font-size:6px;fill:#ff0000;font-family:Arial">Salmone</text>









<text
   x="247.22113"
   y="203.46426"
   id="City_Lasea"
   style="font-size:6px;fill:#ff0000;font-family:Arial">Lasea</text>









<text
   x="237.46272"
   y="215.20607"
   id="City_FairHavens"
   style="font-size:6px;fill:#ff0000;font-family:Arial">Fair Havens</text>









<text
   x="198.53851"
   y="193.86394"
   id="City_Phoenix"
   style="font-size:6px;fill:#ff0000;font-family:Arial">Phoenix</text>









<text
   x="141.849"
   y="117.89658"
   id="City_Nicopolis"
   style="font-size:6px;fill:#ff0000;font-family:Arial">Nicopolis</text>









<text
   x="77.729324"
   y="160.89825"
   id="City_Syracuse"
   style="font-size:6px;fill:#ff0000;font-family:Arial">Syracuse</text>









<text
   x="86.266449"
   y="139.2621"
   id="City_Rhegium"
   style="font-size:6px;fill:#ff0000;font-family:Arial">Rhegium</text>









<text
   x="38.328865"
   y="73.298958"
   id="City_Puteoli"
   style="font-size:6px;fill:#ff0000;font-family:Arial">Puteoli</text>









<text
   x="41.272835"
   y="49.939644"
   id="City_Rome"
   style="font-size:6px;fill:#ff0000;font-family:Arial">Rome</text>





































































































<rect
   width="346.20749"
   height="255.83304"
   x="145.75035"
   y="37.888348"
   id="Map_Border"
   style="fill:none;stroke:#000000;stroke-width:1.39037645;stroke-miterlimit:2.41420007;stroke-dasharray:none" />

<line
   id="Pergamum_line-4"
   stroke-miterlimit="2.4142"
   x1="314.1257"
   y1="130.71909"
   x2="307.83469"
   y2="136.16895"
   style="fill:none;stroke:#000000;stroke-width:0.34759411;stroke-miterlimit:2.41420007;stroke-dasharray:none;overflow:visible"
   mask="none" /></svg>