<?xml version="1.0" encoding="UTF-8" standalone="no"?>
<!-- Created with Inkscape (http://www.inkscape.org/) -->

<svg
   xmlns:dc="http://purl.org/dc/elements/1.1/"
   xmlns:cc="http://creativecommons.org/ns#"
   xmlns:rdf="http://www.w3.org/1999/02/22-rdf-syntax-ns#"
   xmlns:svg="http://www.w3.org/2000/svg"
   xmlns="http://www.w3.org/2000/svg"
   xmlns:xlink="http://www.w3.org/1999/xlink"
   xmlns:sodipodi="http://sodipodi.sourceforge.net/DTD/sodipodi-0.dtd"
   xmlns:inkscape="http://www.inkscape.org/namespaces/inkscape"
   version="1.0"
   width="500"
   height="370"
   viewBox="0 0 347.5941 255.17426"
   id="svg2"
   xml:space="preserve"
   style="overflow:visible"
   inkscape:version="0.47 r22583"
   sodipodi:docname="m08c-map.svg"><metadata
   id="metadata99"><rdf:RDF><cc:Work
       rdf:about=""><dc:format>image/svg+xml</dc:format><dc:type
         rdf:resource="http://purl.org/dc/dcmitype/StillImage" /><dc:title></dc:title></cc:Work></rdf:RDF></metadata><sodipodi:namedview
   pagecolor="#ffffff"
   bordercolor="#666666"
   borderopacity="1"
   objecttolerance="10"
   gridtolerance="10"
   guidetolerance="10"
   inkscape:pageopacity="0"
   inkscape:pageshadow="2"
   inkscape:window-width="1680"
   inkscape:window-height="1023"
   id="namedview97"
   showgrid="false"
   inkscape:zoom="2.1081081"
   inkscape:cx="250"
   inkscape:cy="185"
   inkscape:window-x="1280"
   inkscape:window-y="0"
   inkscape:window-maximized="1"
   inkscape:current-layer="svg2" /><defs
   id="defs422"><inkscape:perspective
     sodipodi:type="inkscape:persp3d"
     inkscape:vp_x="0 : 185 : 1"
     inkscape:vp_y="0 : 1000 : 0"
     inkscape:vp_z="500 : 185 : 1"
     inkscape:persp3d-origin="250 : 123.33333 : 1"
     id="perspective101" /></defs>
   



<image
   sodipodi:absref="/home/flip/Documents/m08c-bkgrnd-bw.png"
   xlink:href="m08c-bkgrnd-bw.png"
   id="image3322"
   height="257.21964"
   width="347.59412"
   y="-1.1752514"
   x="0.0037517578" />





   

   

   

   

   
<line
   id="Mytelene_line"
   stroke-miterlimit="2.4142"
   x1="119.49977"
   y1="71.360527"
   x2="116.41045"
   y2="73.571198"
   style="fill:none;stroke:#000000;stroke-width:0.35724351;stroke-miterlimit:2.41420007"
   mask="none" />
   

   






































<text
   x="308.29742"
   y="139.05093"
   id="Region_Syria"
   style="font-size:6px;fill:#ff0000;font-family:Arial">SYRIA</text>














<text
   x="-152.30228"
   y="328.98093"
   transform="matrix(0.15749508,-0.98751977,0.98751977,0.15749508,0,0)"
   id="Region_Phoenicia"
   style="font-size:6px;fill:#ff0000;font-family:Arial">PHOENICIA</text>












   


<text
   x="-29.689613"
   y="363.68222"
   transform="matrix(0.57386812,-0.81894773,0.81894773,0.57386812,0,0)"
   id="Region_Judea"
   style="font-size:6px;fill:#ff0000;font-family:Arial">JUDEA</text>




















































































<text
   x="242.09703"
   y="47.343464"
   id="Region_Galatia"
   style="font-size:6px;fill:#ff0000;font-family:Arial">GALATIA</text>




















































<text
   x="167.12813"
   y="61.877583"
   id="Region_Asia"
   style="font-size:6px;fill:#ff0000;font-family:Arial">ASIA</text>






























<text
   x="110.0689"
   y="43.304482"
   transform="matrix(0.67439566,0.73837016,-0.73837016,0.67439566,0,0)"
   id="Region_Achaia"
   style="font-size:6px;fill:#ff0000;font-family:Arial">Achaia</text>




















<text
   x="5.1439795"
   y="15.849655"
   id="Region_Macedonia"
   style="font-size:6px;fill:#ff0000;font-family:Arial">MACEDONIA</text>




























































<text
   x="153.23392"
   y="196.9527"
   id="Sea_Mediterranean"
   style="font-size:6px;fill:#ff0000;font-family:Arial">MEDITERRANEAN SEA</text>






























































<text
   x="143.45268"
   y="143.37289"
   id="Island_Rhodes"
   style="font-size:6px;fill:#ff0000;font-family:Arial">Rhodes</text>

















<text
   x="123.20662"
   y="125.15253"
   id="Island_Cos"
   style="font-size:6px;fill:#ff0000;font-family:Arial">Cos</text>















<text
   x="97.643486"
   y="112.26379"
   id="Island_Samos"
   style="font-size:6px;fill:#ff0000;font-family:Arial">Samos</text>































<text
   x="94.254913"
   y="84.526451"
   id="Island_Chios"
   style="font-size:6px;fill:#ff0000;font-family:Arial">Chios</text>






























<text
   x="111.70312"
   y="262.36996"
   transform="matrix(0.82298735,-0.5680597,0.5680597,0.82298735,0,0)"
   id="Island_Cyprus"
   style="font-size:6px;fill:#ff0000;font-family:Arial">Cyprus</text>














































































<text
   x="255.62547"
   y="190.36105"
   id="City_Caesarea"
   style="font-size:6px;fill:#ff0000;font-family:Arial">Caesarea</text>




















<text
   x="256.02283"
   y="181.30342"
   id="City_Ptolemais"
   style="font-size:6px;fill:#ff0000;font-family:Arial">Ptolemais</text>































<text
   x="272.33737"
   y="173.96393"
   id="City_Tyre"
   style="font-size:6px;fill:#ff0000;font-family:Arial">Tyre</text>




















<text
   x="298.88293"
   y="211.60924"
   id="City_Jerusalem"
   style="font-size:6px;fill:#ff0000;font-family:Arial">Jerusalem</text>






























































<text
   x="297.24771"
   y="107.4458"
   id="City_Antioch-A"
   style="font-size:6px;fill:#ff0000;font-family:Arial">Antioch</text>































<text
   x="212.31075"
   y="97.976837"
   id="City_Derbe"
   style="font-size:6px;fill:#ff0000;font-family:Arial">Derbe</text>
























































































































































<text
   x="170.65385"
   y="123.37197"
   id="City_Patara"
   style="font-size:6px;fill:#ff0000;font-family:Arial">Patara</text>































<text
   x="141.77109"
   y="110.51965"
   id="City_Miletus"
   style="font-size:6px;fill:#ff0000;font-family:Arial">Miletus</text>




















<text
   x="138.70215"
   y="100.38357"
   id="City_Ephesus"
   style="font-size:6px;fill:#ff0000;font-family:Arial">Ephesus</text>










































<text
   x="98.436966"
   y="62.593185"
   id="City_Assos"
   style="font-size:6px;fill:#ff0000;font-family:Arial">Assos</text>









<text
   x="88.356812"
   y="76.290367"
   id="City_Mitylene"
   style="font-size:6px;fill:#ff0000;font-family:Arial">Mitylene</text>















<text
   x="118.37008"
   y="52.18594"
   id="City_Troas"
   style="font-size:6px;fill:#ff0000;font-family:Arial">Troas</text>































<text
   x="66.796471"
   y="29.271542"
   id="City_Philippi"
   style="font-size:6px;fill:#ff0000;font-family:Arial">Philippi</text>










































<text
   x="29.724165"
   y="35.60088"
   id="City_Thessalonica"
   style="font-size:6px;fill:#ff0000;font-family:Arial">Thessalonica</text>




















<text
   x="35.202324"
   y="42.853844"
   id="City_Berea"
   style="font-size:6px;fill:#ff0000;font-family:Arial">Berea</text>































<text
   x="40.367439"
   y="105.69862"
   id="City_Corinth"
   style="font-size:6px;fill:#ff0000;font-family:Arial">Corinth</text>










































































































































































































<rect
   width="346.20749"
   height="255.83304"
   x="0.69518822"
   y="-0.48384136"
   id="Map_Border"
   style="fill:none;stroke:#000000;stroke-width:2.08556461;stroke-miterlimit:2.41420007;stroke-dasharray:none" />











<rect
   width="115.82113"
   height="24.174969"
   x="12.905137"
   y="224.20782"
   id="rect3027"
   style="fill:#ffffff;fill-opacity:1;stroke:#000000;stroke-width:0.69439477;stroke-miterlimit:4;stroke-opacity:1;stroke-dasharray:none;overflow:visible" />

<text
   x="69.376801"
   y="235.5477"
   id="Title-m08c_Main"
   style="font-size:10px;font-style:normal;font-variant:normal;font-weight:normal;font-stretch:normal;text-align:center;line-height:100%;writing-mode:lr-tb;text-anchor:middle;fill:#ff0000;fill-opacity:1;stroke:none;overflow:visible;font-family:Arial;-inkscape-font-specification:Arial"
   sodipodi:linespacing="100%">Paul’s Third Missionary Journey</text>









<text
   x="69.192459"
   y="244.58035"
   id="Ref-m08c_Title"
   style="font-size:9px;font-style:normal;font-variant:normal;font-weight:normal;font-stretch:normal;text-align:center;line-height:100%;writing-mode:lr-tb;text-anchor:middle;fill:#ff0000;fill-opacity:1;stroke:none;overflow:visible;font-family:Arial;-inkscape-font-specification:Arial"
   sodipodi:linespacing="100%">Acts 18:23–21:16</text>










<g
   transform="translate(-0.116784,11.040875)"
   id="g2976"
   style="overflow:visible"><g
     transform="matrix(0.57540967,0,0,0.6414587,-175.64325,-133.84114)"
     id="g2852"><rect
       width="29.139999"
       height="3.1889999"
       x="431.353"
       y="505.80399"
       id="rect2854"
       style="fill:#ffffff;fill-rule:evenodd;stroke:#000000;stroke-width:0.2579;stroke-miterlimit:2.41420007" /><line
       id="line2856"
       stroke-miterlimit="2.4142"
       x1="431.353"
       y1="507.39801"
       x2="460.49301"
       y2="507.39801"
       style="fill:#ffffff;fill-rule:evenodd;stroke:#000000;stroke-width:1.18560004;stroke-miterlimit:2.41420007" /></g><rect
     width="16.767437"
     height="2.0456116"
     x="55.794006"
     y="190.61122"
     id="rect2858"
     style="fill:#ffffff;fill-rule:evenodd;stroke:#000000;stroke-width:0.15710914;stroke-miterlimit:2.41420007" /><g
     transform="matrix(0.57540967,0,0,0.6414587,-175.64325,-133.84114)"
     id="g2860"><rect
       width="29.141001"
       height="3.1889999"
       x="373.073"
       y="505.80399"
       id="rect2862"
       style="fill:#ffffff;fill-rule:evenodd;stroke:#000000;stroke-width:0.2579;stroke-miterlimit:2.41420007" /><line
       id="line2864"
       stroke-miterlimit="2.4142"
       x1="373.181"
       y1="507.39801"
       x2="402.32101"
       y2="507.39801"
       style="fill:#ffffff;fill-rule:evenodd;stroke:#000000;stroke-width:1.18560004;stroke-miterlimit:2.41420007" /></g></g><g
   transform="translate(2.4054575,13.821634)"
   id="g2959"
   style="overflow:visible"><g
     transform="matrix(0.69804323,0,0,0.6414587,-229.30614,-153.28308)"
     id="Right_Center"><rect
       width="29.139999"
       height="3.1889999"
       x="431.353"
       y="505.80399"
       id="Outside_2_"
       style="fill:#ffffff;fill-rule:evenodd;stroke:#000000;stroke-width:0.2579;stroke-miterlimit:2.41420007" /><line
       id="Inside_1_"
       stroke-miterlimit="2.4142"
       x1="431.353"
       y1="507.39801"
       x2="460.49301"
       y2="507.39801"
       style="fill:#ffffff;fill-rule:evenodd;stroke:#000000;stroke-width:1.18560004;stroke-miterlimit:2.41420007" /></g><rect
     width="20.340979"
     height="2.0456116"
     x="51.455929"
     y="171.16928"
     id="Left_Center"
     style="fill:#ffffff;fill-rule:evenodd;stroke:#000000;stroke-width:0.173043;stroke-miterlimit:2.41420007" /><g
     transform="matrix(0.69804323,0,0,0.6414587,-229.30614,-153.28308)"
     id="Far_Left"><rect
       width="29.141001"
       height="3.1889999"
       x="373.073"
       y="505.80399"
       id="Outside"
       style="fill:#ffffff;fill-rule:evenodd;stroke:#000000;stroke-width:0.2579;stroke-miterlimit:2.41420007" /><line
       id="Inside"
       stroke-miterlimit="2.4142"
       x1="373.181"
       y1="507.39801"
       x2="402.32101"
       y2="507.39801"
       style="fill:#ffffff;fill-rule:evenodd;stroke:#000000;stroke-width:1.18560004;stroke-miterlimit:2.41420007" /></g></g><text
   x="32.07962"
   y="183.0569"
   id="Scale_K_Number_A"
   style="font-size:4.57411242px;fill:#ff0000;overflow:visible;font-family:Arial-Bold">0</text>








<text
   x="49.356823"
   y="183.0569"
   id="Scale_K_Number_B"
   style="font-size:4.57411242px;fill:#ff0000;overflow:visible;font-family:Arial-Bold">100</text>








<text
   x="69.731979"
   y="183.0569"
   id="Scale_K_Number_C"
   style="font-size:4.57411242px;fill:#ff0000;overflow:visible;font-family:Arial-Bold">200</text>








<text
   x="90.205467"
   y="183.0569"
   id="Scale_K_Number_D"
   style="font-size:4.57411242px;fill:#ff0000;overflow:visible;font-family:Arial-Bold">300</text>








<text
   x="51.827156"
   y="191.99678"
   id="Scale_K_DistanceKey"
   style="font-size:4.57411242px;fill:#ff0000;overflow:visible;font-family:Arial-Bold">Kilometers</text>




<path
   d="m 86.904662,11.321753 c 0,0 2.108407,1.592955 2.85328,2.697987 0.744874,1.105033 1.615967,3.932208 1.615967,3.932208 l 0,0"
   id="path3702"
   style="fill:none;stroke:#ffffff;stroke-width:0.69518822;stroke-linecap:butt;stroke-linejoin:miter;stroke-miterlimit:4;stroke-opacity:1;stroke-dasharray:none" />



<text
   x="37.383743"
   y="199.8252"
   id="Scale_M_Number_A"
   style="font-size:4.57411242px;fill:#ff0000;overflow:visible;font-family:Arial-Bold">0</text>








<text
   x="52.67358"
   y="199.8252"
   id="Scale_M_Number_B"
   style="font-size:4.57411242px;fill:#ff0000;overflow:visible;font-family:Arial-Bold">50</text>








<text
   x="67.874504"
   y="199.8252"
   id="Scale_M_Number_C"
   style="font-size:4.57411242px;fill:#ff0000;overflow:visible;font-family:Arial-Bold">100</text>








<text
   x="84.613464"
   y="199.8252"
   id="Scale_M_Number_D"
   style="font-size:4.57411242px;fill:#ff0000;overflow:visible;font-family:Arial-Bold">150</text>








<text
   x="58.232365"
   y="208.57555"
   id="Scale_M_DistanceKey"
   style="font-size:4.57411242px;fill:#ff0000;overflow:visible;font-family:Arial-Bold">Miles</text>









   
<text
   x="218.91692"
   y="-45.611259"
   transform="matrix(0.86807054,0.49644087,-0.49644087,0.86807054,0,0)"
   id="Region_Phrygia"
   style="font-size:6.09881687px;fill:#ff0000;overflow:visible;font-family:Arial">PHRYGIA</text>





<circle
   cx="621.10699"
   cy="412.50299"
   r="1.556"
   transform="matrix(1.8764721,0,0,1.8764721,-1047.2622,-713.48943)"
   id="Jerusalem-9"
   style="fill-rule:evenodd;stroke:#ffffff;stroke-width:0.51866663;stroke-miterlimit:4;stroke-opacity:1;stroke-dasharray:none;overflow:visible" /><circle
   cx="621.10699"
   cy="412.50299"
   r="1.556"
   transform="matrix(1.8764721,0,0,1.8764721,-1050.235,-723.094)"
   id="Jerusalem-9-9"
   style="fill-rule:evenodd;stroke:#ffffff;stroke-width:0.51866663;stroke-miterlimit:4;stroke-opacity:1;stroke-dasharray:none;overflow:visible" /><circle
   cx="621.10699"
   cy="412.50299"
   r="1.556"
   transform="matrix(1.8764721,0,0,1.8764721,-1029.0821,-680.1021)"
   id="Jerusalem-9-7"
   style="fill-rule:evenodd;stroke:#ffffff;stroke-width:0.51866663;stroke-miterlimit:4;stroke-opacity:1;stroke-dasharray:none;overflow:visible" /><circle
   cx="621.10699"
   cy="412.50299"
   r="1.556"
   transform="matrix(1.8764721,0,0,1.8764721,-1028.5103,-664.66618)"
   id="Jerusalem-9-76"
   style="fill-rule:evenodd;stroke:#ffffff;stroke-width:0.51866663;stroke-miterlimit:4;stroke-opacity:1;stroke-dasharray:none;overflow:visible" /><circle
   cx="621.10699"
   cy="412.50299"
   r="1.556"
   transform="matrix(1.8764721,0,0,1.8764721,-1103.5175,-674.61378)"
   id="Jerusalem-9-2"
   style="fill-rule:evenodd;stroke:#ffffff;stroke-width:0.51866663;stroke-miterlimit:4;stroke-opacity:1;stroke-dasharray:none;overflow:visible" /><circle
   cx="621.10699"
   cy="412.50299"
   r="1.556"
   transform="matrix(1.8764721,0,0,1.8764721,-1110.4923,-732.81292)"
   id="Jerusalem-9-5"
   style="fill-rule:evenodd;stroke:#ffffff;stroke-width:0.51866663;stroke-miterlimit:4;stroke-opacity:1;stroke-dasharray:none;overflow:visible" /><circle
   cx="621.10699"
   cy="412.50299"
   r="1.556"
   transform="matrix(1.8764721,0,0,1.8764721,-1099.287,-736.24312)"
   id="Jerusalem-9-0"
   style="fill-rule:evenodd;stroke:#ffffff;stroke-width:0.51866663;stroke-miterlimit:4;stroke-opacity:1;stroke-dasharray:none;overflow:visible" /><circle
   cx="621.10699"
   cy="412.50299"
   r="1.556"
   transform="matrix(1.8764721,0,0,1.8764721,-1074.1322,-745.27599)"
   id="Jerusalem-9-6"
   style="fill-rule:evenodd;stroke:#ffffff;stroke-width:0.51866663;stroke-miterlimit:4;stroke-opacity:1;stroke-dasharray:none;overflow:visible" /><circle
   cx="621.10699"
   cy="412.50299"
   r="1.556"
   transform="matrix(1.8764721,0,0,1.8764721,-1011.9311,-647.28648)"
   id="Jerusalem-9-25"
   style="fill-rule:evenodd;stroke:#ffffff;stroke-width:0.51866663;stroke-miterlimit:4;stroke-opacity:1;stroke-dasharray:none;overflow:visible" /><circle
   cx="621.10699"
   cy="412.50299"
   r="1.556"
   transform="matrix(1.8764721,0,0,1.8764721,-992.95063,-646.82912)"
   id="Jerusalem-9-27"
   style="fill-rule:evenodd;stroke:#ffffff;stroke-width:0.51866663;stroke-miterlimit:4;stroke-opacity:1;stroke-dasharray:none;overflow:visible" /><circle
   cx="621.10699"
   cy="412.50299"
   r="1.556"
   transform="matrix(1.8764721,0,0,1.8764721,-933.37941,-677.2436)"
   id="Jerusalem-9-98"
   style="fill-rule:evenodd;stroke:#ffffff;stroke-width:0.51866663;stroke-miterlimit:4;stroke-opacity:1;stroke-dasharray:none;overflow:visible" /><circle
   cx="621.10699"
   cy="412.50299"
   r="1.556"
   transform="matrix(1.8764721,0,0,1.8764721,-872.77913,-668.21072)"
   id="Jerusalem-9-96"
   style="fill-rule:evenodd;stroke:#ffffff;stroke-width:0.51866663;stroke-miterlimit:4;stroke-opacity:1;stroke-dasharray:none;overflow:visible" /><circle
   cx="621.10699"
   cy="412.50299"
   r="1.556"
   transform="matrix(1.8764721,0,0,1.8764721,-876.20933,-602.46513)"
   id="Jerusalem-9-71"
   style="fill-rule:evenodd;stroke:#ffffff;stroke-width:0.51866663;stroke-miterlimit:4;stroke-opacity:1;stroke-dasharray:none;overflow:visible" /><circle
   cx="621.10699"
   cy="412.50299"
   r="1.556"
   transform="matrix(1.8764721,0,0,1.8764721,-878.15311,-594.80434)"
   id="Jerusalem-9-99"
   style="fill-rule:evenodd;stroke:#ffffff;stroke-width:0.51866663;stroke-miterlimit:4;stroke-opacity:1;stroke-dasharray:none;overflow:visible" /><circle
   cx="621.10699"
   cy="412.50299"
   r="1.556"
   transform="matrix(1.8764721,0,0,1.8764721,-879.29651,-586.00014)"
   id="Jerusalem-9-68"
   style="fill-rule:evenodd;stroke:#ffffff;stroke-width:0.51866663;stroke-miterlimit:4;stroke-opacity:1;stroke-dasharray:none;overflow:visible" /><circle
   cx="621.10699"
   cy="412.50299"
   r="1.556"
   transform="matrix(1.8764721,0,0,1.8764721,-871.06402,-564.16117)"
   id="Jerusalem-9-04"
   style="fill-rule:evenodd;stroke:#ffffff;stroke-width:0.51866663;stroke-miterlimit:4;stroke-opacity:1;stroke-dasharray:none;overflow:visible" /><circle
   cx="621.10699"
   cy="412.50299"
   r="1.556"
   transform="matrix(1.8764721,0,0,1.8764721,-1045.8902,-701.94107)"
   id="Jerusalem-9-1"
   style="fill-rule:evenodd;stroke:#ffffff;stroke-width:0.51866663;stroke-miterlimit:4;stroke-opacity:1;stroke-dasharray:none;overflow:visible" />

<path
   d="m 89.4094,9.7010389 c 0,0 1.666394,1.4456181 2.951505,3.4346761 1.285111,1.989058 1.738748,4.153213 1.738748,4.153213"
   id="path3702-1"
   style="fill:none;stroke:#ffffff;stroke-width:0.9732635;stroke-linecap:butt;stroke-linejoin:miter;stroke-miterlimit:4;stroke-opacity:1;stroke-dasharray:none;overflow:visible" /><path
   d="m 1277.1689,37.974942 -28.1973,7.726412 7.4074,-28.282831 20.7899,20.556419 z"
   transform="matrix(0.18302637,0.02565638,-0.02107987,0.18366145,-53.65713,35.741598)"
   id="path3714-2"
   style="fill:#000000;fill-opacity:1;fill-rule:evenodd;stroke:#000000;stroke-width:0.37615833;stroke-linecap:round;stroke-linejoin:round;stroke-miterlimit:4;stroke-opacity:1;stroke-dasharray:none;stroke-dashoffset:1.34999996;overflow:visible" /><path
   d="m 1277.1689,37.974942 -28.1973,7.726412 7.4074,-28.282831 20.7899,20.556419 z"
   transform="matrix(0.07710798,0.16796208,-0.16602859,0.08130433,171.36055,-133.55105)"
   id="path3714-9"
   style="fill:#000000;fill-opacity:1;fill-rule:evenodd;stroke:#000000;stroke-width:0.37615833;stroke-linecap:round;stroke-linejoin:round;stroke-miterlimit:4;stroke-opacity:1;stroke-dasharray:none;stroke-dashoffset:1.34999996;overflow:visible" /><path
   d="m 1277.1689,37.974942 -28.1973,7.726412 7.4074,-28.282831 20.7899,20.556419 z"
   transform="matrix(-0.13594484,0.12520345,-0.12859771,-0.13281008,311.175,-92.760366)"
   id="path3714-7"
   style="fill:#000000;fill-opacity:1;fill-rule:evenodd;stroke:#000000;stroke-width:0.37615833;stroke-linecap:round;stroke-linejoin:round;stroke-miterlimit:4;stroke-opacity:1;stroke-dasharray:none;stroke-dashoffset:1.34999996;overflow:visible" /><path
   d="m 1277.1689,37.974942 -28.1973,7.726412 7.4074,-28.282831 20.7899,20.556419 z"
   transform="matrix(-0.11070218,-0.147993,0.14522035,-0.11439815,241.269,239.84132)"
   id="path3714-8"
   style="fill:#000000;fill-opacity:1;fill-rule:evenodd;stroke:#000000;stroke-width:0.37615833;stroke-linecap:round;stroke-linejoin:round;stroke-miterlimit:4;stroke-opacity:1;stroke-dasharray:none;stroke-dashoffset:1.34999996;overflow:visible" /><path
   d="m 1277.1689,37.974942 -28.1973,7.726412 7.4074,-28.282831 20.7899,20.556419 z"
   transform="matrix(0.18006809,0.04162194,-0.03711883,0.1811024,-153.88352,-40.956195)"
   id="path3714-6"
   style="fill:#000000;fill-opacity:1;fill-rule:evenodd;stroke:#000000;stroke-width:0.37615833;stroke-linecap:round;stroke-linejoin:round;stroke-miterlimit:4;stroke-opacity:1;stroke-dasharray:none;stroke-dashoffset:1.34999996;overflow:visible" /><path
   d="m 1277.1689,37.974942 -28.1973,7.726412 7.4074,-28.282831 20.7899,20.556419 z"
   transform="matrix(-0.15482965,-0.10091919,0.09704499,-0.15734725,254.22315,141.7311)"
   id="path3714-64"
   style="fill:#000000;fill-opacity:1;fill-rule:evenodd;stroke:#000000;stroke-width:0.37615833;stroke-linecap:round;stroke-linejoin:round;stroke-miterlimit:4;stroke-opacity:1;stroke-dasharray:none;stroke-dashoffset:1.34999996;overflow:visible" /><path
   d="m 1277.1689,37.974942 -28.1973,7.726412 7.4074,-28.282831 20.7899,20.556419 z"
   transform="matrix(-0.05551991,0.17627944,-0.17766134,-0.05111103,117.28069,-151.34171)"
   id="path3714-5"
   style="fill:#000000;fill-opacity:1;fill-rule:evenodd;stroke:#000000;stroke-width:0.37615833;stroke-linecap:round;stroke-linejoin:round;stroke-miterlimit:4;stroke-opacity:1;stroke-dasharray:none;stroke-dashoffset:1.34999996;overflow:visible" /><path
   d="m 1277.1689,37.974942 -28.1973,7.726412 7.4074,-28.282831 20.7899,20.556419 z"
   transform="matrix(0.00202938,-0.18480472,0.18484906,-0.00259077,67.74712,303.33476)"
   id="path3714-4"
   style="fill:#000000;fill-opacity:1;fill-rule:evenodd;stroke:#000000;stroke-width:0.37615833;stroke-linecap:round;stroke-linejoin:round;stroke-miterlimit:4;stroke-opacity:1;stroke-dasharray:none;stroke-dashoffset:1.34999996;overflow:visible" /><path
   d="m 1277.1689,37.974942 -28.1973,7.726412 7.4074,-28.282831 20.7899,20.556419 z"
   transform="matrix(0.09701196,-0.15730729,0.15972713,0.09307595,-11.3027,283.92177)"
   id="path3714-89"
   style="fill:#000000;fill-opacity:1;fill-rule:evenodd;stroke:#000000;stroke-width:0.37615833;stroke-linecap:round;stroke-linejoin:round;stroke-miterlimit:4;stroke-opacity:1;stroke-dasharray:none;stroke-dashoffset:1.34999996;overflow:visible" /><path
   d="m 1277.1689,37.974942 -28.1973,7.726412 7.4074,-28.282831 20.7899,20.556419 z"
   transform="matrix(-0.04529282,-0.17917997,0.17804147,-0.04977072,245.40032,372.46048)"
   id="path3714-45"
   style="fill:#000000;fill-opacity:1;fill-rule:evenodd;stroke:#000000;stroke-width:0.37615833;stroke-linecap:round;stroke-linejoin:round;stroke-miterlimit:4;stroke-opacity:1;stroke-dasharray:none;stroke-dashoffset:1.34999996;overflow:visible" /><path
   d="m 1277.1689,37.974942 -28.1973,7.726412 7.4074,-28.282831 20.7899,20.556419 z"
   transform="matrix(-0.10990819,-0.14858362,0.1458308,-0.11361895,384.9254,355.97979)"
   id="path3714-1"
   style="fill:#000000;fill-opacity:1;fill-rule:evenodd;stroke:#000000;stroke-width:0.37615833;stroke-linecap:round;stroke-linejoin:round;stroke-miterlimit:4;stroke-opacity:1;stroke-dasharray:none;stroke-dashoffset:1.34999996;overflow:visible" /><path
   d="M 292.67405,105.64712 C 305.8255,80.971503 278.78847,83.674875 263.60754,81.411546 247.60824,74.444563 245.92478,73.439212 234.83743,68.427456 182.44578,44.8695 182.51841,85.906667 136.27328,93.47893 130.84121,90.030644 137.73119,57.553148 134.61858,42.585538 131.49943,27.586497 112.72676,22.589123 110.91725,20.845362 79.30261,1.4666215 46.38949,23.750527 64.04893,57.771695 L 86.5612,80.668647 c 0,0 15.57386,11.806379 14.00733,20.740073 -0.70938,9.28776 -21.63429,18.23825 -39.42047,-3.433158 C 28.65319,59.48436 11.41094,13.394834 76.89333,6.8659201 c 15.1981,1.213214 18.78372,11.4749829 14.36424,22.5819779 0.2019,16.75158 0.27068,18.521888 23.92946,20.943105 3.27522,2.50396 1.61162,1.834579 2.82412,10.110954 0.33499,2.286541 1.49752,9.299605 1.44265,11.837792 -0.0891,4.122002 -4.45312,6.706507 -4.81022,12.339453 2.32866,3.683907 3.24291,10.438802 3.39902,18.489058 0.0664,3.42485 18.8582,3.04583 18.7508,6.54973 -0.38172,12.45403 15.08035,16.1456 16.84472,17.09808 4.88719,3.10114 15.61866,-1.17854 18.8874,0.68628 15.32598,14.94247 37.65785,29.96939 69.80255,36.51521 20.93349,3.44818 42.14313,-3.43138 46.71979,8.18601 0.44763,1.13626 -2.8031,0.61747 -2.06992,7.17135 0.39541,3.53459 -2.11102,4.0274 -1.03245,8.61919 1.9279,8.20759 7.78059,20.47627 8.56432,22.33878"
   id="path2950"
   style="fill:none;stroke:#000000;stroke-width:1.04278231;stroke-linecap:butt;stroke-linejoin:miter;stroke-miterlimit:4;stroke-opacity:1;stroke-dasharray:6.25, 2.1;stroke-dashoffset:0.93850404;overflow:visible" /></svg>