<?xml version="1.0" encoding="UTF-8" standalone="no"?>
<!-- Created with Inkscape (http://www.inkscape.org/) -->

<svg
   xmlns:dc="http://purl.org/dc/elements/1.1/"
   xmlns:cc="http://creativecommons.org/ns#"
   xmlns:rdf="http://www.w3.org/1999/02/22-rdf-syntax-ns#"
   xmlns:svg="http://www.w3.org/2000/svg"
   xmlns="http://www.w3.org/2000/svg"
   xmlns:xlink="http://www.w3.org/1999/xlink"
   xmlns:sodipodi="http://sodipodi.sourceforge.net/DTD/sodipodi-0.dtd"
   xmlns:inkscape="http://www.inkscape.org/namespaces/inkscape"
   version="1.0"
   width="500"
   height="370"
   viewBox="0 0 347.5941 255.17426"
   id="svg2"
   xml:space="preserve"
   style="overflow:visible"
   inkscape:version="0.47 r22583"
   sodipodi:docname="m08c-map.svg"><metadata
   id="metadata423"><rdf:RDF><cc:Work
       rdf:about=""><dc:format>image/svg+xml</dc:format><dc:type
         rdf:resource="http://purl.org/dc/dcmitype/StillImage" /></cc:Work></rdf:RDF></metadata><sodipodi:namedview
   pagecolor="#ffffff"
   bordercolor="#666666"
   borderopacity="1"
   objecttolerance="10"
   gridtolerance="10"
   guidetolerance="10"
   inkscape:pageopacity="0"
   inkscape:pageshadow="2"
   inkscape:window-width="1440"
   inkscape:window-height="877"
   id="namedview421"
   showgrid="false"
   inkscape:zoom="2.6105106"
   inkscape:cx="234.54264"
   inkscape:cy="136.49337"
   inkscape:window-x="1440"
   inkscape:window-y="0"
   inkscape:window-maximized="1"
   inkscape:current-layer="svg2" /><defs
   id="defs422"><inkscape:perspective
     sodipodi:type="inkscape:persp3d"
     inkscape:vp_x="0 : 212.59842 : 1"
     inkscape:vp_y="0 : 1000 : 0"
     inkscape:vp_z="708.66138 : 212.59842 : 1"
     inkscape:persp3d-origin="354.33069 : 141.73228 : 1"
     id="perspective425" /><inkscape:perspective
     id="perspective3320"
     inkscape:persp3d-origin="0.5 : 0.33333333 : 1"
     inkscape:vp_z="1 : 0.5 : 1"
     inkscape:vp_y="0 : 1000 : 0"
     inkscape:vp_x="0 : 0.5 : 1"
     sodipodi:type="inkscape:persp3d" /></defs>
   



<image
   y="-1.1752514"
   x="0.0037514567"
   id="image3322"
   height="257.21964"
   width="347.59412"
   xlink:href="file:///home/dennis/Projects/ptxplus/resources/lib_maps/m08c-bkgrnd-bw.png" />



<polygon
   points="628.693,244.334 628.557,246.907 627.906,245.152 627.077,246.828 627.211,244.256 628.042,242.585 628.042,242.585 "
   transform="matrix(0.69804323,0,0,0.6414587,-144.51979,-65.168033)"
   id="polygon226"
   style="fill:#e21f26;fill-rule:evenodd" /><polygon
   points="516.266,223.384 518.178,225.108 516.408,224.509 517.186,226.21 515.274,224.484 514.5,222.787 514.5,222.787 "
   transform="matrix(0.69804323,0,0,0.6414587,-144.51979,-65.168033)"
   id="polygon228"
   style="fill:#e21f26;fill-rule:evenodd" /><polygon
   points="466.127,224.253 468.213,222.743 467.257,224.351 469.083,223.944 466.997,225.454 465.175,225.857 465.175,225.857 "
   transform="matrix(0.69804323,0,0,0.6414587,-144.51979,-65.168033)"
   id="polygon230"
   style="fill:#e21f26;fill-rule:evenodd" /><polygon
   points="370.689,173.393 369.375,172.255 370.333,174.414 371.641,175.543 371.641,175.543 371.686,173.814 370.73,171.655 "
   transform="matrix(0.69804323,0,0,0.6414587,-140.78323,-69.885433)"
   id="polygon232"
   style="fill:#e21f26;fill-rule:evenodd" /><polygon
   points="379.317,223.402 377.701,224.041 379.32,222.321 380.93,221.69 380.93,221.69 380.398,223.337 378.78,225.056 "
   transform="matrix(0.69804323,0,0,0.6414587,-144.05272,-65.658455)"
   id="polygon234"
   style="fill:#e21f26;fill-rule:evenodd" /><polygon
   points="478.029,322.395 476.987,320.842 479.152,322.236 480.19,323.786 480.19,323.786 478.35,323.482 476.184,322.089 "
   transform="matrix(0.69804323,0,0,0.6414587,-143.19871,-63.186425)"
   id="polygon236"
   style="fill:#e21f26;fill-rule:evenodd" /><polygon
   points="576.418,363.68 578.917,364.3 580.757,363.993 580.757,363.993 579.274,362.861 576.775,362.24 578.262,363.374 "
   transform="matrix(0.69310344,0.09121554,-0.07718611,0.66203156,-113.61732,-125.38654)"
   id="polygon238"
   style="fill:#e21f26;fill-rule:evenodd" /><polygon
   points="305.747,240.781 303.445,239.626 305.313,239.733 304.111,238.301 306.412,239.457 307.609,240.888 307.609,240.888 "
   transform="matrix(0.69804323,0,0,0.6414587,-144.51979,-65.168033)"
   id="polygon240"
   style="fill:#e21f26;fill-rule:evenodd" /><polygon
   points="286.957,230.513 288.75,232.05 288.039,230.463 289.714,230.925 287.921,229.388 286.253,228.933 286.253,228.933 "
   transform="matrix(0.69804323,0,0,0.6414587,-144.51979,-65.168033)"
   id="polygon242"
   style="fill:#e21f26;fill-rule:evenodd" /><polygon
   points="294.898,206.747 293.608,204.769 295.088,205.682 294.849,203.96 296.139,205.938 296.373,207.651 296.373,207.651 "
   transform="matrix(0.69804323,0,0,0.6414587,-144.51979,-65.168033)"
   id="polygon244"
   style="fill:#e21f26;fill-rule:evenodd" /><polygon
   points="568.51,258.415 570.08,256.373 569.621,258.187 571.254,257.277 569.686,259.318 568.055,260.225 568.055,260.225 "
   transform="matrix(0.69804323,0,0,0.6414587,-144.51979,-65.168033)"
   id="polygon246"
   style="fill:#e21f26;fill-rule:evenodd" /><polygon
   points="421.456,248.872 423.952,248.239 422.106,247.942 423.587,246.802 421.091,247.436 419.614,248.574 419.614,248.574 "
   transform="matrix(0.69804323,0,0,0.6414587,-144.51979,-65.168033)"
   id="polygon248"
   style="fill:#e21f26;fill-rule:evenodd" /><polygon
   points="307.378,167.341 305.689,167.756 306.445,166.19 304.611,167.678 303.862,169.237 303.862,169.237 305.543,168.828 "
   transform="matrix(0.71132734,0,0,0.64912311,-149.30363,-71.953199)"
   id="polygon250"
   style="fill:#e21f26;fill-rule:evenodd" /><polygon
   points="286.775,190.444 285.416,189.361 285.447,191.099 284.404,188.98 284.377,187.251 284.377,187.251 285.732,188.326 "
   transform="matrix(0.69804323,0,0,0.6414587,-145.2671,-70.586037)"
   id="polygon252"
   style="fill:#e21f26;fill-rule:evenodd" /><polygon
   points="377.499,248.906 377.012,250.712 376.032,249.12 376.403,251.669 377.382,253.256 377.382,253.256 377.87,251.455 "
   transform="matrix(0.69804323,0,0,0.6414587,-143.29779,-65.20106)"
   id="polygon254"
   style="fill:#e21f26;fill-rule:evenodd" /><polygon
   points="354.512,160.474 353.122,159.431 354.811,159.022 352.498,158.547 350.818,158.956 350.818,158.956 352.2,159.997 "
   transform="matrix(0.69804323,0,0,0.6414587,-137.65387,-69.978847)"
   id="polygon256"
   style="fill:#e21f26;fill-rule:evenodd" /><polygon
   points="318.574,154.686 316.914,155.196 318.66,153.607 320.314,153.103 320.314,153.103 319.657,154.702 317.91,156.292 "
   transform="matrix(0.69804323,0,0,0.6414587,-137.32692,-69.955493)"
   id="polygon258"
   style="fill:#e21f26;fill-rule:evenodd" /><path
   d="m 291.28665,211.31499 c -3.8888,-3.80448 -3.34467,-19.42794 -7.0392,-20.47277 -1.40937,-0.62772 -6.91628,-7.78498 -1.03247,-9.55444 -2.51086,-1.79057 0.34421,-5.78869 2.7985,-7.09654 -8.85661,1.35382 -18.99412,-3.22487 -26.92953,-6.28096"
   id="path260"
   style="fill:none;stroke:#e21f26;stroke-width:1.0037967;stroke-miterlimit:2.41420007" /><path
   d="m 190.70713,143.78915 c 21.32731,12.61429 57.8246,19.66944 64.178,22.91291"
   id="path266"
   style="fill:none;stroke:#e21f26;stroke-width:1.00379658;stroke-miterlimit:2.41420007" /><polygon
   points="570.63,363.241 576.516,362.951 571.274,360.26 570.63,363.241 "
   transform="matrix(0.69516265,0.06335018,-0.05821491,0.63881162,-121.18078,-100.71154)"
   id="polygon268"
   style="fill:#e21f26" /><path
   d="m 187.33179,141.61495 c -5.21648,-3.08285 -15.80184,-7.04245 -16.4594,-13.93685 -7.07885,4.99632 -5.80008,-8.34963 -16.59182,-2.01523 -2.32519,-1.93913 -19.63514,4.09738 -15.62491,-2.87837 -2.06803,-1.09626 3.27441,-2.82788 0.60781,-4.26515 -0.60614,-0.32671 -3.13756,-0.69765 -3.69167,-1.16174 -2.25177,-1.886 -4.6904,-8.66585 2.25476,-13.04605 -1.89658,1.5209 -5.47305,1.85267 -4.79665,-1.01914 -5.1732,3.89686 -6.16829,0.50313 -8.76781,0.19523 -2.36078,-0.28032 -3.75055,-3.926969 -4.29712,-7.385079"
   id="path274"
   style="fill:none;stroke:#e21f26;stroke-width:1.00379658;stroke-miterlimit:2.41420007" /><polygon
   points="471.206,319.824 476.817,321.62 472.855,317.259 471.206,319.824 "
   transform="matrix(0.69780644,0.01818029,-0.01670656,0.6412411,-137.39081,-71.599841)"
   id="polygon276"
   style="fill:#e21f26" /><path
   d="m 69.080767,88.841761 c 5.81189,3.666 6.1545,5.75511 4.97822,10.38509 0.12424,-2.69673 -12.08155,-5.37651 -14.43606,-0.27307"
   id="path278"
   style="fill:none;stroke:#e21f26;stroke-width:1.0037967;stroke-miterlimit:2.41420007" /><g
   transform="matrix(0.69804323,0,0,0.6414587,-144.51979,-65.168033)"
   id="g280">

<g
   id="g282">
	<path
   d="m 300.386,237.598 c -3.825,-1.643 -4.88,-1.228 -8.065,-3.726"
   id="path284"
   style="fill:none;stroke:#e21f26;stroke-width:1.50010002;stroke-miterlimit:2.41420007" />
	<polygon
   points="288.65,231.016 292.187,235.729 294.069,233.329 294.069,233.329 "
   id="polygon286"
   style="fill:#e21f26" />
	<polygon
   points="304.667,239.416 300.04,235.769 298.836,238.571 298.836,238.571 "
   id="polygon288"
   style="fill:#e21f26" />
	</g>

	</g><path
   d="m 61.773657,67.186261 c 2.11576,2.98199 -4.13172,3.48576 -2.929,7.45223 0.92841,3.0603 -7.9137,3.59745 -2.57296,7.80566"
   id="path290"
   style="fill:none;stroke:#e21f26;stroke-width:1.0037967;stroke-miterlimit:2.41420007" /><path
   d="m 59.254387,63.871651 c -1.17341,-1.52988 -1.89729,-7.402233 -3.19007,-9.495312"
   id="path296"
   style="fill:none;stroke:#e21f26;stroke-width:1.00379658;stroke-miterlimit:2.41420007" /><polygon
   points="287.258,195.966 289.911,194.46 289.911,194.46 285.776,190.263 "
   transform="matrix(0.69804323,0,0,0.6414587,-145.2671,-70.632743)"
   id="polygon298"
   style="fill:#e21f26" /><polygon
   points="294.617,204.957 292.584,199.426 290.091,201.183 290.091,201.183 "
   transform="matrix(0.69804323,0,0,0.6414587,-144.51979,-65.168033)"
   id="polygon300"
   style="fill:#e21f26" /><path
   d="m 53.712947,50.384506 c -2.04805,-3.821461 0.94935,-3.743813 -1.36955,-7.990124 2.12455,-4.337851 6.65792,-6.734641 10.98159,-3.90036 0.22548,-2.728069 2.62676,0.08303 4.35861,-1.207148"
   id="path302"
   style="fill:none;stroke:#e21f26;stroke-width:1.0037967;stroke-miterlimit:2.41420007" /><path
   d="m 81.859097,31.765241 c -2.27348,1.551409 -7.15933,0.474652 -10.27309,2.927743"
   id="path308"
   style="fill:none;stroke:#e21f26;stroke-width:1.00379658;stroke-miterlimit:2.41420007" /><polygon
   points="311.737,164.906 309.826,162.529 309.826,162.529 306.345,167.283 "
   transform="matrix(0.69740202,0.02991262,-0.02748786,0.64086947,-140.31199,-79.845339)"
   id="polygon310"
   style="fill:#e21f26" /><polygon
   points="314.695,160.286 317.856,155.314 312.632,158.04 314.695,160.286 "
   transform="matrix(0.69649166,0.04651574,-0.04274511,0.6400329,-130.10925,-84.580365)"
   id="polygon312"
   style="fill:#e21f26" /><path
   d="m 85.452217,28.944778 c 1.16015,-0.970793 2.19953,-1.50448 3.24799,-0.07606 2.97577,-2.537442 6.72628,2.055632 5.54309,3.179618 2.76985,1.828759 4.54853,1.530173 7.558503,0.845244 2.5311,-0.575261 2.49759,-1.488251 6.82826,-0.66922"
   id="path314"
   style="fill:none;stroke:#e21f26;stroke-width:1.0037967;stroke-miterlimit:2.41420007" /><path
   d="m 116.33866,37.962558 c -1.06237,-2.106735 -0.33011,-3.685723 -3.52128,-4.762225"
   id="path320"
   style="fill:none;stroke:#e21f26;stroke-width:1.00379658;stroke-miterlimit:2.41420007" /><polygon
   points="359.974,159.839 354.083,159.707 359.119,162.767 359.974,159.839 "
   transform="matrix(0.69786718,-0.01567683,0.01440605,0.64129691,-139.99053,-64.507407)"
   id="polygon322"
   style="fill:#e21f26" /><polygon
   points="366.515,168.043 370.395,172.477 369.251,166.697 366.515,168.043 "
   transform="matrix(0.69784452,0.01665482,-0.01530475,0.64127609,-138.01611,-75.836143)"
   id="polygon324"
   style="fill:#e21f26" /><path
   d="m 121.09765,77.292981 c 1.71718,-1.67616 6.23046,-4.83869 2.87109,-7.59628 -2.42728,-1.99248 -3.27388,-5.6636 -5.21793,-7.32209 -1.25159,-0.94494 1.48547,-6.966231 -1.69204,-9.398814 -0.52632,-2.335242 2.72602,-7.839274 0.89505,-11.637583"
   id="path326"
   style="fill:none;stroke:#e21f26;stroke-width:1.0037967;stroke-miterlimit:2.41420007" /><path
   d="m 118.426,80.803171 c -0.8124,1.02704 0.20791,2.05443 0.90388,2.90639 0.61433,0.75202 0.46979,2.02894 0.13193,3.24771 -0.41743,1.50935 -0.40556,3.93599 -0.14379,5.53964"
   id="path332"
   style="fill:none;stroke:#e21f26;stroke-width:1.00379658;stroke-miterlimit:2.41420007" /><polygon
   points="377.6,244.241 374.584,244.694 374.584,244.694 376.936,250.096 "
   transform="matrix(0.69804323,0,0,0.6414587,-143.29779,-65.20106)"
   id="polygon334"
   style="fill:#e21f26" /><polygon
   points="374.328,227.949 376.911,229.571 376.911,229.571 378.645,223.939 "
   transform="matrix(0.69802889,0.00447414,-0.00411146,0.64144552,-142.97978,-67.449992)"
   id="polygon336"
   style="fill:#e21f26" /><path
   d="m 122.048,93.779001 c 1.37793,2.59342 2.97044,2.85194 13.27914,0.92757 3.62424,3.83849 10.05322,0.27775 14.85018,-0.84096"
   id="path342"
   style="fill:none;stroke:#e21f26;stroke-width:1.00379658;stroke-miterlimit:2.41420007" /><polygon
   points="381.181,245.953 381.181,245.953 377.314,241.507 378.44,247.291 "
   transform="matrix(0.69804323,0,0,0.6414587,-142.83542,-63.979069)"
   id="polygon344"
   style="fill:#e21f26" /><g
   transform="matrix(0.69804323,0,0,0.6414587,-144.51979,-65.168033)"
   id="g346">

<g
   id="g348">
	<path
   d="m 467.316,224.308 c -7.677,5.557 -18.909,6.432 -23.847,14.422 -3.234,5.232 -9.991,5.52 -15.723,7.426"
   id="path350"
   style="fill:none;stroke:#e21f26;stroke-width:1.50010002;stroke-miterlimit:2.41420007" />
	<polygon
   points="423.338,247.641 429.221,247.292 428.258,244.397 428.258,244.397 "
   id="polygon352"
   style="fill:#e21f26" />
	</g>

	</g><g
   transform="matrix(0.69804323,0,0,0.6414587,-144.51979,-65.168033)"
   id="g354">

<g
   id="g356">
	<path
   d="m 516.461,224.558 c -5.232,-4.721 -10.918,-12.068 -15.223,-6.266 -4.458,-0.733 -20.736,-1.542 -28.619,2.854"
   id="path358"
   style="fill:none;stroke:#e21f26;stroke-width:1.50010002;stroke-miterlimit:2.41420007" />
	<polygon
   points="468.566,223.428 474.28,221.988 472.794,219.324 472.794,219.324 "
   id="polygon360"
   style="fill:#e21f26" />
	</g>

	</g><g
   transform="matrix(0.69804323,0,0,0.6414587,-144.51979,-65.168033)"
   id="g362">

<g
   id="g364">
	<path
   d="m 569.665,258.129 c -13.16,17.122 -26.776,-11.633 -31.854,-4.458 1.543,-6.035 -5,-8.573 -11.201,-7.139 6.576,-0.352 7.811,-7.862 4.295,-8.687 0.111,-4.116 -5.656,-4.722 -10.139,-9.122"
   id="path366"
   style="fill:none;stroke:#e21f26;stroke-width:1.50010002;stroke-miterlimit:2.41420007" />
	<polygon
   points="517.434,225.478 520.427,230.554 522.564,228.377 522.564,228.377 "
   id="polygon368"
   style="fill:#e21f26" />
	</g>

	</g><g
   transform="matrix(0.69804323,0,0,0.6414587,-144.51979,-65.168033)"
   id="g370">

<g
   id="g372">
	<path
   d="m 627.975,245.184 c 0.706,-9.08 -11.037,-9.007 -17.997,3.824 -6.125,11.291 -11.964,4.316 -16.251,4.174 -0.13,-3.768 -14.024,-7.086 -20.166,0.099"
   id="path374"
   style="fill:none;stroke:#e21f26;stroke-width:1.50010002;stroke-miterlimit:2.41420007" />
	<polygon
   points="570.552,256.828 575.411,253.493 573.092,251.511 573.092,251.511 "
   id="polygon376"
   style="fill:#e21f26" />
	</g>

	</g><g
   transform="matrix(0.69804323,0,0,0.6414587,-144.51979,-65.168033)"
   id="g378">

<g
   id="g380">
	<path
   d="m 623.92,267.169 c 0.474,-6.465 2.789,-10.257 3.477,-16.394"
   id="path382"
   style="fill:none;stroke:#e21f26;stroke-width:1.50010002;stroke-miterlimit:2.41420007" />
	<polygon
   points="627.897,246.151 625.747,251.637 628.778,251.977 628.778,251.977 "
   id="polygon384"
   style="fill:#e21f26" />
	</g>

	</g><circle
   cx="604.40503"
   cy="422.802"
   r="1.556"
   transform="matrix(0.69804323,0,0,0.6414587,-142.0758,-52.485748)"
   id="Gaza"
   style="fill-rule:evenodd"
   sodipodi:cx="604.40503"
   sodipodi:cy="422.802"
   sodipodi:rx="1.556"
   sodipodi:ry="1.556" /><circle
   cx="621.10699"
   cy="412.50299"
   r="1.556"
   transform="matrix(0.69804323,0,0,0.6414587,-141.74554,-52.551801)"
   id="Jerusalem"
   style="fill-rule:evenodd"
   sodipodi:cx="621.10699"
   sodipodi:cy="412.50299"
   sodipodi:rx="1.556"
   sodipodi:ry="1.556" /><circle
   cx="607.74902"
   cy="402.936"
   r="1.556"
   transform="matrix(0.69804323,0,0,0.6414587,-141.28316,-55.524212)"
   id="Joppa"
   style="fill-rule:evenodd"
   sodipodi:cx="607.74902"
   sodipodi:cy="402.936"
   sodipodi:rx="1.556"
   sodipodi:ry="1.556" /><circle
   cx="609.30902"
   cy="389.771"
   r="1.556"
   transform="matrix(0.69804323,0,0,0.6414587,-141.87764,-59.223212)"
   id="Caesarea"
   style="fill-rule:evenodd"
   sodipodi:cx="609.30902"
   sodipodi:cy="389.771"
   sodipodi:rx="1.556"
   sodipodi:ry="1.556" /><circle
   cx="611.60602"
   cy="378.47299"
   r="1.556"
   transform="matrix(0.69804323,0,0,0.6414587,-141.74554,-61.336926)"
   id="Ptolemais"
   style="fill-rule:evenodd"
   sodipodi:cx="611.60602"
   sodipodi:cy="378.47299"
   sodipodi:rx="1.556"
   sodipodi:ry="1.556" /><circle
   cx="611.79199"
   cy="367.957"
   r="1.556"
   transform="matrix(0.69804323,0,0,0.6414587,-139.89604,-62.129569)"
   id="Tyre"
   style="fill-rule:evenodd"
   sodipodi:cx="611.79199"
   sodipodi:cy="367.957"
   sodipodi:rx="1.556"
   sodipodi:ry="1.556" /><circle
   cx="644.29602"
   cy="359.10599"
   r="1.556"
   transform="matrix(0.69804323,0,0,0.6414587,-142.14186,-57.770033)"
   id="Damascus"
   style="fill-rule:evenodd"
   sodipodi:cx="644.29602"
   sodipodi:cy="359.10599"
   sodipodi:rx="1.556"
   sodipodi:ry="1.556" /><circle
   cx="616.375"
   cy="356.32999"
   r="1.556"
   transform="matrix(0.69804323,0,0,0.6414587,-140.29236,-60.67639)"
   id="Sidon"
   style="fill-rule:evenodd"
   sodipodi:cx="616.375"
   sodipodi:cy="356.32999"
   sodipodi:rx="1.556"
   sodipodi:ry="1.556" /><circle
   cx="618.64001"
   cy="277.90701"
   r="1.556"
   transform="matrix(0.69804323,0,0,0.6414587,-144.51979,-65.168033)"
   id="Selucia"
   style="fill-rule:evenodd"
   sodipodi:cx="618.64001"
   sodipodi:cy="277.90701"
   sodipodi:rx="1.556"
   sodipodi:ry="1.556" /><circle
   cx="623.84998"
   cy="267.202"
   r="1.556"
   transform="matrix(0.69804323,0,0,0.6414587,-144.51979,-65.168033)"
   id="Antioch_x2C__Syria_1_"
   style="fill-rule:evenodd"
   sodipodi:cx="623.84998"
   sodipodi:cy="267.202"
   sodipodi:rx="1.556"
   sodipodi:ry="1.556" /><circle
   cx="593.59497"
   cy="253.104"
   r="1.556"
   transform="matrix(0.69804323,0,0,0.6414587,-144.51979,-65.168033)"
   id="Tarsus"
   style="fill-rule:evenodd"
   sodipodi:cx="593.59497"
   sodipodi:cy="253.104"
   sodipodi:rx="1.556"
   sodipodi:ry="1.556" /><circle
   cx="537.67401"
   cy="253.524"
   r="1.556"
   transform="matrix(0.69804323,0,0,0.6414587,-144.51979,-65.168033)"
   id="Derbe"
   style="fill-rule:evenodd"
   sodipodi:cx="537.67401"
   sodipodi:cy="253.524"
   sodipodi:rx="1.556"
   sodipodi:ry="1.556" /><circle
   cx="526.51801"
   cy="246.505"
   r="1.556"
   transform="matrix(0.69804323,0,0,0.6414587,-144.51979,-65.168033)"
   id="Lystra"
   style="fill-rule:evenodd"
   sodipodi:cx="526.51801"
   sodipodi:cy="246.505"
   sodipodi:rx="1.556"
   sodipodi:ry="1.556" /><circle
   cx="530.77002"
   cy="237.853"
   r="1.556"
   transform="matrix(0.69804323,0,0,0.6414587,-144.51979,-65.168033)"
   id="Iconium"
   style="fill-rule:evenodd"
   sodipodi:cx="530.77002"
   sodipodi:cy="237.853"
   sodipodi:rx="1.556"
   sodipodi:ry="1.556" /><circle
   cx="501.15302"
   cy="218.34399"
   r="1.556"
   transform="matrix(0.69804323,0,0,0.6414587,-144.51979,-65.168033)"
   id="Antioch_x2C__Pisidia"
   style="fill-rule:evenodd"
   sodipodi:cx="501.15302"
   sodipodi:cy="218.34399"
   sodipodi:rx="1.556"
   sodipodi:ry="1.556" /><circle
   cx="491.80099"
   cy="268.34201"
   r="1.556"
   transform="matrix(0.69804323,0,0,0.6414587,-144.51979,-65.168033)"
   id="Perga"
   style="fill-rule:evenodd"
   sodipodi:cx="491.80099"
   sodipodi:cy="268.34201"
   sodipodi:rx="1.556"
   sodipodi:ry="1.556" /><circle
   cx="486.10101"
   cy="271.78601"
   r="1.556"
   transform="matrix(0.69804323,0,0,0.6414587,-144.51979,-65.168033)"
   id="Attalia"
   style="fill-rule:evenodd"
   sodipodi:cx="486.10101"
   sodipodi:cy="271.78601"
   sodipodi:rx="1.556"
   sodipodi:ry="1.556" /><circle
   cx="472.62201"
   cy="293.63501"
   r="1.556"
   transform="matrix(0.69804323,0,0,0.6414587,-142.83834,-61.618307)"
   id="Myra"
   style="fill-rule:evenodd"
   sodipodi:cx="472.62201"
   sodipodi:cy="293.63501"
   sodipodi:rx="1.556"
   sodipodi:ry="1.556" /><circle
   cx="454.15302"
   cy="294.021"
   r="1.556"
   transform="matrix(0.69804323,0,0,0.6414587,-145.08027,-62.552445)"
   id="Patara"
   style="fill-rule:evenodd"
   sodipodi:cx="454.15302"
   sodipodi:cy="294.021"
   sodipodi:rx="1.556"
   sodipodi:ry="1.556" /><circle
   cx="426.91299"
   cy="292.82001"
   r="1.556"
   transform="matrix(0.69804323,0,0,0.6414587,-143.58451,-60.727223)"
   id="Rhodes"
   style="fill-rule:evenodd"
   sodipodi:cx="426.91299"
   sodipodi:cy="292.82001"
   sodipodi:rx="1.556"
   sodipodi:ry="1.556" /><circle
   cx="406.10599"
   cy="288.021"
   r="1.556"
   transform="matrix(0.69804323,0,0,0.6414587,-143.19871,-62.129569)"
   id="Cnidus"
   style="fill-rule:evenodd"
   sodipodi:cx="406.10599"
   sodipodi:cy="288.021"
   sodipodi:rx="1.556"
   sodipodi:ry="1.556" /><circle
   cx="402.37"
   cy="260.70001"
   r="1.556"
   transform="matrix(0.69804323,0,0,0.6414587,-142.03889,-63.523332)"
   id="Miletus"
   style="fill-rule:evenodd"
   sodipodi:cx="402.37"
   sodipodi:cy="260.70001"
   sodipodi:rx="1.556"
   sodipodi:ry="1.556" /><circle
   cx="456.52301"
   cy="245.38499"
   r="1.556"
   transform="matrix(0.69804323,0,0,0.6414587,-144.51979,-65.168033)"
   id="Colossae_1_"
   style="fill-rule:evenodd"
   sodipodi:cx="456.52301"
   sodipodi:cy="245.38499"
   sodipodi:rx="1.556"
   sodipodi:ry="1.556" /><circle
   cx="449.763"
   cy="245.05"
   r="1.556"
   transform="matrix(0.69804323,0,0,0.6414587,-143.85925,-65.696462)"
   id="Laodicea"
   style="fill-rule:evenodd"
   sodipodi:cx="449.763"
   sodipodi:cy="245.05"
   sodipodi:rx="1.556"
   sodipodi:ry="1.556" /><circle
   cx="400.979"
   cy="249.20399"
   r="1.556"
   transform="matrix(0.69804323,0,0,0.6414587,-144.51979,-65.168033)"
   id="Ephesus"
   style="fill-rule:evenodd"
   sodipodi:cx="400.979"
   sodipodi:cy="249.20399"
   sodipodi:rx="1.556"
   sodipodi:ry="1.556" /><circle
   cx="434.01401"
   cy="236.104"
   r="1.556"
   transform="matrix(0.69804323,0,0,0.6414587,-144.51979,-65.168033)"
   id="Philadelphia"
   style="fill-rule:evenodd"
   sodipodi:cx="434.01401"
   sodipodi:cy="236.104"
   sodipodi:rx="1.556"
   sodipodi:ry="1.556" /><circle
   cx="423.85001"
   cy="230.106"
   r="1.556"
   transform="matrix(0.69804323,0,0,0.6414587,-143.58565,-64.887791)"
   id="Sardis"
   style="fill-rule:evenodd"
   sodipodi:cx="423.85001"
   sodipodi:cy="230.106"
   sodipodi:rx="1.556"
   sodipodi:ry="1.556" /><circle
   cx="394.88699"
   cy="235.00999"
   r="1.556"
   transform="matrix(0.69804323,0,0,0.6414587,-143.39882,-66.569241)"
   id="Smyrna"
   style="fill-rule:evenodd"
   sodipodi:cx="394.88699"
   sodipodi:cy="235.00999"
   sodipodi:rx="1.556"
   sodipodi:ry="1.556" /><circle
   cx="415.47699"
   cy="219.011"
   r="1.556"
   transform="matrix(0.69804323,0,0,0.6414587,-144.94015,-65.261447)"
   id="Thyatira"
   style="fill-rule:evenodd"
   sodipodi:cx="415.47699"
   sodipodi:cy="219.011"
   sodipodi:rx="1.556"
   sodipodi:ry="1.556" /><circle
   cx="395.573"
   cy="214.717"
   r="1.556"
   transform="matrix(0.69804323,0,0,0.6414587,-143.16528,-66.989603)"
   id="Pergamum"
   style="fill-rule:evenodd"
   sodipodi:cx="395.573"
   sodipodi:cy="214.717"
   sodipodi:rx="1.556"
   sodipodi:ry="1.556" /><circle
   cx="381.82999"
   cy="214.06"
   r="1.556"
   transform="matrix(0.69804323,0,0,0.6414587,-145.54734,-67.03631)"
   id="Mytelene"
   style="fill-rule:evenodd"
   sodipodi:cx="381.82999"
   sodipodi:cy="214.06"
   sodipodi:rx="1.556"
   sodipodi:ry="1.556" /><circle
   cx="374.293"
   cy="202.47701"
   r="1.556"
   transform="matrix(0.69804323,0,0,0.6414587,-144.33296,-67.129724)"
   id="Assos"
   style="fill-rule:evenodd"
   sodipodi:cx="374.293"
   sodipodi:cy="202.47701"
   sodipodi:rx="1.556"
   sodipodi:ry="1.556" /><circle
   cx="370.491"
   cy="191.22099"
   r="1.556"
   transform="matrix(0.69804323,0,0,0.6414587,-143.11858,-69.184828)"
   id="Troas"
   style="fill-rule:evenodd"
   sodipodi:cx="370.491"
   sodipodi:cy="191.22099"
   sodipodi:rx="1.556"
   sodipodi:ry="1.556" /><circle
   cx="332.06601"
   cy="158.619"
   r="1.556"
   transform="matrix(0.69804323,0,0,0.6414587,-139.28861,-69.46507)"
   id="Neapolis"
   style="fill-rule:evenodd"
   sodipodi:cx="332.06601"
   sodipodi:cy="158.619"
   sodipodi:rx="1.556"
   sodipodi:ry="1.556" /><circle
   cx="323.64999"
   cy="154.763"
   r="1.556"
   transform="matrix(0.69804323,0,0,0.6414587,-137.42033,-68.624345)"
   id="Philipi"
   style="fill-rule:evenodd"
   sodipodi:cx="323.64999"
   sodipodi:cy="154.763"
   sodipodi:rx="1.556"
   sodipodi:ry="1.556" /><circle
   cx="317.41299"
   cy="166.08299"
   r="1.556"
   transform="matrix(0.69804323,0,0,0.6414587,-141.9042,-69.651898)"
   id="Amphipolis"
   style="fill-rule:evenodd"
   sodipodi:cx="317.41299"
   sodipodi:cy="166.08299"
   sodipodi:rx="1.556"
   sodipodi:ry="1.556" /><circle
   cx="309.12799"
   cy="169.937"
   r="1.556"
   transform="matrix(0.69804323,0,0,0.6414587,-142.62816,-69.535131)"
   id="Apollonia"
   style="fill-rule:evenodd"
   sodipodi:cx="309.12799"
   sodipodi:cy="169.937"
   sodipodi:rx="1.556"
   sodipodi:ry="1.556" /><circle
   cx="296.586"
   cy="168.70599"
   r="1.556"
   transform="matrix(0.69804323,0,0,0.6414587,-143.02516,-68.344104)"
   id="Thessalonica"
   style="fill-rule:evenodd"
   sodipodi:cx="296.586"
   sodipodi:cy="168.70599"
   sodipodi:rx="1.556"
   sodipodi:ry="1.556" /><circle
   cx="283.12799"
   cy="176.071"
   r="1.556"
   transform="matrix(0.69804323,0,0,0.6414587,-146.10782,-70.399209)"
   id="Berea"
   style="fill-rule:evenodd"
   sodipodi:cx="283.12799"
   sodipodi:cy="176.071"
   sodipodi:rx="1.556"
   sodipodi:ry="1.556" /><circle
   cx="312.905"
   cy="254.343"
   r="1.556"
   transform="matrix(0.69804323,0,0,0.6414587,-144.51979,-62.739273)"
   id="Athens"
   style="fill-rule:evenodd"
   sodipodi:cx="312.905"
   sodipodi:cy="254.343"
   sodipodi:rx="1.556"
   sodipodi:ry="1.556" /><circle
   cx="294.59299"
   cy="254.634"
   r="1.556"
   transform="matrix(0.69804323,0,0,0.6414587,-146.6683,-63.299756)"
   id="Corinth"
   style="fill-rule:evenodd"
   sodipodi:cx="294.59299"
   sodipodi:cy="254.634"
   sodipodi:rx="1.556"
   sodipodi:ry="1.556" />
   

   
<line
   id="Patmos_line"
   stroke-miterlimit="2.4142"
   x1="122.96843"
   y1="111.36772"
   x2="115.96687"
   y2="115.98592"
   style="fill:none;stroke:#000000;stroke-width:0.34759411;stroke-miterlimit:2.41420007;stroke-dasharray:none"
   mask="none" />
   
<line
   id="Mytelene_line"
   stroke-miterlimit="2.4142"
   x1="119.49977"
   y1="71.360527"
   x2="116.41045"
   y2="73.571198"
   style="fill:none;stroke:#000000;stroke-width:0.35724351;stroke-miterlimit:2.41420007"
   mask="none" />
   
<line
   id="Pergamum_line"
   stroke-miterlimit="2.4142"
   x1="142.74944"
   y1="60.702"
   x2="133.93407"
   y2="69.600945"
   style="fill:none;stroke:#000000;stroke-width:0.34759411;stroke-miterlimit:2.41420007;stroke-dasharray:none"
   mask="none" />
   
<line
   id="Apollonia_line"
   stroke-miterlimit="2.4142"
   x1="75.613998"
   y1="49.485462"
   x2="74.39888"
   y2="42.291004"
   style="fill:none;stroke:#000000;stroke-width:0.34759411;stroke-miterlimit:2.41420007;stroke-dasharray:none"
   mask="none" />





<text
   x="187.27968"
   y="249.51338"
   id="Region_Egypt"
   style="font-size:6px;fill:#ff0000;font-family:Arial">EGYPT</text>










<text
   x="287.75354"
   y="247.33568"
   id="Region_Arabia"
   style="font-size:6px;fill:#ff0000;font-family:Arial">ARABIA</text>










<text
   x="292.40112"
   y="131.03398"
   id="Region_Syria"
   style="font-size:6px;fill:#ff0000;font-family:Arial">SYRIA</text>




<text
   x="-157.8112"
   y="318.39679"
   id="Region_Phoenicia"
   style="font-size:6px;fill:#ff0000;font-family:Arial"
   transform="matrix(0.15749508,-0.98751977,0.98751977,0.15749508,0,0)">PHOENICIA</text>


   


<text
   x="-29.689613"
   y="363.68222"
   id="Region_Judea"
   style="font-size:6px;fill:#ff0000;font-family:Arial"
   transform="matrix(0.57386812,-0.81894773,0.81894773,0.57386812,0,0)">JUDEA</text>










<text
   x="228.78108"
   y="-17.710333"
   transform="matrix(0.86982776,0.50703453,-0.52153554,0.84564267,0,0)"
   id="Region_Pamphylia"
   style="font-size:6.09881687px;fill:#ff0000;font-family:Arial">PAMPHYLIA</text>










<text
   x="165.49474"
   y="116.97137"
   id="Region_Lycia"
   style="font-size:6px;fill:#ff0000;font-family:Arial">LYCIA</text>










<text
   x="247.40193"
   y="71.922165"
   id="Region_Cappadocia"
   style="font-size:6px;fill:#ff0000;font-family:Arial">CAPPADOCIA</text>










<text
   x="293.00961"
   y="42.840557"
   id="Region_Armenia"
   style="font-size:6px;fill:#ff0000;font-family:Arial">ARMENIA</text>










<text
   x="242.09703"
   y="47.343464"
   id="Region_Galatia"
   style="font-size:6px;fill:#ff0000;font-family:Arial">GALATIA</text>










<text
   x="208.46562"
   y="20.259995"
   id="Region_Pontus"
   style="font-size:6px;fill:#ff0000;font-family:Arial">PONTUS</text>










<text
   x="182.31526"
   y="36.830799"
   id="Region_Bithynia"
   style="font-size:6px;fill:#ff0000;font-family:Arial">BITHYNIA</text>










<text
   x="169.99953"
   y="68.695389"
   id="Region_Asia"
   style="font-size:6px;fill:#ff0000;font-family:Arial">ASIA</text>




















<text
   x="42.047436"
   y="117.45184"
   id="Region_Achaia"
   style="font-size:6px;fill:#ff0000;font-family:Arial">Achaia</text>










<text
   x="5.1439795"
   y="19.77866"
   id="Region_Macedonia"
   style="font-size:6px;fill:#ff0000;font-family:Arial">MACEDONIA</text>


















































<text
   x="156.43544"
   y="180.03035"
   id="Sea_Mediterranean"
   style="font-size:6px;fill:#ff0000;font-family:Arial">MEDITERRANEAN SEA</text>




















<text
   x="198.7198"
   y="94.261948"
   id="Region_Pisidia"
   style="font-size:6px;fill:#ff0000;font-family:Arial">PISIDIA</text>










<text
   x="123.51556"
   y="239.19838"
   transform="matrix(0.80932735,-0.59422457,0.61121919,0.78682444,0,0)"
   id="Region_Cilicia"
   style="font-size:6.09881687px;fill:#ff0000;font-family:Arial">CILICIA</text>










<text
   x="143.45268"
   y="143.37289"
   id="Island_Rhodes"
   style="font-size:6px;fill:#ff0000;font-family:Arial">Rhodes</text>







<text
   x="123.20662"
   y="125.15253"
   id="Island_Cos"
   style="font-size:6px;fill:#ff0000;font-family:Arial">Cos</text>





<text
   x="95.286087"
   y="110.49574"
   id="Island_Samos"
   style="font-size:6px;fill:#ff0000;font-family:Arial">Samos</text>










<text
   x="102.03027"
   y="119.89162"
   id="Island_Patmos"
   style="font-size:6px;fill:#ff0000;font-family:Arial">Patmos</text>










<text
   x="95.237167"
   y="89.241257"
   id="Island_Chios"
   style="font-size:6px;fill:#ff0000;font-family:Arial">Chios</text>




















<text
   x="111.70312"
   y="262.36996"
   id="Island_Cyprus"
   style="font-size:6px;fill:#ff0000;font-family:Arial"
   transform="matrix(0.82298735,-0.5680597,0.5680597,0.82298735,0,0)">Cyprus</text>










<text
   x="90.433586"
   y="156.85971"
   id="Island_Crete"
   style="font-size:6px;fill:#ff0000;font-family:Arial">Crete</text>






























<text
   x="262.17221"
   y="220.32396"
   id="City_Gaza"
   style="font-size:6px;fill:#ff0000;font-family:Arial">Gaza</text>










<text
   x="263.92264"
   y="204.6532"
   id="City_Joppa"
   style="font-size:6px;fill:#ff0000;font-family:Arial">Joppa</text>










<text
   x="255.96849"
   y="195.73505"
   id="City_Caesarea"
   style="font-size:6px;fill:#ff0000;font-family:Arial">Caesarea</text>










<text
   x="289.63885"
   y="184.61929"
   id="City_Ptolemais"
   style="font-size:6px;fill:#ff0000;font-family:Arial">Ptolemais</text>










<text
   x="310.0351"
   y="174.60359"
   id="City_Damascus"
   style="font-size:6px;fill:#ff0000;font-family:Arial">Damascus</text>










<text
   x="291.66086"
   y="176.1364"
   id="City_Tyre"
   style="font-size:6px;fill:#ff0000;font-family:Arial">Tyre</text>










<text
   x="293.85196"
   y="214.23906"
   id="City_Jerusalem"
   style="font-size:6px;fill:#ff0000;font-family:Arial">Jerusalem</text>










<text
   x="294.03339"
   y="168.95691"
   id="City_Sidon"
   style="font-size:6px;fill:#ff0000;font-family:Arial">Sidon</text>






























<text
   x="292.8028"
   y="117.34528"
   id="City_Seleucia"
   style="font-size:6px;fill:#ff0000;font-family:Arial">Seleucia</text>










<text
   x="294.50354"
   y="107.90316"
   id="City_Antioch-A"
   style="font-size:6px;fill:#ff0000;font-family:Arial">Antioch</text>










<text
   x="255.77025"
   y="94.600739"
   id="City_Tarsus"
   style="font-size:6px;fill:#ff0000;font-family:Arial">Tarsus</text>










<text
   x="236.67058"
   y="97.583939"
   id="City_Derbe"
   style="font-size:6px;fill:#ff0000;font-family:Arial">Derbe</text>










<text
   x="230.07909"
   y="92.391693"
   id="City_Lystra"
   style="font-size:6px;fill:#ff0000;font-family:Arial">Lystra</text>










<text
   x="227.96974"
   y="85.748718"
   id="City_Iconium"
   style="font-size:6px;fill:#ff0000;font-family:Arial">Iconium</text>










<text
   x="205.29961"
   y="72.114784"
   id="City_Antioch-B"
   style="font-size:6px;fill:#ff0000;font-family:Arial">Antioch</text>










<text
   x="147.3271"
   y="101.82727"
   id="City_Laodicea"
   style="font-size:6px;fill:#ff0000;font-family:Arial">Laodicea</text>










<text
   x="174.58791"
   y="97.465851"
   id="City_Colossae"
   style="font-size:6px;fill:#ff0000;font-family:Arial">Colossae</text>










<text
   x="160.12926"
   y="88.103714"
   id="City_Philadelphia"
   style="font-size:6px;fill:#ff0000;font-family:Arial">Philadelphia</text>










<text
   x="152.95192"
   y="81.663078"
   id="City_Sardis"
   style="font-size:6px;fill:#ff0000;font-family:Arial">Sardis</text>










<text
   x="142.66933"
   y="73.428299"
   id="City_Thyatira"
   style="font-size:6px;fill:#ff0000;font-family:Arial">Thyatira</text>










<text
   x="143.08687"
   y="59.904629"
   id="City_Pergamum"
   style="font-size:6px;fill:#ff0000;font-family:Arial">Pergamum</text>










<text
   x="201.46553"
   y="113.14326"
   id="City_Perga"
   style="font-size:6px;fill:#ff0000;font-family:Arial">Perga</text>










<text
   x="175.95622"
   y="110.80255"
   id="City_Attalia"
   style="font-size:6px;fill:#ff0000;font-family:Arial">Attalia</text>










<text
   x="189.71675"
   y="125.02343"
   id="City_Myra"
   style="font-size:6px;fill:#ff0000;font-family:Arial">Myra</text>










<text
   x="165.7426"
   y="124.74712"
   id="City_Patara"
   style="font-size:6px;fill:#ff0000;font-family:Arial">Patara</text>










<text
   x="140.45122"
   y="120.55157"
   id="City_Cnidus"
   style="font-size:6px;fill:#ff0000;font-family:Arial">Cnidus</text>










<text
   x="140.00304"
   y="109.1445"
   id="City_Miletus"
   style="font-size:6px;fill:#ff0000;font-family:Arial">Miletus</text>










<text
   x="122.66481"
   y="92.262054"
   id="City_Ephesus"
   style="font-size:6px;fill:#ff0000;font-family:Arial">Ephesus</text>










<text
   x="124.52043"
   y="82.765221"
   id="City_Smyrna"
   style="font-size:6px;fill:#ff0000;font-family:Arial">Smyrna</text>










<text
   x="91.115509"
   y="75.998421"
   id="City_Mitylene"
   style="font-size:6px;fill:#ff0000;font-family:Arial">Mitylene</text>










<text
   x="97.636581"
   y="65.451691"
   id="City_Assos"
   style="font-size:6px;fill:#ff0000;font-family:Arial">Assos</text>










<text
   x="119.97084"
   y="56.530865"
   id="City_Troas"
   style="font-size:6px;fill:#ff0000;font-family:Arial">Troas</text>










<text
   x="95.738449"
   y="29.688526"
   id="City_Neapolis"
   style="font-size:6px;fill:#ff0000;font-family:Arial">Neapolis</text>










<text
   x="76.81543"
   y="26.128338"
   id="City_Philippi"
   style="font-size:6px;fill:#ff0000;font-family:Arial">Philippi</text>










<text
   x="79.55159"
   y="43.94614"
   id="City_Amphipolis"
   style="font-size:6px;fill:#ff0000;font-family:Arial">Amphipolis</text>










<text
   x="73.530029"
   y="54.457645"
   id="City_Apollonia"
   style="font-size:6px;fill:#ff0000;font-family:Arial">Apollonia</text>










<text
   x="29.724165"
   y="35.60088"
   id="City_Thessalonica"
   style="font-size:6px;fill:#ff0000;font-family:Arial">Thessalonica</text>










<text
   x="33.811947"
   y="44.244221"
   id="City_Berea"
   style="font-size:6px;fill:#ff0000;font-family:Arial">Berea</text>










<text
   x="51.180447"
   y="93.89357"
   id="City_Athens"
   style="font-size:6px;fill:#ff0000;font-family:Arial">Athens</text>










<text
   x="38.977062"
   y="106.10674"
   id="City_Corinth"
   style="font-size:6px;fill:#ff0000;font-family:Arial">Corinth</text>
































































































































































































<rect
   width="346.20749"
   height="255.83304"
   x="0.69518822"
   y="-0.48384136"
   id="Map_Border"
   style="fill:none;stroke:#000000;stroke-width:1.39037645;stroke-miterlimit:2.41420007;stroke-dasharray:none" />

<line
   id="Pergamum_line-4"
   stroke-miterlimit="2.4142"
   x1="169.07054"
   y1="92.346893"
   x2="162.77953"
   y2="97.796753"
   style="fill:none;stroke:#000000;stroke-width:0.34759411;stroke-miterlimit:2.41420007;stroke-dasharray:none;overflow:visible"
   mask="none" /></svg>