<?xml version="1.0" encoding="UTF-8" standalone="no"?>
<!-- Created with Inkscape (http://www.inkscape.org/) -->

<svg
   xmlns:dc="http://purl.org/dc/elements/1.1/"
   xmlns:cc="http://creativecommons.org/ns#"
   xmlns:rdf="http://www.w3.org/1999/02/22-rdf-syntax-ns#"
   xmlns:svg="http://www.w3.org/2000/svg"
   xmlns="http://www.w3.org/2000/svg"
   xmlns:xlink="http://www.w3.org/1999/xlink"
   xmlns:sodipodi="http://sodipodi.sourceforge.net/DTD/sodipodi-0.dtd"
   xmlns:inkscape="http://www.inkscape.org/namespaces/inkscape"
   version="1.0"
   width="500"
   height="370"
   viewBox="0 0 347.5941 255.17426"
   id="svg2"
   xml:space="preserve"
   style="overflow:visible"
   inkscape:version="0.47 r22583"
   sodipodi:docname="m08c-map.svg"><metadata
   id="metadata423"><rdf:RDF><cc:Work
       rdf:about=""><dc:format>image/svg+xml</dc:format><dc:type
         rdf:resource="http://purl.org/dc/dcmitype/StillImage" /></cc:Work></rdf:RDF></metadata><sodipodi:namedview
   pagecolor="#ffffff"
   bordercolor="#666666"
   borderopacity="1"
   objecttolerance="10"
   gridtolerance="10"
   guidetolerance="10"
   inkscape:pageopacity="0"
   inkscape:pageshadow="2"
   inkscape:window-width="1440"
   inkscape:window-height="877"
   id="namedview421"
   showgrid="false"
   inkscape:zoom="1.6417664"
   inkscape:cx="259.53136"
   inkscape:cy="180.89678"
   inkscape:window-x="1440"
   inkscape:window-y="0"
   inkscape:window-maximized="1"
   inkscape:current-layer="svg2" /><defs
   id="defs422"><inkscape:perspective
     sodipodi:type="inkscape:persp3d"
     inkscape:vp_x="0 : 212.59842 : 1"
     inkscape:vp_y="0 : 1000 : 0"
     inkscape:vp_z="708.66138 : 212.59842 : 1"
     inkscape:persp3d-origin="354.33069 : 141.73228 : 1"
     id="perspective425" /><inkscape:perspective
     id="perspective3320"
     inkscape:persp3d-origin="0.5 : 0.33333333 : 1"
     inkscape:vp_z="1 : 0.5 : 1"
     inkscape:vp_y="0 : 1000 : 0"
     inkscape:vp_x="0 : 0.5 : 1"
     sodipodi:type="inkscape:persp3d" /><inkscape:perspective
     id="perspective3139"
     inkscape:persp3d-origin="0.5 : 0.33333333 : 1"
     inkscape:vp_z="1 : 0.5 : 1"
     inkscape:vp_y="0 : 1000 : 0"
     inkscape:vp_x="0 : 0.5 : 1"
     sodipodi:type="inkscape:persp3d" /><inkscape:perspective
     id="perspective3236"
     inkscape:persp3d-origin="0.5 : 0.33333333 : 1"
     inkscape:vp_z="1 : 0.5 : 1"
     inkscape:vp_y="0 : 1000 : 0"
     inkscape:vp_x="0 : 0.5 : 1"
     sodipodi:type="inkscape:persp3d" /></defs>
   



<image
   y="-1.1752514"
   x="0.0037514567"
   id="image3322"
   height="257.21964"
   width="347.59412"
   xlink:href="file:///home/dennis/Projects/ptxplus/resources/lib_maps/m08c-bkgrnd-bw.png" />



<polygon
   points="628.693,244.334 628.557,246.907 627.906,245.152 627.077,246.828 627.211,244.256 628.042,242.585 628.042,242.585 "
   transform="matrix(0.69804323,0,0,0.6414587,-144.51979,-65.168033)"
   id="polygon226"
   style="fill:#e21f26;fill-rule:evenodd" /><polygon
   points="516.266,223.384 518.178,225.108 516.408,224.509 517.186,226.21 515.274,224.484 514.5,222.787 514.5,222.787 "
   transform="matrix(0.69804323,0,0,0.6414587,-144.51979,-65.168033)"
   id="polygon228"
   style="fill:#e21f26;fill-rule:evenodd" /><polygon
   points="466.127,224.253 468.213,222.743 467.257,224.351 469.083,223.944 466.997,225.454 465.175,225.857 465.175,225.857 "
   transform="matrix(0.69804323,0,0,0.6414587,-144.51979,-65.168033)"
   id="polygon230"
   style="fill:#e21f26;fill-rule:evenodd" /><polygon
   points="370.689,173.393 369.375,172.255 370.333,174.414 371.641,175.543 371.641,175.543 371.686,173.814 370.73,171.655 "
   transform="matrix(0.69804323,0,0,0.6414587,-140.78323,-69.885433)"
   id="polygon232"
   style="fill:#e21f26;fill-rule:evenodd" /><polygon
   points="379.317,223.402 377.701,224.041 379.32,222.321 380.93,221.69 380.93,221.69 380.398,223.337 378.78,225.056 "
   transform="matrix(0.69804323,0,0,0.6414587,-144.05272,-65.658455)"
   id="polygon234"
   style="fill:#e21f26;fill-rule:evenodd" /><polygon
   points="478.029,322.395 476.987,320.842 479.152,322.236 480.19,323.786 480.19,323.786 478.35,323.482 476.184,322.089 "
   transform="matrix(0.69804323,0,0,0.6414587,-143.19871,-63.186425)"
   id="polygon236"
   style="fill:#e21f26;fill-rule:evenodd" /><polygon
   points="576.418,363.68 578.917,364.3 580.757,363.993 580.757,363.993 579.274,362.861 576.775,362.24 578.262,363.374 "
   transform="matrix(0.69310344,0.09121554,-0.07718611,0.66203156,-113.61732,-125.38654)"
   id="polygon238"
   style="fill:#e21f26;fill-rule:evenodd" /><polygon
   points="305.747,240.781 303.445,239.626 305.313,239.733 304.111,238.301 306.412,239.457 307.609,240.888 307.609,240.888 "
   transform="matrix(0.69804323,0,0,0.6414587,-144.51979,-65.168033)"
   id="polygon240"
   style="fill:#e21f26;fill-rule:evenodd" /><polygon
   points="286.957,230.513 288.75,232.05 288.039,230.463 289.714,230.925 287.921,229.388 286.253,228.933 286.253,228.933 "
   transform="matrix(0.69804323,0,0,0.6414587,-144.51979,-65.168033)"
   id="polygon242"
   style="fill:#e21f26;fill-rule:evenodd" /><polygon
   points="294.898,206.747 293.608,204.769 295.088,205.682 294.849,203.96 296.139,205.938 296.373,207.651 296.373,207.651 "
   transform="matrix(0.69804323,0,0,0.6414587,-144.51979,-65.168033)"
   id="polygon244"
   style="fill:#e21f26;fill-rule:evenodd" /><polygon
   points="568.51,258.415 570.08,256.373 569.621,258.187 571.254,257.277 569.686,259.318 568.055,260.225 568.055,260.225 "
   transform="matrix(0.69804323,0,0,0.6414587,-144.51979,-65.168033)"
   id="polygon246"
   style="fill:#e21f26;fill-rule:evenodd" /><polygon
   points="421.456,248.872 423.952,248.239 422.106,247.942 423.587,246.802 421.091,247.436 419.614,248.574 419.614,248.574 "
   transform="matrix(0.69804323,0,0,0.6414587,-144.51979,-65.168033)"
   id="polygon248"
   style="fill:#e21f26;fill-rule:evenodd" /><polygon
   points="307.378,167.341 305.689,167.756 306.445,166.19 304.611,167.678 303.862,169.237 303.862,169.237 305.543,168.828 "
   transform="matrix(0.71132734,0,0,0.64912311,-149.30363,-71.953199)"
   id="polygon250"
   style="fill:#e21f26;fill-rule:evenodd" /><polygon
   points="286.775,190.444 285.416,189.361 285.447,191.099 284.404,188.98 284.377,187.251 284.377,187.251 285.732,188.326 "
   transform="matrix(0.69804323,0,0,0.6414587,-145.2671,-70.586037)"
   id="polygon252"
   style="fill:#e21f26;fill-rule:evenodd" /><polygon
   points="377.499,248.906 377.012,250.712 376.032,249.12 376.403,251.669 377.382,253.256 377.382,253.256 377.87,251.455 "
   transform="matrix(0.69804323,0,0,0.6414587,-143.29779,-65.20106)"
   id="polygon254"
   style="fill:#e21f26;fill-rule:evenodd" /><polygon
   points="354.512,160.474 353.122,159.431 354.811,159.022 352.498,158.547 350.818,158.956 350.818,158.956 352.2,159.997 "
   transform="matrix(0.69804323,0,0,0.6414587,-137.65387,-69.978847)"
   id="polygon256"
   style="fill:#e21f26;fill-rule:evenodd" /><polygon
   points="318.574,154.686 316.914,155.196 318.66,153.607 320.314,153.103 320.314,153.103 319.657,154.702 317.91,156.292 "
   transform="matrix(0.69804323,0,0,0.6414587,-137.32692,-69.955493)"
   id="polygon258"
   style="fill:#e21f26;fill-rule:evenodd" /><path
   d="m 291.28665,211.31499 c -3.8888,-3.80448 -3.34467,-19.42794 -7.0392,-20.47277 -1.40937,-0.62772 -6.91628,-7.78498 -1.03247,-9.55444 -2.51086,-1.79057 0.34421,-5.78869 2.7985,-7.09654 -8.85661,1.35382 -18.99412,-3.22487 -26.92953,-6.28096"
   id="path260"
   style="fill:none;stroke:#e21f26;stroke-width:1.0037967;stroke-miterlimit:2.41420007" /><path
   d="m 190.70713,143.78915 c 21.32731,12.61429 57.8246,19.66944 64.178,22.91291"
   id="path266"
   style="fill:none;stroke:#e21f26;stroke-width:1.00379658;stroke-miterlimit:2.41420007" /><polygon
   points="570.63,363.241 576.516,362.951 571.274,360.26 570.63,363.241 "
   transform="matrix(0.69516265,0.06335018,-0.05821491,0.63881162,-121.18078,-100.71154)"
   id="polygon268"
   style="fill:#e21f26" /><path
   d="m 187.33179,141.61495 c -5.21648,-3.08285 -15.80184,-7.04245 -16.4594,-13.93685 -7.07885,4.99632 -5.80008,-8.34963 -16.59182,-2.01523 -2.32519,-1.93913 -19.63514,4.09738 -15.62491,-2.87837 -2.06803,-1.09626 3.27441,-2.82788 0.60781,-4.26515 -0.60614,-0.32671 -3.13756,-0.69765 -3.69167,-1.16174 -2.25177,-1.886 -4.6904,-8.66585 2.25476,-13.04605 -1.89658,1.5209 -5.47305,1.85267 -4.79665,-1.01914 -5.1732,3.89686 -6.16829,0.50313 -8.76781,0.19523 -2.36078,-0.28032 -3.75055,-3.926969 -4.29712,-7.385079"
   id="path274"
   style="fill:none;stroke:#e21f26;stroke-width:1.00379658;stroke-miterlimit:2.41420007" /><polygon
   points="471.206,319.824 476.817,321.62 472.855,317.259 471.206,319.824 "
   transform="matrix(0.69780644,0.01818029,-0.01670656,0.6412411,-137.39081,-71.599841)"
   id="polygon276"
   style="fill:#e21f26" /><path
   d="m 69.080767,88.841761 c 5.81189,3.666 6.1545,5.75511 4.97822,10.38509 0.12424,-2.69673 -12.08155,-5.37651 -14.43606,-0.27307"
   id="path278"
   style="fill:none;stroke:#e21f26;stroke-width:1.0037967;stroke-miterlimit:2.41420007" /><g
   transform="matrix(0.69804323,0,0,0.6414587,-144.51979,-65.168033)"
   id="g280">

<g
   id="g282">
	<path
   d="m 300.386,237.598 c -3.825,-1.643 -4.88,-1.228 -8.065,-3.726"
   id="path284"
   style="fill:none;stroke:#e21f26;stroke-width:1.50010002;stroke-miterlimit:2.41420007" />
	<polygon
   points="288.65,231.016 292.187,235.729 294.069,233.329 294.069,233.329 "
   id="polygon286"
   style="fill:#e21f26" />
	<polygon
   points="304.667,239.416 300.04,235.769 298.836,238.571 298.836,238.571 "
   id="polygon288"
   style="fill:#e21f26" />
	</g>

	</g><path
   d="m 61.773657,67.186261 c 2.11576,2.98199 -4.13172,3.48576 -2.929,7.45223 0.92841,3.0603 -7.9137,3.59745 -2.57296,7.80566"
   id="path290"
   style="fill:none;stroke:#e21f26;stroke-width:1.0037967;stroke-miterlimit:2.41420007" /><path
   d="m 59.254387,63.871651 c -1.17341,-1.52988 -1.89729,-7.402233 -3.19007,-9.495312"
   id="path296"
   style="fill:none;stroke:#e21f26;stroke-width:1.00379658;stroke-miterlimit:2.41420007" /><polygon
   points="287.258,195.966 289.911,194.46 289.911,194.46 285.776,190.263 "
   transform="matrix(0.69804323,0,0,0.6414587,-145.2671,-70.632743)"
   id="polygon298"
   style="fill:#e21f26" /><polygon
   points="294.617,204.957 292.584,199.426 290.091,201.183 290.091,201.183 "
   transform="matrix(0.69804323,0,0,0.6414587,-144.51979,-65.168033)"
   id="polygon300"
   style="fill:#e21f26" /><path
   d="m 53.712947,50.384506 c -2.04805,-3.821461 0.94935,-3.743813 -1.36955,-7.990124 2.12455,-4.337851 6.65792,-6.734641 10.98159,-3.90036 0.22548,-2.728069 2.62676,0.08303 4.35861,-1.207148"
   id="path302"
   style="fill:none;stroke:#e21f26;stroke-width:1.0037967;stroke-miterlimit:2.41420007" /><path
   d="m 81.859097,31.765241 c -2.27348,1.551409 -7.15933,0.474652 -10.27309,2.927743"
   id="path308"
   style="fill:none;stroke:#e21f26;stroke-width:1.00379658;stroke-miterlimit:2.41420007" /><polygon
   points="311.737,164.906 309.826,162.529 309.826,162.529 306.345,167.283 "
   transform="matrix(0.69740202,0.02991262,-0.02748786,0.64086947,-140.31199,-79.845339)"
   id="polygon310"
   style="fill:#e21f26" /><polygon
   points="314.695,160.286 317.856,155.314 312.632,158.04 314.695,160.286 "
   transform="matrix(0.69649166,0.04651574,-0.04274511,0.6400329,-130.10925,-84.580365)"
   id="polygon312"
   style="fill:#e21f26" /><path
   d="m 85.452217,28.944778 c 1.16015,-0.970793 2.19953,-1.50448 3.24799,-0.07606 2.97577,-2.537442 6.72628,2.055632 5.54309,3.179618 2.76985,1.828759 4.54853,1.530173 7.558503,0.845244 2.5311,-0.575261 2.49759,-1.488251 6.82826,-0.66922"
   id="path314"
   style="fill:none;stroke:#e21f26;stroke-width:1.0037967;stroke-miterlimit:2.41420007" /><path
   d="m 116.33866,37.962558 c -1.06237,-2.106735 -0.33011,-3.685723 -3.52128,-4.762225"
   id="path320"
   style="fill:none;stroke:#e21f26;stroke-width:1.00379658;stroke-miterlimit:2.41420007" /><polygon
   points="359.974,159.839 354.083,159.707 359.119,162.767 359.974,159.839 "
   transform="matrix(0.69786718,-0.01567683,0.01440605,0.64129691,-139.99053,-64.507407)"
   id="polygon322"
   style="fill:#e21f26" /><polygon
   points="366.515,168.043 370.395,172.477 369.251,166.697 366.515,168.043 "
   transform="matrix(0.69784452,0.01665482,-0.01530475,0.64127609,-138.01611,-75.836143)"
   id="polygon324"
   style="fill:#e21f26" /><path
   d="m 121.09765,77.292981 c 1.71718,-1.67616 6.23046,-4.83869 2.87109,-7.59628 -2.42728,-1.99248 -3.27388,-5.6636 -5.21793,-7.32209 -1.25159,-0.94494 1.48547,-6.966231 -1.69204,-9.398814 -0.52632,-2.335242 2.72602,-7.839274 0.89505,-11.637583"
   id="path326"
   style="fill:none;stroke:#e21f26;stroke-width:1.0037967;stroke-miterlimit:2.41420007" /><path
   d="m 118.426,80.803171 c -0.8124,1.02704 0.20791,2.05443 0.90388,2.90639 0.61433,0.75202 0.46979,2.02894 0.13193,3.24771 -0.41743,1.50935 -0.40556,3.93599 -0.14379,5.53964"
   id="path332"
   style="fill:none;stroke:#e21f26;stroke-width:1.00379658;stroke-miterlimit:2.41420007" /><polygon
   points="377.6,244.241 374.584,244.694 374.584,244.694 376.936,250.096 "
   transform="matrix(0.69804323,0,0,0.6414587,-143.29779,-65.20106)"
   id="polygon334"
   style="fill:#e21f26" /><polygon
   points="374.328,227.949 376.911,229.571 376.911,229.571 378.645,223.939 "
   transform="matrix(0.69802889,0.00447414,-0.00411146,0.64144552,-142.97978,-67.449992)"
   id="polygon336"
   style="fill:#e21f26" /><path
   d="m 122.048,93.779001 c 1.37793,2.59342 2.97044,2.85194 13.27914,0.92757 3.62424,3.83849 10.05322,0.27775 14.85018,-0.84096"
   id="path342"
   style="fill:none;stroke:#e21f26;stroke-width:1.00379658;stroke-miterlimit:2.41420007" /><polygon
   points="381.181,245.953 381.181,245.953 377.314,241.507 378.44,247.291 "
   transform="matrix(0.69804323,0,0,0.6414587,-142.83542,-63.979069)"
   id="polygon344"
   style="fill:#e21f26" /><g
   transform="matrix(0.69804323,0,0,0.6414587,-144.51979,-65.168033)"
   id="g346">

<g
   id="g348">
	<path
   d="m 467.316,224.308 c -7.677,5.557 -18.909,6.432 -23.847,14.422 -3.234,5.232 -9.991,5.52 -15.723,7.426"
   id="path350"
   style="fill:none;stroke:#e21f26;stroke-width:1.50010002;stroke-miterlimit:2.41420007" />
	<polygon
   points="423.338,247.641 429.221,247.292 428.258,244.397 428.258,244.397 "
   id="polygon352"
   style="fill:#e21f26" />
	</g>

	</g><g
   transform="matrix(0.69804323,0,0,0.6414587,-144.51979,-65.168033)"
   id="g354">

<g
   id="g356">
	<path
   d="m 516.461,224.558 c -5.232,-4.721 -10.918,-12.068 -15.223,-6.266 -4.458,-0.733 -20.736,-1.542 -28.619,2.854"
   id="path358"
   style="fill:none;stroke:#e21f26;stroke-width:1.50010002;stroke-miterlimit:2.41420007" />
	<polygon
   points="468.566,223.428 474.28,221.988 472.794,219.324 472.794,219.324 "
   id="polygon360"
   style="fill:#e21f26" />
	</g>

	</g><g
   transform="matrix(0.69804323,0,0,0.6414587,-144.51979,-65.168033)"
   id="g362">

<g
   id="g364">
	<path
   d="m 569.665,258.129 c -13.16,17.122 -26.776,-11.633 -31.854,-4.458 1.543,-6.035 -5,-8.573 -11.201,-7.139 6.576,-0.352 7.811,-7.862 4.295,-8.687 0.111,-4.116 -5.656,-4.722 -10.139,-9.122"
   id="path366"
   style="fill:none;stroke:#e21f26;stroke-width:1.50010002;stroke-miterlimit:2.41420007" />
	<polygon
   points="517.434,225.478 520.427,230.554 522.564,228.377 522.564,228.377 "
   id="polygon368"
   style="fill:#e21f26" />
	</g>

	</g><g
   transform="matrix(0.69804323,0,0,0.6414587,-144.51979,-65.168033)"
   id="g370">

<g
   id="g372">
	<path
   d="m 627.975,245.184 c 0.706,-9.08 -11.037,-9.007 -17.997,3.824 -6.125,11.291 -11.964,4.316 -16.251,4.174 -0.13,-3.768 -14.024,-7.086 -20.166,0.099"
   id="path374"
   style="fill:none;stroke:#e21f26;stroke-width:1.50010002;stroke-miterlimit:2.41420007" />
	<polygon
   points="570.552,256.828 575.411,253.493 573.092,251.511 573.092,251.511 "
   id="polygon376"
   style="fill:#e21f26" />
	</g>

	</g><g
   transform="matrix(0.69804323,0,0,0.6414587,-144.51979,-65.168033)"
   id="g378">

<g
   id="g380">
	<path
   d="m 623.92,267.169 c 0.474,-6.465 2.789,-10.257 3.477,-16.394"
   id="path382"
   style="fill:none;stroke:#e21f26;stroke-width:1.50010002;stroke-miterlimit:2.41420007" />
	<polygon
   points="627.897,246.151 625.747,251.637 628.778,251.977 628.778,251.977 "
   id="polygon384"
   style="fill:#e21f26" />
	</g>

	</g><circle
   cx="621.10699"
   cy="412.50299"
   r="1.556"
   transform="matrix(0.69804323,0,0,0.6414587,-141.74554,-52.551801)"
   id="Jerusalem"
   style="fill-rule:evenodd"
   sodipodi:cx="621.10699"
   sodipodi:cy="412.50299"
   sodipodi:rx="1.556"
   sodipodi:ry="1.556" /><circle
   cx="609.30902"
   cy="389.771"
   r="1.556"
   transform="matrix(0.69804323,0,0,0.6414587,-141.87764,-59.223212)"
   id="Caesarea"
   style="fill-rule:evenodd"
   sodipodi:cx="609.30902"
   sodipodi:cy="389.771"
   sodipodi:rx="1.556"
   sodipodi:ry="1.556" /><circle
   cx="611.60602"
   cy="378.47299"
   r="1.556"
   transform="matrix(0.69804323,0,0,0.6414587,-141.74554,-61.336926)"
   id="Ptolemais"
   style="fill-rule:evenodd"
   sodipodi:cx="611.60602"
   sodipodi:cy="378.47299"
   sodipodi:rx="1.556"
   sodipodi:ry="1.556" /><circle
   cx="611.79199"
   cy="367.957"
   r="1.556"
   transform="matrix(0.69804323,0,0,0.6414587,-139.89604,-62.129569)"
   id="Tyre"
   style="fill-rule:evenodd"
   sodipodi:cx="611.79199"
   sodipodi:cy="367.957"
   sodipodi:rx="1.556"
   sodipodi:ry="1.556" /><circle
   cx="623.84998"
   cy="267.202"
   r="1.556"
   transform="matrix(0.69804323,0,0,0.6414587,-144.51979,-65.168033)"
   id="Antioch_x2C__Syria_1_"
   style="fill-rule:evenodd"
   sodipodi:cx="623.84998"
   sodipodi:cy="267.202"
   sodipodi:rx="1.556"
   sodipodi:ry="1.556" /><circle
   cx="537.67401"
   cy="253.524"
   r="1.556"
   transform="matrix(0.69804323,0,0,0.6414587,-144.51979,-65.168033)"
   id="Derbe"
   style="fill-rule:evenodd"
   sodipodi:cx="537.67401"
   sodipodi:cy="253.524"
   sodipodi:rx="1.556"
   sodipodi:ry="1.556" /><circle
   cx="454.15302"
   cy="294.021"
   r="1.556"
   transform="matrix(0.69804323,0,0,0.6414587,-145.08027,-62.552445)"
   id="Patara"
   style="fill-rule:evenodd"
   sodipodi:cx="454.15302"
   sodipodi:cy="294.021"
   sodipodi:rx="1.556"
   sodipodi:ry="1.556" /><circle
   cx="426.91299"
   cy="292.82001"
   r="1.556"
   transform="matrix(0.69804323,0,0,0.6414587,-144.74897,-61.785822)"
   id="Rhodes"
   style="fill-rule:evenodd"
   sodipodi:cx="426.91299"
   sodipodi:cy="292.82001"
   sodipodi:rx="1.556"
   sodipodi:ry="1.556" /><circle
   cx="402.37"
   cy="260.70001"
   r="1.556"
   transform="matrix(0.69804323,0,0,0.6414587,-142.03889,-63.523332)"
   id="Miletus"
   style="fill-rule:evenodd"
   sodipodi:cx="402.37"
   sodipodi:cy="260.70001"
   sodipodi:rx="1.556"
   sodipodi:ry="1.556" /><circle
   cx="400.979"
   cy="249.20399"
   r="1.556"
   transform="matrix(0.69804323,0,0,0.6414587,-144.51979,-65.168033)"
   id="Ephesus"
   style="fill-rule:evenodd"
   sodipodi:cx="400.979"
   sodipodi:cy="249.20399"
   sodipodi:rx="1.556"
   sodipodi:ry="1.556" /><circle
   cx="374.293"
   cy="202.47701"
   r="1.556"
   transform="matrix(0.69804323,0,0,0.6414587,-144.33296,-67.129724)"
   id="Assos"
   style="fill-rule:evenodd"
   sodipodi:cx="374.293"
   sodipodi:cy="202.47701"
   sodipodi:rx="1.556"
   sodipodi:ry="1.556" /><circle
   cx="370.491"
   cy="191.22099"
   r="1.556"
   transform="matrix(0.69804323,0,0,0.6414587,-143.11858,-69.184828)"
   id="Troas"
   style="fill-rule:evenodd"
   sodipodi:cx="370.491"
   sodipodi:cy="191.22099"
   sodipodi:rx="1.556"
   sodipodi:ry="1.556" /><circle
   cx="323.64999"
   cy="154.763"
   r="1.556"
   transform="matrix(0.69804323,0,0,0.6414587,-137.42033,-68.624345)"
   id="Philipi"
   style="fill-rule:evenodd"
   sodipodi:cx="323.64999"
   sodipodi:cy="154.763"
   sodipodi:rx="1.556"
   sodipodi:ry="1.556" /><circle
   cx="296.586"
   cy="168.70599"
   r="1.556"
   transform="matrix(0.69804323,0,0,0.6414587,-143.02516,-68.344104)"
   id="Thessalonica"
   style="fill-rule:evenodd"
   sodipodi:cx="296.586"
   sodipodi:cy="168.70599"
   sodipodi:rx="1.556"
   sodipodi:ry="1.556" /><circle
   cx="283.12799"
   cy="176.071"
   r="1.556"
   transform="matrix(0.69804323,0,0,0.6414587,-146.10782,-70.399209)"
   id="Berea"
   style="fill-rule:evenodd"
   sodipodi:cx="283.12799"
   sodipodi:cy="176.071"
   sodipodi:rx="1.556"
   sodipodi:ry="1.556" /><circle
   cx="294.59299"
   cy="254.634"
   r="1.556"
   transform="matrix(0.69804323,0,0,0.6414587,-146.6683,-63.299756)"
   id="Corinth"
   style="fill-rule:evenodd"
   sodipodi:cx="294.59299"
   sodipodi:cy="254.634"
   sodipodi:rx="1.556"
   sodipodi:ry="1.556" />
   

   

   
<line
   id="Mytelene_line"
   stroke-miterlimit="2.4142"
   x1="119.49977"
   y1="71.360527"
   x2="116.41045"
   y2="73.571198"
   style="fill:none;stroke:#000000;stroke-width:0.35724351;stroke-miterlimit:2.41420007"
   mask="none" />
   

   






<text
   x="187.27968"
   y="249.51338"
   id="Region_Egypt"
   style="font-size:6px;fill:#ff0000;font-family:Arial">EGYPT</text>











<text
   x="287.75354"
   y="247.33568"
   id="Region_Arabia"
   style="font-size:6px;fill:#ff0000;font-family:Arial">ARABIA</text>











<text
   x="292.40112"
   y="131.03398"
   id="Region_Syria"
   style="font-size:6px;fill:#ff0000;font-family:Arial">SYRIA</text>





<text
   x="-157.8112"
   y="318.39679"
   id="Region_Phoenicia"
   style="font-size:6px;fill:#ff0000;font-family:Arial"
   transform="matrix(0.15749508,-0.98751977,0.98751977,0.15749508,0,0)">PHOENICIA</text>



   


<text
   x="-29.689613"
   y="363.68222"
   id="Region_Judea"
   style="font-size:6px;fill:#ff0000;font-family:Arial"
   transform="matrix(0.57386812,-0.81894773,0.81894773,0.57386812,0,0)">JUDEA</text>











<text
   x="228.78108"
   y="-17.710333"
   transform="matrix(0.86982776,0.50703453,-0.52153554,0.84564267,0,0)"
   id="Region_Pamphylia"
   style="font-size:6.09881687px;fill:#ff0000;font-family:Arial">PAMPHYLIA</text>











<text
   x="165.49474"
   y="116.97137"
   id="Region_Lycia"
   style="font-size:6px;fill:#ff0000;font-family:Arial">LYCIA</text>











<text
   x="247.40193"
   y="71.922165"
   id="Region_Cappadocia"
   style="font-size:6px;fill:#ff0000;font-family:Arial">CAPPADOCIA</text>











<text
   x="293.00961"
   y="42.840557"
   id="Region_Armenia"
   style="font-size:6px;fill:#ff0000;font-family:Arial">ARMENIA</text>











<text
   x="242.09703"
   y="47.343464"
   id="Region_Galatia"
   style="font-size:6px;fill:#ff0000;font-family:Arial">GALATIA</text>











<text
   x="208.46562"
   y="20.259995"
   id="Region_Pontus"
   style="font-size:6px;fill:#ff0000;font-family:Arial">PONTUS</text>











<text
   x="182.31526"
   y="36.830799"
   id="Region_Bithynia"
   style="font-size:6px;fill:#ff0000;font-family:Arial">BITHYNIA</text>











<text
   x="169.99953"
   y="68.695389"
   id="Region_Asia"
   style="font-size:6px;fill:#ff0000;font-family:Arial">ASIA</text>





















<text
   x="42.047436"
   y="117.45184"
   id="Region_Achaia"
   style="font-size:6px;fill:#ff0000;font-family:Arial">Achaia</text>











<text
   x="5.1439795"
   y="19.77866"
   id="Region_Macedonia"
   style="font-size:6px;fill:#ff0000;font-family:Arial">MACEDONIA</text>



















































<text
   x="156.43544"
   y="180.03035"
   id="Sea_Mediterranean"
   style="font-size:6px;fill:#ff0000;font-family:Arial">MEDITERRANEAN SEA</text>





















<text
   x="198.7198"
   y="94.261948"
   id="Region_Pisidia"
   style="font-size:6px;fill:#ff0000;font-family:Arial">PISIDIA</text>











<text
   x="123.51556"
   y="239.19838"
   transform="matrix(0.80932735,-0.59422457,0.61121919,0.78682444,0,0)"
   id="Region_Cilicia"
   style="font-size:6.09881687px;fill:#ff0000;font-family:Arial">CILICIA</text>











<text
   x="143.45268"
   y="143.37289"
   id="Island_Rhodes"
   style="font-size:6px;fill:#ff0000;font-family:Arial">Rhodes</text>








<text
   x="123.20662"
   y="125.15253"
   id="Island_Cos"
   style="font-size:6px;fill:#ff0000;font-family:Arial">Cos</text>






<text
   x="95.286087"
   y="110.49574"
   id="Island_Samos"
   style="font-size:6px;fill:#ff0000;font-family:Arial">Samos</text>






















<text
   x="95.237167"
   y="89.241257"
   id="Island_Chios"
   style="font-size:6px;fill:#ff0000;font-family:Arial">Chios</text>





















<text
   x="111.70312"
   y="262.36996"
   id="Island_Cyprus"
   style="font-size:6px;fill:#ff0000;font-family:Arial"
   transform="matrix(0.82298735,-0.5680597,0.5680597,0.82298735,0,0)">Cyprus</text>











<text
   x="90.433586"
   y="156.85971"
   id="Island_Crete"
   style="font-size:6px;fill:#ff0000;font-family:Arial">Crete</text>





















































<text
   x="255.96849"
   y="195.73505"
   id="City_Caesarea"
   style="font-size:6px;fill:#ff0000;font-family:Arial">Caesarea</text>











<text
   x="289.63885"
   y="184.61929"
   id="City_Ptolemais"
   style="font-size:6px;fill:#ff0000;font-family:Arial">Ptolemais</text>






















<text
   x="291.66086"
   y="176.1364"
   id="City_Tyre"
   style="font-size:6px;fill:#ff0000;font-family:Arial">Tyre</text>











<text
   x="293.85196"
   y="214.23906"
   id="City_Jerusalem"
   style="font-size:6px;fill:#ff0000;font-family:Arial">Jerusalem</text>





















































<text
   x="294.50354"
   y="107.90316"
   id="City_Antioch-A"
   style="font-size:6px;fill:#ff0000;font-family:Arial">Antioch</text>






















<text
   x="236.67058"
   y="97.583939"
   id="City_Derbe"
   style="font-size:6px;fill:#ff0000;font-family:Arial">Derbe</text>















































































































































<text
   x="165.7426"
   y="124.74712"
   id="City_Patara"
   style="font-size:6px;fill:#ff0000;font-family:Arial">Patara</text>






















<text
   x="140.00304"
   y="109.1445"
   id="City_Miletus"
   style="font-size:6px;fill:#ff0000;font-family:Arial">Miletus</text>











<text
   x="122.66481"
   y="92.262054"
   id="City_Ephesus"
   style="font-size:6px;fill:#ff0000;font-family:Arial">Ephesus</text>

































<text
   x="97.636581"
   y="65.451691"
   id="City_Assos"
   style="font-size:6px;fill:#ff0000;font-family:Arial">Assos</text>











<text
   x="119.97084"
   y="56.530865"
   id="City_Troas"
   style="font-size:6px;fill:#ff0000;font-family:Arial">Troas</text>






















<text
   x="76.81543"
   y="26.128338"
   id="City_Philippi"
   style="font-size:6px;fill:#ff0000;font-family:Arial">Philippi</text>

































<text
   x="29.724165"
   y="35.60088"
   id="City_Thessalonica"
   style="font-size:6px;fill:#ff0000;font-family:Arial">Thessalonica</text>











<text
   x="33.811947"
   y="44.244221"
   id="City_Berea"
   style="font-size:6px;fill:#ff0000;font-family:Arial">Berea</text>






















<text
   x="38.977062"
   y="106.10674"
   id="City_Corinth"
   style="font-size:6px;fill:#ff0000;font-family:Arial">Corinth</text>

































































































































































































<rect
   width="346.20749"
   height="255.83304"
   x="0.69518822"
   y="-0.48384136"
   id="Map_Border"
   style="fill:none;stroke:#000000;stroke-width:1.39037645;stroke-miterlimit:2.41420007;stroke-dasharray:none" />

<g
   style="overflow:visible"
   id="g2976"
   transform="translate(22.052017,5.5726078)"><g
     id="g2852"
     transform="matrix(0.57540967,0,0,0.6414587,-175.64325,-133.84114)"><rect
       height="3.1889999"
       id="rect2854"
       style="fill:#ffffff;fill-rule:evenodd;stroke:#000000;stroke-width:0.2579;stroke-miterlimit:2.41420007"
       width="29.139999"
       x="431.353"
       y="505.80399" /><line
       id="line2856"
       stroke-miterlimit="2.4142"
       style="fill:#ffffff;fill-rule:evenodd;stroke:#000000;stroke-width:1.18560004;stroke-miterlimit:2.41420007"
       x1="431.353"
       x2="460.49301"
       y1="507.39801"
       y2="507.39801" /></g><rect
     height="2.0456116"
     id="rect2858"
     style="fill:#ffffff;fill-rule:evenodd;stroke:#000000;stroke-width:0.15710914;stroke-miterlimit:2.41420007"
     width="16.767437"
     x="55.794006"
     y="190.61122" /><g
     id="g2860"
     transform="matrix(0.57540967,0,0,0.6414587,-175.64325,-133.84114)"><rect
       height="3.1889999"
       id="rect2862"
       style="fill:#ffffff;fill-rule:evenodd;stroke:#000000;stroke-width:0.2579;stroke-miterlimit:2.41420007"
       width="29.141001"
       x="373.073"
       y="505.80399" /><line
       id="line2864"
       stroke-miterlimit="2.4142"
       style="fill:#ffffff;fill-rule:evenodd;stroke:#000000;stroke-width:1.18560004;stroke-miterlimit:2.41420007"
       x1="373.181"
       x2="402.32101"
       y1="507.39801"
       y2="507.39801" /></g></g><g
   transform="translate(24.83277,4.1822378)"
   style="overflow:visible"
   id="g2959"><g
     id="Right_Center"
     transform="matrix(0.69804323,0,0,0.6414587,-229.30614,-153.28308)"><rect
       height="3.1889999"
       id="Outside_2_"
       style="fill:#ffffff;fill-rule:evenodd;stroke:#000000;stroke-width:0.2579;stroke-miterlimit:2.41420007"
       width="29.139999"
       x="431.353"
       y="505.80399" /><line
       id="Inside_1_"
       stroke-miterlimit="2.4142"
       style="fill:#ffffff;fill-rule:evenodd;stroke:#000000;stroke-width:1.18560004;stroke-miterlimit:2.41420007"
       x1="431.353"
       x2="460.49301"
       y1="507.39801"
       y2="507.39801" /></g><rect
     height="2.0456116"
     id="Left_Center"
     style="fill:#ffffff;fill-rule:evenodd;stroke:#000000;stroke-width:0.173043;stroke-miterlimit:2.41420007"
     width="20.340979"
     x="51.455929"
     y="171.16928" /><g
     id="Far_Left"
     transform="matrix(0.69804323,0,0,0.6414587,-229.30614,-153.28308)"><rect
       height="3.1889999"
       id="Outside"
       style="fill:#ffffff;fill-rule:evenodd;stroke:#000000;stroke-width:0.2579;stroke-miterlimit:2.41420007"
       width="29.141001"
       x="373.073"
       y="505.80399" /><line
       id="Inside"
       stroke-miterlimit="2.4142"
       style="fill:#ffffff;fill-rule:evenodd;stroke:#000000;stroke-width:1.18560004;stroke-miterlimit:2.41420007"
       x1="373.181"
       x2="402.32101"
       y1="507.39801"
       y2="507.39801" /></g></g><text
   sodipodi:linespacing="100%"
   id="Scale_K_Number_A"
   style="font-size:8px;font-style:normal;font-variant:normal;font-weight:normal;font-stretch:normal;text-align:start;line-height:100%;writing-mode:lr-tb;text-anchor:start;overflow:visible;font-family:Charis SIL;-inkscape-font-specification:Charis SIL"
   x="54.679272"
   y="183.81853">0</text>
<text
   sodipodi:linespacing="100%"
   id="Scale_K_Number_B"
   style="font-size:8px;font-style:normal;font-variant:normal;font-weight:normal;font-stretch:normal;text-align:start;line-height:100%;writing-mode:lr-tb;text-anchor:start;overflow:visible;font-family:Charis SIL;-inkscape-font-specification:Charis SIL"
   x="71.52562"
   y="183.81853">100</text>
<text
   sodipodi:linespacing="100%"
   id="Scale_K_Number_C"
   style="font-size:8px;font-style:normal;font-variant:normal;font-weight:normal;font-stretch:normal;text-align:start;line-height:100%;writing-mode:lr-tb;text-anchor:start;overflow:visible;font-family:Charis SIL;-inkscape-font-specification:Charis SIL"
   x="92.159309"
   y="183.81853">200</text>
<text
   sodipodi:linespacing="100%"
   id="Scale_K_Number_D"
   style="font-size:8px;font-style:normal;font-variant:normal;font-weight:normal;font-stretch:normal;text-align:start;line-height:100%;writing-mode:lr-tb;text-anchor:start;overflow:visible;font-family:Charis SIL;-inkscape-font-specification:Charis SIL"
   x="112.2019"
   y="183.81853">300</text>
<text
   sodipodi:linespacing="100%"
   id="Scale_K_DistanceKey"
   style="font-size:8px;font-style:normal;font-variant:normal;font-weight:normal;font-stretch:normal;text-align:start;line-height:100%;writing-mode:lr-tb;text-anchor:start;overflow:visible;font-family:Charis SIL;-inkscape-font-specification:Charis SIL"
   x="75.116165"
   y="189.82625">Kilometers</text>
<text
   sodipodi:linespacing="100%"
   id="Scale_M_Number_A"
   style="font-size:8px;font-style:normal;font-variant:normal;font-weight:normal;font-stretch:normal;text-align:start;line-height:100%;writing-mode:lr-tb;text-anchor:start;overflow:visible;font-family:Charis SIL;-inkscape-font-specification:Charis SIL"
   x="59.811054"
   y="203.65739">0</text>
<text
   sodipodi:linespacing="100%"
   id="Scale_M_Number_B"
   style="font-size:8px;font-style:normal;font-variant:normal;font-weight:normal;font-stretch:normal;text-align:start;line-height:100%;writing-mode:lr-tb;text-anchor:start;overflow:visible;font-family:Charis SIL;-inkscape-font-specification:Charis SIL"
   x="74.75621"
   y="203.65739">50</text>
<text
   sodipodi:linespacing="100%"
   id="Scale_M_Number_C"
   style="font-size:8px;font-style:normal;font-variant:normal;font-weight:normal;font-stretch:normal;text-align:start;line-height:100%;writing-mode:lr-tb;text-anchor:start;overflow:visible;font-family:Charis SIL;-inkscape-font-specification:Charis SIL"
   x="89.957146"
   y="203.65739">100</text>
<text
   sodipodi:linespacing="100%"
   id="Scale_M_Number_D"
   style="font-size:8px;font-style:normal;font-variant:normal;font-weight:normal;font-stretch:normal;text-align:start;line-height:100%;writing-mode:lr-tb;text-anchor:start;overflow:visible;font-family:Charis SIL;-inkscape-font-specification:Charis SIL"
   x="106.69611"
   y="203.65739">150</text>
<text
   sodipodi:linespacing="100%"
   id="Scale_M_DistanceKey"
   style="font-size:8px;font-style:normal;font-variant:normal;font-weight:normal;font-stretch:normal;text-align:start;line-height:100%;writing-mode:lr-tb;text-anchor:start;overflow:visible;font-family:Charis SIL;-inkscape-font-specification:Charis SIL"
   x="80.314995"
   y="210.84637">Miles</text>
<rect
   height="24.174969"
   id="rect3027"
   style="fill:#ffffff;fill-opacity:1;stroke:#000000;stroke-width:0.69439477;stroke-miterlimit:4;stroke-opacity:1;stroke-dasharray:none;overflow:visible"
   width="115.82113"
   x="12.905137"
   y="224.20782" />

<text
   x="69.376801"
   y="235.5477"
   style="font-size:10px;font-style:normal;font-variant:normal;font-weight:normal;font-stretch:normal;text-align:center;line-height:100%;writing-mode:lr-tb;text-anchor:middle;fill:#ff0000;fill-opacity:1;stroke:none;overflow:visible;font-family:Arial;-inkscape-font-specification:Arial"
   id="Title-m08c_Main"
   sodipodi:linespacing="100%">Paul’s Third Missionary Journey</text>
<text
   x="69.192459"
   y="244.58035"
   style="font-size:9px;font-style:normal;font-variant:normal;font-weight:normal;font-stretch:normal;text-align:center;line-height:100%;writing-mode:lr-tb;text-anchor:middle;fill:#ff0000;fill-opacity:1;stroke:none;overflow:visible;font-family:Arial;-inkscape-font-specification:Arial"
   id="Ref-m08c_Title"
   sodipodi:linespacing="100%">Acts 18:26–21:16</text>

</svg>
