<?xml version="1.0" encoding="UTF-8" standalone="no"?>
<!-- Created with Inkscape (http://www.inkscape.org/) -->

<svg
   xmlns:dc="http://purl.org/dc/elements/1.1/"
   xmlns:cc="http://creativecommons.org/ns#"
   xmlns:rdf="http://www.w3.org/1999/02/22-rdf-syntax-ns#"
   xmlns:svg="http://www.w3.org/2000/svg"
   xmlns="http://www.w3.org/2000/svg"
   xmlns:xlink="http://www.w3.org/1999/xlink"
   xmlns:sodipodi="http://sodipodi.sourceforge.net/DTD/sodipodi-0.dtd"
   xmlns:inkscape="http://www.inkscape.org/namespaces/inkscape"
   version="1.0"
   width="708.66138"
   height="425.19684"
   viewBox="0 0 492.65303 293.24132"
   id="svg2"
   xml:space="preserve"
   style="overflow:visible"
   inkscape:version="0.47 r22583"
   sodipodi:docname="m08d-map.svg"><metadata
   id="metadata3653"><rdf:RDF><cc:Work
       rdf:about=""><dc:format>image/svg+xml</dc:format><dc:type
         rdf:resource="http://purl.org/dc/dcmitype/StillImage" /></cc:Work></rdf:RDF></metadata><sodipodi:namedview
   pagecolor="#ffffff"
   bordercolor="#666666"
   borderopacity="1"
   objecttolerance="10"
   gridtolerance="10"
   guidetolerance="10"
   inkscape:pageopacity="0"
   inkscape:pageshadow="2"
   inkscape:window-width="1440"
   inkscape:window-height="877"
   id="namedview3651"
   showgrid="false"
   inkscape:zoom="1.8473468"
   inkscape:cx="364.66837"
   inkscape:cy="262.63359"
   inkscape:window-x="1440"
   inkscape:window-y="0"
   inkscape:window-maximized="1"
   inkscape:current-layer="svg2" /><defs
   id="defs422"><inkscape:perspective
     sodipodi:type="inkscape:persp3d"
     inkscape:vp_x="0 : 212.59842 : 1"
     inkscape:vp_y="0 : 1000 : 0"
     inkscape:vp_z="708.66138 : 212.59842 : 1"
     inkscape:persp3d-origin="354.33069 : 141.73228 : 1"
     id="perspective3655" /><inkscape:perspective
     id="perspective3665"
     inkscape:persp3d-origin="0.5 : 0.33333333 : 1"
     inkscape:vp_z="1 : 0.5 : 1"
     inkscape:vp_y="0 : 1000 : 0"
     inkscape:vp_x="0 : 0.5 : 1"
     sodipodi:type="inkscape:persp3d" /><inkscape:perspective
     id="perspective3239"
     inkscape:persp3d-origin="0.5 : 0.33333333 : 1"
     inkscape:vp_z="1 : 0.5 : 1"
     inkscape:vp_y="0 : 1000 : 0"
     inkscape:vp_x="0 : 0.5 : 1"
     sodipodi:type="inkscape:persp3d" /><inkscape:perspective
     id="perspective4118"
     inkscape:persp3d-origin="0.5 : 0.33333333 : 1"
     inkscape:vp_z="1 : 0.5 : 1"
     inkscape:vp_y="0 : 1000 : 0"
     inkscape:vp_x="0 : 0.5 : 1"
     sodipodi:type="inkscape:persp3d" /><inkscape:perspective
     id="perspective5005"
     inkscape:persp3d-origin="0.5 : 0.33333333 : 1"
     inkscape:vp_z="1 : 0.5 : 1"
     inkscape:vp_y="0 : 1000 : 0"
     inkscape:vp_x="0 : 0.5 : 1"
     sodipodi:type="inkscape:persp3d" /><inkscape:perspective
     id="perspective5005-5"
     inkscape:persp3d-origin="0.5 : 0.33333333 : 1"
     inkscape:vp_z="1 : 0.5 : 1"
     inkscape:vp_y="0 : 1000 : 0"
     inkscape:vp_x="0 : 0.5 : 1"
     sodipodi:type="inkscape:persp3d" /></defs>
   

<image
   sodipodi:absref="/home/dennis/Projects/ptxplus/resources/lib_maps/m08d-bkgrnd.png"
   xlink:href="m08d-bkgrnd.png"
   x="-7.8271487e-06"
   y="-1.1752537"
   width="492.65305"
   height="295.59183"
   id="image13712" />

<g
   transform="matrix(0.57540967,0,0,0.6414587,-151.71624,-88.874843)"
   id="g2848"
   style="overflow:visible">

<rect
   width="29.139"
   height="3.1889999"
   x="460.48499"
   y="505.80399"
   id="rect2850"
   style="fill:#ffffff;fill-rule:evenodd;stroke:#000000;stroke-width:0.2586;stroke-miterlimit:2.41420007" />

<g
   id="g2852">

<rect
   width="29.139999"
   height="3.1889999"
   x="431.353"
   y="505.80399"
   id="rect2854"
   style="fill:#ffffff;fill-rule:evenodd;stroke:#000000;stroke-width:0.2579;stroke-miterlimit:2.41420007" />

<line
   style="fill:#ffffff;fill-rule:evenodd;stroke:#000000;stroke-width:1.18560004;stroke-miterlimit:2.41420007"
   y2="507.39801"
   x2="460.49301"
   y1="507.39801"
   x1="431.353"
   stroke-miterlimit="2.4142"
   id="line2856" />
	</g>

<rect
   width="29.139999"
   height="3.1889999"
   x="402.21301"
   y="505.80399"
   id="rect2858"
   style="fill:#ffffff;fill-rule:evenodd;stroke:#000000;stroke-width:0.2586;stroke-miterlimit:2.41420007" />

<g
   id="g2860">

<rect
   width="29.141001"
   height="3.1889999"
   x="373.073"
   y="505.80399"
   id="rect2862"
   style="fill:#ffffff;fill-rule:evenodd;stroke:#000000;stroke-width:0.2579;stroke-miterlimit:2.41420007" />

<line
   style="fill:#ffffff;fill-rule:evenodd;stroke:#000000;stroke-width:1.18560004;stroke-miterlimit:2.41420007"
   y2="507.39801"
   x2="402.32101"
   y1="507.39801"
   x1="373.181"
   stroke-miterlimit="2.4142"
   id="line2864" />
	</g>

	</g>



<polygon
   points="118.703,331.618 116.842,331.806 118.255,333.031 115.8,332.252 114.393,331.028 114.393,331.028 116.249,330.839 "
   transform="matrix(0.69804323,0,0,0.67912611,0.93169837,-33.279844)"
   id="polygon388"
   style="fill-rule:evenodd" /><polygon
   points="104.609,299.646 106.157,298.604 106.157,298.604 105.858,300.444 104.47,302.613 104.771,300.768 103.221,301.814 "
   transform="matrix(0.69804323,0,0,0.6414587,0.6674841,-21.115237)"
   id="polygon390"
   style="fill-rule:evenodd" /><polygon
   points="98.465,196.176 98.465,196.176 99.948,197.307 101.206,199.555 99.72,198.418 99.912,200.278 98.654,198.031 "
   transform="matrix(0.69804323,0,0,0.6414587,1.3280198,-31.815916)"
   id="polygon392"
   style="fill-rule:evenodd" /><polygon
   points="71.92,142.844 69.565,141.802 68.299,140.432 68.299,140.432 70.165,140.446 72.52,141.488 70.65,141.472 "
   transform="matrix(0.69804323,0,0,0.6414587,0.79959124,-32.476451)"
   id="polygon394"
   style="fill-rule:evenodd" /><polygon
   points="283.112,357.034 284.881,356.441 287.447,356.662 285.673,357.254 287.32,358.139 284.754,357.919 283.112,357.034 "
   transform="matrix(0.69804323,0,0,0.67063431,1.2619662,-31.184351)"
   id="polygon396"
   style="fill-rule:evenodd" /><polygon
   points="603.348,317.636 603.907,315.856 603.907,315.856 604.823,317.481 605.092,320.042 604.174,318.412 603.618,320.197 "
   transform="matrix(0.69804323,0,0,0.6414587,0.0069484,-32.476451)"
   id="polygon398"
   style="fill-rule:evenodd" /><polygon
   points="387.855,322.445 387.525,324.999 386.571,326.602 386.571,326.602 386.055,324.809 386.385,322.255 386.9,324.053 "
   transform="matrix(0.6572755,-0.10909404,0.09557013,0.63357641,-11.255735,24.267484)"
   id="polygon400"
   style="fill-rule:evenodd" /><polygon
   points="113.655,261.604 112.44,263.021 111.678,265.479 112.894,264.06 113.094,265.919 113.856,263.459 113.655,261.604 "
   transform="matrix(0.69804323,0,0,0.6414587,2.384877,-26.43255)"
   id="polygon402"
   style="fill-rule:evenodd" /><polygon
   points="528.354,305.293 526.663,304.498 528.401,303.812 525.828,303.729 524.092,304.416 524.092,304.416 525.78,305.211 "
   transform="matrix(0.69702274,0.04000307,-0.03467277,0.67908561,15.329646,-60.132716)"
   id="polygon404"
   style="fill-rule:evenodd" /><polygon
   points="606.807,367.068 606.807,367.068 605.686,368.561 605.086,371.064 606.208,369.568 606.528,371.41 607.128,368.906 "
   transform="matrix(0.69804323,0,0,0.6414587,0.27116268,-31.782889)"
   id="polygon406"
   style="fill-rule:evenodd" /><path
   d="M 49.369773,58.026383 C 41.984476,55.023714 41.273868,52.499574 38.738575,49.047244"
   id="path408"
   style="fill:none;stroke:#000000;stroke-width:1.00379658;stroke-miterlimit:2.41420007" /><g
   transform="matrix(0.69804323,0,0,0.6414587,0.93169838,-32.344344)"
   id="g410">

<g
   id="g412">
	<path
   d="m 99.755,198.481 c -5.493,-9.814 -16.7,-29.241 -12.968,-36.649 2.234,-6.564 0.744,-13.619 -10.743,-18.202"
   id="path414"
   style="fill:none;stroke:#000000;stroke-width:1.50010002;stroke-miterlimit:2.41420007" />
	<polygon
   points="77.569,142.616 77.569,142.616 71.718,141.923 76.439,145.449 "
   id="polygon416" />
	</g>

	</g><g
   transform="matrix(0.69804323,0,0,0.6414587,-0.389373,-24.021594)"
   id="g418">

<g
   id="g420">
	<path
   d="m 105.78705,192.16386 c 1.11853,1.83575 5.1922,7.91593 6.16923,9.59453 24.13599,41.46743 0.363,43.15297 6.12572,48.52261 -3.8877,3.44632 0.81358,3.52709 -1.04542,9.52309"
   id="path422"
   style="fill:none;stroke:#000000;stroke-width:1.50010002;stroke-miterlimit:2.41420007" />
	<polygon
   points="104.586,203.595 100.323,199.528 101.982,205.183 104.586,203.595 "
   transform="translate(2.6495493,-11.944984)"
   id="polygon424" />
	</g>

	</g><g
   transform="matrix(0.69804323,0,0,0.6414587,2.1206626,-26.399522)"
   id="g426">

<g
   id="g428">
	<path
   d="m 102.65021,309.06692 c 4.279,-6.686 3.91148,-15.21645 1.40348,-23.10045 4.971,-1.187 6.55819,-10.48103 7.78119,-15.83103"
   id="path430"
   style="fill:none;stroke:#000000;stroke-width:1.50010002;stroke-miterlimit:2.41420007" />
	<polygon
   points="109.813,270.548 112.787,271.228 112.787,271.228 112.569,265.339 "
   transform="translate(0.33119366,-0.20594801)"
   id="polygon432" />
	</g>

	</g><g
   transform="matrix(0.69804323,0,0,0.6414587,0.46932339,-20.917076)"
   id="g434">

<g
   id="g436">
	<path
   d="m 116.912,331.827 c -14.308,-4.54 -24.22,-9.496 -29.49,-16.533 4.772,-1.298 9.999,-2.838 14.081,-9.369"
   id="path438"
   style="fill:none;stroke:#000000;stroke-width:1.50010002;stroke-miterlimit:2.41420007" />
	<polygon
   points="99.642,305.989 102.229,307.605 102.229,307.605 103.952,301.971 "
   id="polygon440" />
	</g>

	</g><g
   transform="matrix(0.69804323,0,0,0.6414587,1.0472921,-20.768455)"
   id="g442">

<g
   id="g444">
	<path
   d="m 285.745,357.26 c -75.548,-6.485 -94.102,-4.518 -163.282,-23.798"
   id="path446"
   style="fill:none;stroke:#000000;stroke-width:1.50010002;stroke-miterlimit:2.41420007" />
	<polygon
   points="123.87,332.29 123.87,332.29 117.978,332.23 123.051,335.229 "
   id="polygon448" />
	</g>

	</g><path
   d="m 239.30249,199.96446 c -2.6705,6.25025 -21.64332,9.13365 -34.72185,8.6641"
   id="path454"
   style="fill:none;stroke:#000000;stroke-width:1.00379658;stroke-miterlimit:2.41420007" /><polygon
   points="292.675,356.127 292.675,356.127 286.929,357.429 292.557,359.175 "
   transform="matrix(0.69804323,0,0,0.6414587,1.0472916,-20.784969)"
   id="polygon456" /><g
   transform="matrix(0.69804323,0,0,0.6414587,0.86564485,-19.529951)"
   id="g458">

<g
   id="g460">
	<path
   d="m 391.30346,322.94642 c 0.61455,10.05033 -7.5068,26.04761 -16.0733,29.74462 C 368.26446,355.6972 352.778,355.67 346.72,346.337"
   id="path462"
   style="fill:none;stroke:#000000;stroke-width:1.50010002;stroke-miterlimit:2.41420007" />
	<polygon
   points="345.991,348.05 348.549,346.39 348.549,346.39 344.171,342.445 "
   id="polygon464" />
	</g>

	</g><g
   transform="matrix(0.69804323,0,0,0.6414587,3.8380555,-20.520755)"
   id="g466">

<g
   id="g468">
	<path
   d="m 387.63,318.133 c 1.17348,-8.968 0.25486,-17.92378 9.35943,-24.99722 4.59166,-3.56732 4.19999,-6.02601 6.68801,-9.52113 11.38309,17.45138 23.8556,-13.90295 43.94756,15.34435 6.02351,8.76825 12.82359,2.61188 23.05159,-7.93712 4.133,12.406 30.98445,-0.86737 56.15304,2.4599"
   id="path470"
   style="fill:none;stroke:#000000;stroke-width:1.50010002;stroke-miterlimit:2.41420007"
   sodipodi:nodetypes="cscscc" />
	<polygon
   points="387.045,322.747 389.296,317.302 386.272,316.906 386.272,316.906 "
   id="polygon472" />
	</g>

	</g><path
   d="m 421.7521,171.55367 c -1.27602,-11.1678 -11.33232,-15.90792 -23.10505,-10.55467 -10.40922,5.09061 -11.13519,6.74436 -22.43791,6.81941"
   id="path478"
   style="fill:none;stroke:#000000;stroke-width:1.00379658;stroke-miterlimit:2.41420007" /><polygon
   points="534.218,306.063 534.196,303.013 534.196,303.013 528.515,304.578 "
   transform="matrix(0.69804323,0,0,0.6414587,3.8380555,-27.588486)"
   id="polygon480" /><path
   d="m 422.43881,175.93472 c 0.66244,15.59964 4.85181,27.14535 11.73243,30.05757 -2.90805,-0.5215 -9.00308,-7.42819 -10.62114,-1.22913"
   id="path486"
   style="fill:none;stroke:#000000;stroke-width:1.00379658;stroke-miterlimit:2.41420007" /><polygon
   points="604.398,320.049 603.096,325.796 606.144,325.677 606.144,325.677 "
   transform="matrix(0.69804323,0,0,0.6414587,0.40326982,-32.476451)"
   id="polygon488" /><path
   d="m 427.62518,229.36305 c -5.8315,1.70464 -9.25293,-10.89348 -5.35299,-20.09315"
   id="path494"
   style="fill:none;stroke:#000000;stroke-width:1.00379658;stroke-miterlimit:2.41420007" /><polygon
   points="606.421,376.972 605.678,371.126 603.399,376.56 606.421,376.972 "
   transform="matrix(0.69192273,0.09223497,-0.08475825,0.63583434,35.644228,-85.935331)"
   id="polygon496" /><circle
   cx="492.461"
   cy="447.67999"
   r="1.556"
   transform="matrix(0.69804323,0,0,0.6414587,2.384877,-14.377773)"
   id="Alexandria"
   style="fill-rule:evenodd" /><circle
   cx="621.10699"
   cy="412.50299"
   r="1.556"
   transform="matrix(0.69804323,0,0,0.6414587,3.309627,-14.179612)"
   id="Jerusalem"
   style="fill-rule:evenodd" /><circle
   cx="609.30902"
   cy="389.771"
   r="1.556"
   transform="matrix(0.69804323,0,0,0.6414587,3.1775198,-20.851023)"
   id="Caesarea"
   style="fill-rule:evenodd" /><circle
   cx="644.29602"
   cy="359.10599"
   r="1.556"
   transform="matrix(0.69804323,0,0,0.6414587,2.9133055,-19.397844)"
   id="Damascus"
   style="fill-rule:evenodd" /><circle
   cx="616.375"
   cy="356.32999"
   r="1.556"
   transform="matrix(0.69804323,0,0,0.6414587,4.7628055,-22.304201)"
   id="Sidon"
   style="fill-rule:evenodd" /><circle
   cx="593.59497"
   cy="253.104"
   r="1.556"
   transform="matrix(0.69804323,0,0,0.6414587,0.53537701,-26.795844)"
   id="Tarsus"
   style="fill-rule:evenodd" /><circle
   cx="472.62201"
   cy="293.63501"
   r="1.556"
   transform="matrix(0.69804323,0,0,0.6414587,2.2168264,-23.246118)"
   id="Myra"
   style="fill-rule:evenodd" /><circle
   cx="406.10599"
   cy="288.021"
   r="1.556"
   transform="matrix(0.69804323,0,0,0.6414587,1.8564484,-23.75738)"
   id="Cnidus"
   style="fill-rule:evenodd" /><circle
   cx="402.37"
   cy="260.70001"
   r="1.556"
   transform="matrix(0.69804323,0,0,0.6414587,3.0162747,-25.151143)"
   id="Miletus"
   style="fill-rule:evenodd" /><circle
   cx="400.979"
   cy="249.20399"
   r="1.556"
   transform="matrix(0.69804323,0,0,0.6414587,0.53537701,-26.795844)"
   id="Ephesus"
   style="fill-rule:evenodd" /><circle
   cx="296.586"
   cy="168.70599"
   r="1.556"
   transform="matrix(0.69804323,0,0,0.6414587,2.0299987,-29.971915)"
   id="Thessalonica"
   style="fill-rule:evenodd" /><circle
   cx="380.37201"
   cy="332.93799"
   r="1.556"
   transform="matrix(0.69804323,0,0,0.6414587,0.53537701,-21.247344)"
   id="Salome"
   style="fill-rule:evenodd" /><circle
   cx="347.91"
   cy="341.93799"
   r="1.556"
   transform="matrix(0.69804323,0,0,0.6414587,2.9133055,-20.718916)"
   id="Lasea"
   style="fill-rule:evenodd" /><circle
   cx="342.73499"
   cy="340.616"
   r="1.556"
   transform="matrix(0.69804323,0,0,0.6414587,0.86564486,-19.596005)"
   id="Fair_Havens"
   style="fill-rule:evenodd" /><circle
   cx="327.13699"
   cy="335.57401"
   r="1.556"
   transform="matrix(0.69804323,0,0,0.6414587,-5.0131228,-21.247344)"
   id="Phoenix"
   style="fill-rule:evenodd" /><circle
   cx="107.09"
   cy="279.745"
   r="1.556"
   transform="matrix(0.69804323,0,0,0.6414587,-1.7104444,-22.898683)"
   id="Syracuse"
   style="fill-rule:evenodd" /><circle
   cx="118.271"
   cy="250.30901"
   r="1.556"
   transform="matrix(0.69804323,0,0,0.6414587,1.1959127,-23.493166)"
   id="Rhegium"
   style="fill-rule:evenodd" /><circle
   cx="86.838997"
   cy="161.15199"
   r="1.556"
   transform="matrix(0.69804323,0,0,0.6414587,-0.52148011,-32.08013)"
   id="Puteoli"
   style="fill-rule:evenodd" /><circle
   cx="55.436001"
   cy="127.072"
   r="1.556"
   transform="matrix(0.69804323,0,0,0.6414587,-0.12515869,-32.476451)"
   id="Rome"
   style="fill-rule:evenodd" />
   
<line
   id="Fair_Havens_line"
   stroke-miterlimit="2.4142"
   x1="240.384"
   y1="200.27698"
   x2="242.65413"
   y2="210.01979"
   style="fill:none;stroke:#000000;stroke-width:0.52306545;stroke-miterlimit:2.41420007"
   mask="none" />
   

   

   

   



<g
   transform="matrix(0.69804323,0,0,0.6414587,-206.76952,-105.53602)"
   id="Scale_Bar">

<rect
   width="29.139"
   height="3.1889999"
   x="460.48499"
   y="505.80399"
   id="Far_Right"
   style="fill:#ffffff;fill-rule:evenodd;stroke:#000000;stroke-width:0.2586;stroke-miterlimit:2.41420007" />

<g
   id="Right_Center">

<rect
   width="29.139999"
   height="3.1889999"
   x="431.353"
   y="505.80399"
   id="Outside_2_"
   style="fill:#ffffff;fill-rule:evenodd;stroke:#000000;stroke-width:0.2579;stroke-miterlimit:2.41420007" />

<line
   style="fill:#ffffff;fill-rule:evenodd;stroke:#000000;stroke-width:1.18560004;stroke-miterlimit:2.41420007"
   y2="507.39801"
   x2="460.49301"
   y1="507.39801"
   x1="431.353"
   stroke-miterlimit="2.4142"
   id="Inside_1_" />
	</g>

<rect
   width="29.139999"
   height="3.1889999"
   x="402.21301"
   y="505.80399"
   id="Left_Center"
   style="fill:#ffffff;fill-rule:evenodd;stroke:#000000;stroke-width:0.2586;stroke-miterlimit:2.41420007" />

<g
   id="Far_Left">

<rect
   width="29.141001"
   height="3.1889999"
   x="373.073"
   y="505.80399"
   id="Outside"
   style="fill:#ffffff;fill-rule:evenodd;stroke:#000000;stroke-width:0.2579;stroke-miterlimit:2.41420007" />

<line
   style="fill:#ffffff;fill-rule:evenodd;stroke:#000000;stroke-width:1.18560004;stroke-miterlimit:2.41420007"
   y2="507.39801"
   x2="402.32101"
   y1="507.39801"
   x1="373.181"
   stroke-miterlimit="2.4142"
   id="Inside" />
	</g>

	</g>
<text
   x="346.07227"
   y="280.30627"
   id="Region_Egypt"
   style="font-size:6px;fill:#ff0000;font-family:Arial">EGYPT</text>



<text
   x="205.53496"
   y="274.79965"
   id="Region_Libya"
   style="font-size:6px;fill:#ff0000;font-family:Arial">LYBYA</text>



<text
   x="415.75534"
   y="278.60229"
   id="Region_Arabia"
   style="font-size:6px;fill:#ff0000;font-family:Arial">ARABIA</text>



<text
   x="-52.049046"
   y="498.53992"
   id="Region_Judea"
   style="font-size:6px;fill:#ff0000;font-family:Arial"
   transform="matrix(0.4245698,-0.90539521,0.90539521,0.4245698,0,0)">Judea</text>



<text
   x="437.4563"
   y="169.40616"
   id="Region_Syria"
   style="font-size:6px;fill:#ff0000;font-family:Arial">SYRIA</text>



<text
   x="371.45837"
   y="-57.881115"
   transform="matrix(0.86982776,0.50703453,-0.52153554,0.84564267,0,0)"
   id="Region_Pamphylia"
   style="font-size:6.09881687px;fill:#ff0000;font-family:Arial">PAMPHYLIA</text>



<text
   x="310.5499"
   y="155.34355"
   id="Region_Lycia"
   style="font-size:6px;fill:#ff0000;font-family:Arial">LYCIA</text>















<text
   x="323.33365"
   y="108.94917"
   id="Region_Asia"
   style="font-size:6px;fill:#ff0000;font-family:Arial">ASIA</text>







<text
   x="150.19914"
   y="58.150848"
   id="Region_Macedonia"
   style="font-size:6px;fill:#ff0000;font-family:Arial">MACEDONIA</text>







<text
   x="51.048183"
   y="144.19048"
   id="Region_Sicily"
   style="font-size:6px;fill:#ff0000;font-family:Arial">Sicily</text>



<text
   x="77.141411"
   y="74.040382"
   id="Region_Italy"
   style="font-size:6px;fill:#ff0000;font-family:Arial">ITALY</text>



<text
   x="291.87616"
   y="226.09409"
   id="Sea_Mediterranean"
   style="font-size:6px;fill:#ff0000;font-family:Arial">MEDITERRANEAN SEA</text>



<text
   x="316.27237"
   y="27.000708"
   id="Sea_BlackSea"
   style="font-size:6px;fill:#ff0000;font-family:Arial">BLACK SEA</text>





<text
   x="214.19469"
   y="356.44937"
   transform="matrix(0.80932735,-0.59422457,0.61121919,0.78682444,0,0)"
   id="Region_Cilicia"
   style="font-size:6.09881687px;fill:#ff0000;font-family:Arial">CILICIA</text>









<text
   x="38.812138"
   y="183.68001"
   id="Island_Malta"
   style="font-size:6px;fill:#ff0000;font-family:Arial">Malta</text>



<text
   x="222.73067"
   y="368.72275"
   id="Island_Cyprus"
   style="font-size:6px;fill:#ff0000;font-family:Arial"
   transform="matrix(0.84343248,-0.53723519,0.53723519,0.84343248,0,0)">Cyprus</text>



<text
   x="228.83116"
   y="183.78084"
   id="Island_Crete"
   style="font-size:6px;fill:#ff0000;font-family:Arial">Crete</text>



<text
   x="218.13551"
   y="201.11528"
   id="Island_Clauda"
   style="font-size:6px;fill:#ff0000;font-family:Arial">Clauda</text>



<text
   x="313.76987"
   y="272.61758"
   id="City_Alexandria"
   style="font-size:6px;fill:#ff0000;font-family:Arial">Alexandria</text>







<text
   x="433.35257"
   y="240.89323"
   id="City_Antipatris"
   style="font-size:6px;fill:#ff0000;font-family:Arial">Antipatris</text>



<text
   x="401.02365"
   y="234.10722"
   id="City_Caesarea"
   style="font-size:6px;fill:#ff0000;font-family:Arial">Caesarea</text>



<text
   x="437.23618"
   y="228.77475"
   id="City_Nazareth"
   style="font-size:6px;fill:#ff0000;font-family:Arial">Nazareth</text>





<text
   x="455.09027"
   y="212.97577"
   id="City_Damascus"
   style="font-size:6px;fill:#ff0000;font-family:Arial">Damascus</text>





<text
   x="438.90714"
   y="252.61124"
   id="City_Jerusalem"
   style="font-size:6px;fill:#ff0000;font-family:Arial">Jerusalem</text>



<text
   x="439.08856"
   y="207.32909"
   id="City_Sidon"
   style="font-size:6px;fill:#ff0000;font-family:Arial">Sidon</text>











<text
   x="400.82541"
   y="132.97293"
   id="City_Tarsus"
   style="font-size:6px;fill:#ff0000;font-family:Arial">Tarsus</text>



























<text
   x="334.77191"
   y="163.39563"
   id="City_Myra"
   style="font-size:6px;fill:#ff0000;font-family:Arial">Myra</text>





<text
   x="264.88681"
   y="164.46469"
   id="City_Cnidus"
   style="font-size:6px;fill:#ff0000;font-family:Arial">Cnidus</text>





<text
   x="280.89108"
   y="130.81592"
   id="City_Ephesus"
   style="font-size:6px;fill:#ff0000;font-family:Arial">Ephesus</text>









<text
   x="273.10019"
   y="103.65027"
   id="City_Adramyttium"
   style="font-size:6px;fill:#ff0000;font-family:Arial">Adramyttium</text>













<text
   x="169.23839"
   y="78.060654"
   id="City_Thessalonica"
   style="font-size:6px;fill:#ff0000;font-family:Arial">Thessalonica</text>









<text
   x="242.59354"
   y="190.67105"
   id="City_Salmone"
   style="font-size:6px;fill:#ff0000;font-family:Arial">Salmone</text>



<text
   x="247.22113"
   y="203.46426"
   id="City_Lasea"
   style="font-size:6px;fill:#ff0000;font-family:Arial">Lasea</text>



<text
   x="237.46272"
   y="215.20607"
   id="City_FairHavens"
   style="font-size:6px;fill:#ff0000;font-family:Arial">Fair Havens</text>



<text
   x="198.53851"
   y="193.86394"
   id="City_Phoenix"
   style="font-size:6px;fill:#ff0000;font-family:Arial">Phoenix</text>





<text
   x="77.729324"
   y="160.89825"
   id="City_Syracuse"
   style="font-size:6px;fill:#ff0000;font-family:Arial">Syracuse</text>



<text
   x="86.266449"
   y="139.2621"
   id="City_Rhegium"
   style="font-size:6px;fill:#ff0000;font-family:Arial">Rhegium</text>



<text
   x="38.328865"
   y="73.298958"
   id="City_Puteoli"
   style="font-size:6px;fill:#ff0000;font-family:Arial">Puteoli</text>



<text
   x="41.272835"
   y="49.939644"
   id="City_Rome"
   style="font-size:6px;fill:#ff0000;font-family:Arial">Rome</text>



<text
   x="53.16029"
   y="59.980564"
   id="City_Appius"
   style="font-size:6px;fill:#ff0000;font-family:Arial">Forum Appius</text>



<text
   x="46.809959"
   y="54.744991"
   id="City_ThreeInns"
   style="font-size:6px;fill:#ff0000;font-family:Arial">Three Inns</text>



<text
   x="52.383121"
   y="227.38332"
   id="Scale_K_Number_A"
   style="font-size:4.57411242px;fill:#ff0000;font-family:Arial-Bold">0</text>



<text
   x="69.647781"
   y="227.38332"
   id="Scale_K_Number_B"
   style="font-size:4.57411242px;fill:#ff0000;font-family:Arial-Bold">100</text>



<text
   x="89.100266"
   y="227.38332"
   id="Scale_K_Number_C"
   style="font-size:4.57411242px;fill:#ff0000;font-family:Arial-Bold">200</text>



<text
   x="108.6508"
   y="227.38332"
   id="Scale_K_Number_D"
   style="font-size:4.57411242px;fill:#ff0000;font-family:Arial-Bold">300</text>



<text
   x="128.00716"
   y="227.38332"
   id="Scale_K_Number_E"
   style="font-size:4.57411242px;fill:#ff0000;font-family:Arial-Bold">400</text>



<text
   x="82.650528"
   y="232.13612"
   id="Scale_K_DistanceKey"
   style="font-size:4.57411242px;fill:#ff0000;font-family:Arial-Bold">Kilometers</text>



<text
   x="59.877338"
   y="243.05104"
   id="Scale_M_Number_A"
   style="font-size:4.57411242px;fill:#ff0000;font-family:Arial-Bold">0</text>



<text
   x="75.167068"
   y="243.05104"
   id="Scale_M_Number_B"
   style="font-size:4.57411242px;fill:#ff0000;font-family:Arial-Bold">50</text>



<text
   x="88.694717"
   y="243.05104"
   id="Scale_M_Number_C"
   style="font-size:4.57411242px;fill:#ff0000;font-family:Arial-Bold">100</text>



<text
   x="106.27031"
   y="243.05104"
   id="Scale_M_Number_D"
   style="font-size:4.57411242px;fill:#ff0000;font-family:Arial-Bold">150</text>



<text
   x="122.66432"
   y="243.05104"
   id="Scale_M_Number_E"
   style="font-size:4.57411242px;fill:#ff0000;font-family:Arial-Bold">200</text>



<text
   x="90.950546"
   y="249.19426"
   id="Scale_M_DistanceKey"
   style="font-size:4.57411242px;fill:#ff0000;font-family:Arial-Bold">Miles</text>



<rect
   width="491.90619"
   height="294.84497"
   x="0.37342051"
   y="-0.80182534"
   id="Map_Border"
   style="fill:none;stroke:#000000;stroke-width:0.74687064;stroke-miterlimit:2.41420007;stroke-dasharray:none" />

<rect
   height="24.174969"
   id="rect3027"
   style="fill:#ffffff;fill-opacity:1;stroke:#000000;stroke-width:0.69439477;stroke-miterlimit:4;stroke-opacity:1;stroke-dasharray:none;overflow:visible"
   width="115.82113"
   x="19.705378"
   y="259.56909" />

<text
   x="76.17704"
   y="270.90897"
   style="font-size:10px;font-style:normal;font-variant:normal;font-weight:normal;font-stretch:normal;text-align:center;line-height:100%;writing-mode:lr-tb;text-anchor:middle;fill:#ff0000;fill-opacity:1;stroke:none;overflow:visible;font-family:Arial;-inkscape-font-specification:Arial"
   id="Title-m08d_Main"
   sodipodi:linespacing="100%">Paul’s Fourth Missionary Journey</text>



<text
   x="75.992699"
   y="279.94162"
   style="font-size:9px;font-style:normal;font-variant:normal;font-weight:normal;font-stretch:normal;text-align:center;line-height:100%;writing-mode:lr-tb;text-anchor:middle;fill:#ff0000;fill-opacity:1;stroke:none;overflow:visible;font-family:Arial;-inkscape-font-specification:Arial"
   id="Ref-m08d_Title"
   sodipodi:linespacing="100%">Acts 21:17–28:31</text>




<circle
   sodipodi:ry="1.556"
   sodipodi:rx="1.556"
   sodipodi:cy="422.802"
   sodipodi:cx="604.40503"
   cx="604.40503"
   cy="422.802"
   r="1.556"
   transform="matrix(0.6980432,0,0,0.6414587,9.9144734,-30.855364)"
   id="Antipatris"
   style="fill-rule:evenodd;overflow:visible" /><circle
   sodipodi:ry="1.556"
   sodipodi:rx="1.556"
   sodipodi:cy="389.771"
   sodipodi:cx="609.30902"
   cx="609.30902"
   cy="389.771"
   r="1.556"
   transform="matrix(0.6980432,0,0,0.6414587,9.8913947,-23.692835)"
   id="Nazareth"
   style="fill-rule:evenodd;overflow:visible"
   inkscape:label="Nazareth" /><circle
   sodipodi:ry="1.556"
   sodipodi:rx="1.556"
   sodipodi:cy="202.47701"
   sodipodi:cx="374.293"
   cx="374.293"
   cy="202.47701"
   r="1.556"
   transform="matrix(0.6980432,0,0,0.6414587,13.287041,-31.310999)"
   id="Adramyttium"
   style="fill-rule:evenodd;overflow:visible"
   inkscape:label="Adramyttium" /><circle
   sodipodi:ry="1.556"
   sodipodi:rx="1.556"
   sodipodi:cy="161.15199"
   sodipodi:cx="86.838997"
   cx="86.838997"
   cy="161.15199"
   r="1.556"
   transform="matrix(0.6980432,0,0,0.6414587,-15.650779,-49.599294)"
   id="ThreeInns"
   style="fill-rule:evenodd;overflow:visible" /><circle
   sodipodi:ry="1.556"
   sodipodi:rx="1.556"
   sodipodi:cy="161.15199"
   sodipodi:cx="86.838997"
   cx="86.838997"
   cy="161.15199"
   r="1.556"
   transform="matrix(0.6980432,0,0,0.6414587,-9.5305626,-46.709192)"
   id="Puteoli-8"
   style="fill-rule:evenodd;overflow:visible" /></svg>